<svg xmlns="http://www.w3.org/2000/svg" viewBox="0 0 351.975 309.433"><defs><clipPath id="a"><path d="M0 500h500V0H0z"/></clipPath></defs><path fill="#ac425c" d="M159.61 295.392v-.056z"/><g clip-path="url(#a)" transform="matrix(.78521 0 0 -.78521 -20.316 364.059)"><path fill="#f2f2f2" d="M214.884 361H40.856a8.21 8.21 0 0 0 2.021 3.207c5.911 5.677 15.817 3.943 22.843-.278-1.969 3.903-.846 8.926 2.102 12.158 2.95 3.23 7.41 4.798 11.78 4.938 6.167.197 12.706-2.65 15.561-8.121-1.812 7.653 2.375 16.296 9.505 19.619 7.13 3.32 16.441.965 21.133-5.347-3.659 7.793-2.417 17.137 1.05 25.015 2.97 6.742 7.616 12.895 13.892 16.749 9.19 5.644 21.345 5.691 30.957.799 9.611-4.89 16.586-14.349 19.212-24.812 2.624-10.461 1.07-21.772-3.537-31.523a46.506 46.506 0 0 0 16.264 1.607c4.087-.323 8.618-1.527 10.647-5.088 1.514-2.652 1.22-5.903.598-8.923M203.064 417.21h111.77a5.279 5.279 0 0 1-1.298 2.06c-3.796 3.646-10.158 2.532-14.671-.178 1.265 2.506.543 5.732-1.349 7.808-1.895 2.074-4.759 3.08-7.567 3.17-3.96.127-8.16-1.702-9.994-5.215 1.164 4.915-1.525 10.466-6.104 12.6-4.579 2.133-10.56.62-13.573-3.433 2.35 5.004 1.552 11.006-.674 16.066-1.907 4.33-4.892 8.281-8.923 10.756-5.902 3.625-13.709 3.655-19.882.513-6.173-3.14-10.652-9.216-12.339-15.936-1.685-6.718-.687-13.983 2.272-20.246a29.873 29.873 0 0 1-10.446 1.033c-2.624-.208-5.535-.98-6.838-3.268-.972-1.703-.783-3.79-.384-5.73M348.997 350.94h111.771a5.29 5.29 0 0 1-1.298 2.06c-3.796 3.646-10.16 2.532-14.672-.179 1.265 2.507.544 5.733-1.35 7.81-1.894 2.073-4.758 3.08-7.565 3.17-3.96.126-8.16-1.702-9.994-5.215 1.164 4.914-1.526 10.466-6.105 12.6-4.579 2.132-10.559.62-13.573-3.434 2.35 5.004 1.553 11.006-.675 16.065-1.906 4.331-4.892 8.283-8.922 10.758-5.902 3.625-13.709 3.655-19.882.513-6.173-3.14-10.652-9.216-12.339-15.936-1.685-6.718-.686-13.983 2.272-20.246a29.873 29.873 0 0 1-10.446 1.033c-2.624-.208-5.535-.98-6.837-3.268-.973-1.704-.783-3.792-.385-5.73M378.398 415.33h63.41c-.15.44-.412.856-.736 1.168-2.153 2.07-5.764 1.437-8.323-.1.717 1.421.307 3.252-.766 4.43-1.075 1.176-2.7 1.748-4.293 1.798-2.247.072-4.63-.965-5.67-2.959.66 2.79-.865 5.938-3.463 7.15-2.597 1.21-5.99.351-7.7-1.949 1.333 2.84.881 6.244-.383 9.114-1.082 2.457-2.775 4.7-5.06 6.103-3.35 2.057-7.779 2.074-11.282.291-3.502-1.78-6.043-5.228-7-9.04-.956-3.812-.389-7.933 1.29-11.486a16.955 16.955 0 0 1-5.927.585c-1.489-.118-3.14-.556-3.879-1.854-.552-.966-.445-2.15-.218-3.25"/><path fill="#fec368" d="M100.634 234.871c1.933-1.749 4.917-1.237 7.486-.798 2.565.44 5.753.427 7.112-1.798 2.684-4.388-4.129-8.144-6.196-11.02-2.497-3.482-1.366-6.992 1.717-9.572 1.998-1.673 4.73-2.795 4.394-5.843-.486-4.415-5.16-9.383-8.33-12.145-5.058-4.405-11.418-7.027-18.045-8.303a28.854 28.854 0 0 0-1.38-.248 51.786 51.786 0 0 0-4.667-.56 60.572 60.572 0 0 0-24.659 3.264c-4.819 1.695-9.537 4.094-12.923 7.92-.154.174-.307.36-.458.553-4.064 5.208-7.01 17.324 3.398 15.151 2.685-.562 5.201-1.876 7.934-2.157 2.731-.276 5.968.971 6.59 3.644.703 3.052-2.439 5.741-5.51 6.354-3.073.614-6.298.002-9.355.68-3.06.681-6.107 3.543-5.205 6.542.684 2.282 3.297 3.408 5.67 3.61 2.374.2 4.806-.216 7.122.341 2.316.554 4.582 2.595 4.201 4.945-.495 3.055-4.562 3.795-7.634 3.435-3.072-.359-6.823-.819-8.657 1.67-1.586 2.155-.582 5.34 1.277 7.261 1.858 1.924 4.377 3.044 6.518 4.648 1.543 1.156 5.208 5.82 1.922 6.987-1.089.387-2.923-.504-4.072-.523-1.838-.028-3.805.472-5.415 1.35-3.333 1.82-5.22 6.716-2.665 9.526 1.654 1.82 4.361 2.063 6.76 2.602 2.398.54 5.081 1.981 5.228 4.434.182 3.078-3.567 4.676-6.6 5.207-3.037.53-6.81 1.564-7.279 4.61-.44 2.895 2.563 5.03 5.191 6.322 2.63 1.29 5.72 3.144 5.634 6.072-.11 3.95-5.499 5.053-8.167 7.964-1.812 1.98-2.309 4.886-1.93 7.54.377 2.653 1.525 5.127 2.655 7.558 1.418 3.04 2.961 6.231 5.741 8.107 2.783 1.88 7.192 1.77 8.924-1.105 2.734-4.543-3.007-11.477.69-15.285 2.081-2.142 5.603-1.438 8.51-.739 2.903.701 6.641.916 8.193-1.637 1.643-2.707-.58-6.03-2.57-8.495-1.985-2.465-3.809-6.207-1.635-8.507 1.467-1.554 4.004-1.41 6.012-.678 2.01.733 3.885 1.936 6.012 2.17 2.561.273 5.225-1.05 6.547-3.259 1.323-2.209 1.236-5.183-.212-7.31-1.216-1.78-3.18-2.87-4.792-4.304-1.613-1.432-2.955-3.614-2.27-5.659 1.037-3.094 5.331-3.14 8.56-2.68 3.232.46 7.607.074 8.272-3.12.862-4.155-6.072-7.202-4.717-11.222.677-2.016 3.237-2.797 5.33-2.399 2.09.394 3.914 1.617 5.882 2.427 1.967.811 4.386 1.157 6.102-.1 2.703-1.99 1.697-6.468-.71-8.81-2.403-2.346-5.734-3.528-8.219-5.787-2.48-2.263-3.8-6.578-1.312-8.83"/><path fill="#ffdcb3" d="M109.695 226.932a97.214 97.214 0 0 0-22.606-17.086 173.488 173.488 0 0 0 1.684-24.453 26.402 26.402 0 0 0-1.381-.248c.005 2.554-.043 5.106-.148 7.657-7.132-.13-13.485.505-19.413 1.933-6.843 1.648-12.933 4.345-18.094 8.012a.692.692 0 0 0-.161.962.692.692 0 0 0 .962.16c5.015-3.565 10.945-6.186 17.618-7.795 5.803-1.4 12.032-2.018 19.03-1.897a172.399 172.399 0 0 1-3.05 24.869c-10.14.106-20.435 2.212-29.794 6.107a.692.692 0 0 0-.372.902.688.688 0 0 0 .9.372c9.11-3.791 19.118-5.86 28.99-5.996a172.375 172.375 0 0 1-4.498 17.27 45.464 45.464 0 0 0-21.118 6.735.69.69 0 0 0 .729 1.17 44.076 44.076 0 0 1 19.93-6.492 169.431 169.431 0 0 1-3.73 10.296 232.773 232.773 0 0 1-4.151 9.66l-7.588 1.912c-3.664.92-8.228 2.068-11.372 5.119a.691.691 0 0 0-.015.977c.266.273.7.28.974.014 2.88-2.793 7.062-3.847 10.749-4.774l6.518-1.642c-1.118 2.44-2.256 4.86-3.378 7.246-2.562 5.454-5.212 11.089-7.55 16.759a43.987 43.987 0 0 0-10.347 4.19.69.69 0 0 0 .676 1.201 42.606 42.606 0 0 1 9.02-3.781c-2.983 7.445-5.075 14.225-6.321 20.582a17.682 17.682 0 0 0-7.88 8.51.689.689 0 0 0 1.263.552c1.29-2.96 3.546-5.555 6.29-7.281-.848 4.872-1.2 9.509-1.065 14.018.01.379.33.679.71.669a.694.694 0 0 0 .669-.71c-.24-7.985 1.064-16.392 4.042-25.875l6.284 10.073a.69.69 0 0 0 1.17-.73l-6.724-10.776a.666.666 0 0 0-.207-.21 147.46 147.46 0 0 1 3.646-9.797c1.697-4.122 3.565-8.23 5.443-12.267a75.088 75.088 0 0 1 10.563 13.37.69.69 0 0 0 1.174-.725 76.968 76.968 0 0 0-11.113-13.981c.504-1.071 1.004-2.142 1.506-3.203 2.436-5.184 4.945-10.523 7.2-15.92A53.063 53.063 0 0 1 86.73 264.96a.689.689 0 0 0 1.147-.76 54.418 54.418 0 0 0-11.972-12.935c.183-.445.366-.893.547-1.341a171.57 171.57 0 0 0 5.879-17.353A80.426 80.426 0 0 1 99.762 250a.689.689 0 0 0 1.115-.81 81.85 81.85 0 0 0-18.154-18.046 173.469 173.469 0 0 0 4.149-19.843 95.654 95.654 0 0 1 21.84 16.6.694.694 0 0 0 .976.007.693.693 0 0 0 .007-.976"/><path fill="#6ac17b" d="M440.404 284.017c.168-2.193 2.293-3.612 4.121-4.834 1.826-1.22 3.771-3.08 3.311-5.23-.905-4.247-7.257-2.59-10.193-3.152-3.55-.682-4.896-3.489-4.506-6.858.252-2.185 1.273-4.457-.702-6.129-2.86-2.422-8.607-2.749-12.15-2.6-5.656.24-11.073 2.325-15.87 5.392-.335.207-.667.424-.99.65a43.243 43.243 0 0 0-3.185 2.365 51.128 51.128 0 0 0-13.204 16.316c-1.967 3.836-3.463 8.045-3.315 12.353.007.197.021.4.04.605.536 5.55 5.767 14.68 10.877 7.305 1.32-1.903 2.097-4.169 3.607-5.927 1.513-1.755 4.22-2.87 6.15-1.595 2.203 1.46 1.841 4.931.316 7.091s-3.856 3.657-5.333 5.847c-1.479 2.193-1.683 5.715.611 7.028 1.744 1 3.998.173 5.568-1.08 1.57-1.257 2.817-2.924 4.56-3.927 1.738-1.006 4.311-1.072 5.441.588 1.472 2.158-.589 4.973-2.678 6.536-2.09 1.563-4.655 3.46-4.332 6.048.28 2.242 2.744 3.608 4.997 3.706 2.255.1 4.448-.678 6.69-.938 1.616-.189 6.567.54 5.233 3.162-.44.87-2.082 1.388-2.796 2.045-1.142 1.05-2.056 2.497-2.533 3.97-.983 3.05.703 7.143 3.9 7.38 2.068.154 3.868-1.268 5.65-2.33 1.78-1.063 4.261-1.738 5.776-.32 1.898 1.777.53 4.933-1.019 7.02-1.552 2.087-3.263 4.911-1.78 7.048 1.411 2.028 4.49 1.591 6.85.858 2.358-.737 5.327-1.396 6.975.446 2.224 2.483-.434 6.287-.378 9.62.04 2.264 1.423 4.332 3.195 5.737 1.772 1.406 3.911 2.254 6.015 3.087 2.633 1.037 5.431 2.096 8.222 1.63 2.795-.465 5.431-3.092 4.823-5.857-.964-4.37-8.505-5.283-8.45-9.76.03-2.52 2.594-4.134 4.78-5.394 2.185-1.256 4.6-3.295 4.067-5.759-.565-2.612-3.857-3.356-6.507-3.71-2.646-.357-5.935-1.59-5.94-4.26-.003-1.803 1.634-3.189 3.29-3.906 1.654-.718 3.501-1.07 4.94-2.163 1.726-1.318 2.59-3.676 2.117-5.796-.472-2.12-2.253-3.89-4.374-4.353-1.779-.384-3.616.088-5.434.148-1.819.058-3.907-.499-4.676-2.148-1.16-2.497 1.442-5.019 3.685-6.612 2.247-1.594 4.702-4.37 3.254-6.713-1.883-3.045-7.9-.885-9.403-4.133-.755-1.627.358-3.592 1.871-4.563 1.508-.973 3.336-1.284 5.011-1.929 1.676-.646 3.357-1.839 3.678-3.605.501-2.787-2.716-4.945-5.55-4.983-2.833-.04-5.558 1.17-8.392 1.23-2.832.054-6.147-1.822-5.93-4.647"/><path fill="#51af61" d="M441.344 273.895a82.003 82.003 0 0 0-23.764 2.662 146.603 146.603 0 0 0-13.166-15.951c-.334.207-.666.424-.99.65a151.275 151.275 0 0 1 4.356 4.774c-4.443 4.062-7.965 8.139-10.766 12.455-3.233 4.982-5.397 10.17-6.428 15.413a.585.585 0 0 0 .46.682c.315.06.62-.145.683-.461 1-5.095 3.109-10.142 6.26-15.002 2.743-4.226 6.198-8.222 10.553-12.211a145.523 145.523 0 0 1 12.573 17c-6.15 5.952-11.23 13.219-14.7 21.038a.583.583 0 0 0 1.064.472 66.637 66.637 0 0 1 14.269-20.502 145.065 145.065 0 0 1 7.273 13.187A38.367 38.367 0 0 0 420 314.486a.583.583 0 0 0 1.126.294 37.21 37.21 0 0 1 8.435-15.548 143.492 143.492 0 0 1 3.694 8.47c1.086 2.736 2.1 5.529 3.067 8.326l-3.537 5.577c-1.71 2.69-3.837 6.043-3.992 9.737a.584.584 0 0 0 .559.607.58.58 0 0 0 .604-.557c.142-3.383 2.09-6.455 3.81-9.164l3.038-4.79c.732 2.144 1.44 4.286 2.139 6.398 1.598 4.828 3.247 9.816 5.107 14.646a37.046 37.046 0 0 0-3.903 8.573.584.584 0 0 0 .384.729.583.583 0 0 0 .727-.386 35.986 35.986 0 0 1 3.328-7.552c2.496 6.291 5.152 11.657 8.079 16.274a14.92 14.92 0 0 0 .117 9.785.58.58 0 1 0 1.092-.394c-.926-2.562-1.053-5.461-.375-8.112 2.309 3.476 4.786 6.521 7.487 9.203a.583.583 0 0 0 .823-.002.586.586 0 0 0-.003-.824c-4.782-4.751-8.865-10.655-12.548-18.191l9.697 2.52a.582.582 0 0 0 .294-1.127l-10.376-2.694a.564.564 0 0 0-.248-.008 124.62 124.62 0 0 1-3.456-8.116c-1.353-3.51-2.595-7.11-3.79-10.673 4.805.144 9.59.832 14.232 2.054a.583.583 0 1 0 .297-1.125 64.917 64.917 0 0 0-14.921-2.109c-.314-.948-.63-1.895-.938-2.836-1.518-4.589-3.082-9.315-4.834-13.929a44.807 44.807 0 0 1 14.145.972.58.58 0 1 0 .261-1.132 45.895 45.895 0 0 0-14.841-.969c-.147-.379-.294-.76-.444-1.139a145.061 145.061 0 0 0-6.474-14.04 67.873 67.873 0 0 1 20.794.554.581.581 0 1 0 .21-1.143 69.04 69.04 0 0 0-21.594-.511 146.263 146.263 0 0 0-8.98-14.559 80.67 80.67 0 0 1 23.012-2.516.587.587 0 0 0 .602-.562.586.586 0 0 0-.562-.602"/><path fill="#6e9c88" d="M341.756 252.373c.683-2.031 3.029-2.863 5.049-3.58 2.016-.715 4.298-2.004 4.38-4.146.162-4.228-6.235-4.185-8.872-5.417-3.191-1.494-3.79-4.468-2.615-7.557.762-2.003 2.27-3.904.805-5.956-2.122-2.972-7.472-4.657-10.854-5.365-5.4-1.13-11.014-.455-16.28 1.293-.365.116-.73.24-1.09.377a42.37 42.37 0 0 0-3.574 1.472 49.801 49.801 0 0 0-16.377 12.248c-2.776 3.152-5.196 6.769-6.088 10.874a9.51 9.51 0 0 0-.107.58c-.822 5.369 1.932 15.244 8.524 9.504 1.702-1.482 2.978-3.436 4.826-4.735 1.847-1.295 4.67-1.701 6.19-.034 1.73 1.907.558 5.098-1.4 6.773-1.956 1.674-4.517 2.53-6.437 4.245-1.921 1.718-2.957 4.995-1.105 6.784 1.408 1.363 3.734 1.12 5.518.312 1.782-.811 3.36-2.086 5.245-2.616 1.884-.534 4.329.02 5 1.858.873 2.39-1.747 4.556-4.095 5.532-2.35.976-5.224 2.153-5.54 4.675-.272 2.184 1.728 4.065 3.834 4.696 2.105.634 4.362.426 6.542.716 1.572.209 6.074 2.082 4.186 4.24-.626.715-2.3.812-3.132 1.26-1.33.719-2.54 1.868-3.342 3.145-1.66 2.644-1.046 6.914 1.916 7.904 1.917.64 3.957-.272 5.894-.85 1.937-.576 4.44-.62 5.532 1.08 1.367 2.135-.68 4.788-2.642 6.388-1.966 1.6-4.258 3.858-3.37 6.23.847 2.255 3.859 2.579 6.264 2.45 2.403-.13 5.366-.042 6.48 2.093 1.507 2.877-1.913 5.834-2.66 8.995-.503 2.147.308 4.43 1.645 6.183 1.337 1.752 3.154 3.066 4.94 4.355 2.24 1.61 4.629 3.28 7.376 3.509 2.752.23 5.87-1.62 5.958-4.377.137-4.358-6.767-7.026-5.645-11.242.633-2.373 3.442-3.283 5.807-3.95 2.366-.663 5.133-2.01 5.22-4.465.092-2.602-2.84-4.092-5.256-5.062-2.414-.97-5.226-2.922-4.59-5.445.428-1.704 2.305-2.62 4.04-2.902 1.736-.281 3.565-.171 5.184-.86 1.947-.831 3.326-2.851 3.388-4.967.06-2.115-1.196-4.214-3.09-5.158-1.587-.79-3.435-.782-5.166-1.162-1.732-.38-3.571-1.406-3.902-3.148-.498-2.636 2.562-4.395 5.063-5.362 2.504-.968 5.487-3.002 4.68-5.561-1.05-3.327-7.248-2.727-7.891-6.155-.323-1.718 1.198-3.307 2.86-3.862 1.658-.557 3.458-.413 5.195-.622 1.737-.21 3.61-.933 4.337-2.524 1.139-2.512-1.381-5.321-4.05-6.034-2.665-.718-5.53-.227-8.22-.85-2.687-.626-5.37-3.191-4.488-5.807"/><path fill="#54826d" d="M345.065 243.037a79.893 79.893 0 0 0-23.08-3.175 142.857 142.857 0 0 0-8.616-18.218c-.366.117-.73.242-1.09.377a150.691 150.691 0 0 1 2.97 5.552c-5.168 2.773-9.47 5.78-13.15 9.185-4.247 3.932-7.532 8.314-9.762 13.018a.571.571 0 0 0 .272.755c.282.131.62.011.755-.272 2.165-4.573 5.365-8.834 9.506-12.67 3.6-3.334 7.82-6.28 12.89-9.006a141.67 141.67 0 0 1 7.802 19.065c-7.23 4.15-13.77 9.797-18.919 16.35a.567.567 0 0 0 .891.702 64.94 64.94 0 0 1 18.385-15.948 141.197 141.197 0 0 1 3.712 14.196 37.39 37.39 0 0 0-12.443 13.315.568.568 0 0 0 .994.547 36.254 36.254 0 0 1 11.69-12.664 140.273 140.273 0 0 1 1.46 8.884c.37 2.844.66 5.725.902 8.597l-4.675 4.421c-2.259 2.132-5.07 4.79-6.1 8.241a.567.567 0 0 0 1.086.325c.943-3.16 3.52-5.596 5.791-7.743l4.017-3.796c.178 2.2.334 4.392.487 6.555.354 4.942.717 10.048 1.317 15.055a36.118 36.118 0 0 0-5.738 7.163.568.568 0 0 0 .187.78.568.568 0 0 0 .78-.19 35.12 35.12 0 0 1 4.951-6.337c.851 6.54 2.075 12.244 3.735 17.305a14.528 14.528 0 0 0-2.234 9.27.566.566 0 0 0 1.127-.112c-.262-2.64.313-5.409 1.587-7.75 1.35 3.836 2.96 7.304 4.868 10.484.161.267.51.355.778.194a.569.569 0 0 0 .194-.777c-3.379-5.633-5.82-12.187-7.495-20.186l8.555 4.702a.568.568 0 0 0 .548-.994l-9.156-5.029a.543.543 0 0 0-.23-.067 119.903 119.903 0 0 1-1.32-8.493c-.44-3.639-.75-7.336-1.025-10.986a61.777 61.777 0 0 1 12.948 5.347.568.568 0 0 0 .551-.992 63.247 63.247 0 0 0-13.589-5.564c-.068-.97-.14-1.94-.207-2.903-.334-4.698-.68-9.536-1.23-14.313a43.675 43.675 0 0 1 13.127 4.304c.276.142.62.035.761-.244a.564.564 0 0 0-.244-.762 44.725 44.725 0 0 0-13.785-4.469c-.047-.392-.096-.787-.146-1.182a141.181 141.181 0 0 0-2.754-14.81 66.095 66.095 0 0 1 19.507 5.502.566.566 0 1 0 .473-1.03 67.298 67.298 0 0 0-20.272-5.652 142.813 142.813 0 0 0-4.995-15.9 78.653 78.653 0 0 1 22.336 3.133.57.57 0 0 0 .702-.387.57.57 0 0 0-.387-.703"/><path fill="#ff6c61" d="M403.281 264.602c-6.344-26.49-27.663-24.731-27.663-24.731s-.283.009-.793.072c-.272.03-.606.076-.996.139-5.204.885-20.152 5.35-22.757 27.619-.71 6.087.542 14.812 2.914 24.682l16.003 2.775-13.86 5.414c9.242 32.956 27.45 73.387 27.45 73.387s4.636-14.748 9.518-33.79l-6.572-3.154 8.025-2.602c6.214-25.162 12.136-55.6 8.731-69.811"/><path fill="#ff9e9c" d="M400.371 276.084c-5.817-5.913-13.506-9.97-21.668-11.45-.61-8.224-1.772-16.549-3.878-24.692-.27.03-.606.076-.996.14a119.541 119.541 0 0 1 1.974 9.08c-7.273 2.923-13.219 8.696-16.348 15.888a.499.499 0 0 0 .914.397c2.994-6.887 8.667-12.427 15.606-15.28 1.531 9.024 2.123 18.132 2.292 26.952-7.834.708-15.387 4.376-20.773 10.112a.499.499 0 1 0 .728.683c5.2-5.541 12.494-9.092 20.061-9.795.07 4.596.04 9.113-.033 13.492-.046 2.914-.11 5.883-.173 8.756-.142 6.524-.28 13.116-.238 19.724-3.894 3.481-6.45 8.436-7.026 13.626a.502.502 0 0 0 .44.552.506.506 0 0 0 .552-.442c.511-4.656 2.701-9.11 6.046-12.385.14 13.095 1.066 26.223 4.243 38.912a.5.5 0 0 0 .603.361.496.496 0 0 0 .362-.606c-1.593-6.368-2.615-12.858-3.256-19.4a21.324 21.324 0 0 1 7.267 7.584.498.498 0 1 0 .867-.489 22.327 22.327 0 0 0-8.089-8.238.526.526 0 0 0-.16-.056c-1.007-11.144-.946-22.438-.73-33.573 6.674 2.216 12.597 6.552 16.714 12.256.16.223.472.275.695.115a.495.495 0 0 0 .111-.695c-4.298-5.958-10.509-10.47-17.499-12.722.032-1.505.061-3.006.094-4.5.063-2.877.128-5.846.173-8.763.135-8.286.142-17.059-.472-25.965 7.87 1.48 15.273 5.412 20.89 11.12.191.197.507.2.702.005a.497.497 0 0 0 .005-.705"/><path fill="#ff955f" d="M364.485 270.743c-4.958-26.784 15.24-33.833 15.24-33.833s.262-.106.753-.256c.26-.082.585-.176.967-.276 5.116-1.304 20.588-3.292 32.011 16.001 3.12 5.274 5.517 13.756 7.357 23.738l-13.498 9.034 14.865-.679c4.934 33.87 4.708 78.21 4.708 78.21s-10.223-11.595-22.417-27.015l4.725-5.55-8.39.88c-15.894-20.472-33.663-45.884-36.32-60.254"/><path fill="#ffb899" d="M371.806 280.055c2.917-7.765 8.296-14.593 15.154-19.26-2.78-7.764-5.1-15.843-6.481-24.14.26-.082.585-.176.967-.277a118.655 118.655 0 0 0 1.883 9.1c7.833-.281 15.61 2.58 21.39 7.883a.497.497 0 0 1 .027.703.495.495 0 0 1-.701.03c-5.532-5.078-12.966-7.838-20.466-7.628 2.265 8.869 5.423 17.433 8.848 25.562 7.447-2.535 15.839-2.25 23.09.807a.499.499 0 0 1-.388.919c-7.003-2.953-15.11-3.237-22.311-.807a418.49 418.49 0 0 0 5.509 12.317c1.224 2.645 2.489 5.333 3.712 7.933 2.779 5.903 5.582 11.872 8.226 17.928 4.972 1.6 9.32 5.09 11.953 9.6a.502.502 0 0 1-.178.683.503.503 0 0 1-.683-.181c-2.36-4.046-6.168-7.228-10.555-8.862 5.19 12.023 9.673 24.397 11.92 37.282a.497.497 0 1 1-.981.169c-1.128-6.467-2.831-12.812-4.9-19.053a21.308 21.308 0 0 0-3.561 9.883.502.502 0 0 1-.545.45.502.502 0 0 1-.448-.545 22.344 22.344 0 0 1 4.049-10.812.505.505 0 0 1 .123-.117c-3.603-10.594-8.245-20.89-12.962-30.978-5.201 4.735-8.852 11.102-10.3 17.987a.496.496 0 1 1-.973-.203 34.927 34.927 0 0 1 10.827-18.731c-.64-1.363-1.275-2.722-1.912-4.075-1.226-2.603-2.49-5.29-3.716-7.938-3.487-7.518-7.055-15.532-10.11-23.92-6.591 4.547-11.761 11.146-14.576 18.643a.493.493 0 0 1-.64.29.496.496 0 0 1-.291-.642"/><path fill="#ff6c61" d="M106.32 153.988c10.514-25.129-7.734-36.292-7.734-36.292s-.235-.159-.683-.409a20.811 20.811 0 0 0-.886-.476c-4.724-2.357-19.426-7.574-34.672 8.865-4.166 4.494-8.304 12.276-12.215 21.643l11.281 11.686-14.385-3.81c-11.99 32.06-21.153 75.443-21.153 75.443S38.32 221.47 53.5 208.98l-3.443-6.426 8.013 2.636c19.867-16.643 42.612-37.72 48.251-51.2"/><path fill="#ff9e9c" d="M97.195 161.54c-1.207-8.207-5.02-16.02-10.735-22.032 4.36-6.999 8.337-14.404 11.443-22.22a19.65 19.65 0 0 0-.886-.477 119.192 119.192 0 0 1-3.767 8.496c-7.596-1.933-15.803-.783-22.573 3.177a.499.499 0 0 0 .503.861c6.482-3.793 14.33-4.917 21.617-3.125-4.091 8.188-8.99 15.89-14.058 23.11-6.742-4.053-15.003-5.55-22.737-4.098a.498.498 0 0 0 .185.98c7.469-1.403 15.452.035 21.976 3.933a418.837 418.837 0 0 1-7.991 10.873c-1.756 2.326-3.561 4.684-5.307 6.966-3.964 5.183-7.968 10.423-11.833 15.783-5.198.511-10.188 3.001-13.714 6.852a.503.503 0 0 0 .029.705.505.505 0 0 0 .707-.03c3.16-3.457 7.557-5.76 12.19-6.43-7.615 10.654-14.617 21.797-19.541 33.915a.498.498 0 1 0 .924.372c2.472-6.08 5.478-11.922 8.822-17.583a21.316 21.316 0 0 1 1.389 10.413.499.499 0 1 0 .99.117 22.345 22.345 0 0 0-1.67-11.424.477.477 0 0 0-.095-.14c5.764-9.592 12.48-18.672 19.225-27.533 4.08 5.727 6.302 12.724 6.26 19.76a.497.497 0 0 0 .993.008 34.921 34.921 0 0 0-6.617-20.599c.913-1.197 1.823-2.392 2.73-3.578 1.75-2.285 3.555-4.644 5.313-6.972 4.999-6.61 10.182-13.687 14.943-21.239 5.48 5.84 9.136 13.383 10.302 21.305a.491.491 0 0 0 .563.42.497.497 0 0 0 .42-.567"/><path fill="#ff955f" d="M71.377 136.048c11.806-24.547 32.271-18.316 32.271-18.316s.275.069.759.238c.259.087.577.203.944.347 4.9 1.966 18.563 9.494 16.397 31.809-.594 6.1-3.665 14.36-8.071 23.506l-16.228-.675 12.4 8.226c-16.007 30.254-42.36 65.915-42.36 65.915s-1.409-15.395-2.152-35.04l7.091-1.692-7.292-4.241c-.748-25.906-.094-56.907 6.241-70.077"/><path fill="#ffb899" d="M71.791 147.886c6.937-4.547 15.31-6.885 23.601-6.604 2.337-7.91 5.233-15.798 9.015-23.312.259.087.577.203.944.347a119.619 119.619 0 0 0-3.85 8.458c6.489 4.395 11.079 11.296 12.614 18.987a.497.497 0 0 1-.392.584.495.495 0 0 1-.585-.39c-1.469-7.364-5.841-13.98-12.018-18.236-3.407 8.496-5.912 17.272-7.944 25.856 7.507 2.35 14.113 7.534 18.162 14.28a.498.498 0 0 1-.855.512c-3.911-6.516-10.287-11.53-17.535-13.82a423.235 423.235 0 0 0-2.823 13.196c-.572 2.858-1.137 5.774-1.684 8.594-1.242 6.405-2.502 12.879-3.942 19.327 3.069 4.227 4.521 9.612 3.983 14.805a.501.501 0 0 1-.545.446.503.503 0 0 1-.446-.55c.485-4.657-.713-9.474-3.289-13.382-2.908 12.768-6.591 25.403-12.382 37.13a.499.499 0 0 1-.892-.443c2.905-5.885 5.277-12.012 7.289-18.271a21.321 21.321 0 0 0-8.708 5.876.5.5 0 0 1-.705.043.501.501 0 0 1-.039-.705 22.335 22.335 0 0 1 9.65-6.34.482.482 0 0 1 .168-.02c3.343-10.68 5.673-21.73 7.819-32.658-6.992.753-13.698 3.737-18.93 8.44a.496.496 0 1 1-.665-.738 34.92 34.92 0 0 1 19.794-8.73c.289-1.476.577-2.95.861-4.417.548-2.825 1.113-5.741 1.686-8.602 1.622-8.126 3.472-16.702 5.956-25.276-8.004-.22-16.072 2.056-22.77 6.446a.492.492 0 0 1-.687-.143.496.496 0 0 1 .144-.69"/><path fill="#f4f4f4" d="M459.416 158.787c0-6.52-29.512-11.805-65.917-11.805-36.404 0-65.917 5.285-65.917 11.805s29.513 11.805 65.917 11.805c36.405 0 65.917-5.285 65.917-11.805"/><path fill="#8c99ce" d="M370.471 159.266h-26.558V271.6h26.558z"/><path fill="#0f6fa3" d="M401.327 159.266h-30.856v90.622h30.856z"/><path fill="#71cfeb" d="M420.748 159.266h-19.421v131.167h19.421z"/><path fill="#118acb" d="M451.998 159.266h-31.25v103.551h31.25z"/><path fill="#7787bc" d="M366.086 249.887h-17.788v7.041h17.788zM366.086 174.785h-17.788v7.041h17.788z"/><path fill="#075172" d="M401.327 237.292h-30.856v3.146h30.856zM401.327 230.211h-30.856v3.146h30.856zM401.327 173.212h-30.856v3.147h30.856zM401.327 166.933h-30.856v3.147h30.856z"/><path fill="#4ab9d3" d="M417.691 271.6h-13.309v9.61h13.309zM417.691 262.816h-13.309v3.721h13.309zM417.691 177.373h-13.309v9.61h13.309zM417.691 168.59h-13.309v3.721h13.309z"/><path fill="#0e79a8" d="M451.998 252.815h-31.25v4.418h31.25zM451.998 244.309h-31.25v4.419h31.25zM451.998 178.402h-31.25v4.419h31.25zM451.998 169.896h-31.25v4.419h31.25z"/><path fill="#0f6fa3" d="M160.6 311.55h129.063v11.646H160.6z"/><path fill="#71cfeb" d="M155.834 323.196h122.689v18.167H155.834z"/><path fill="#118acb" d="M170.131 341.362h96.857v19.871h-96.857z"/><path fill="#075172" d="M271.725 311.55h4.481v11.646h-4.481zM261.64 311.55h4.482v11.646h-4.482zM180.462 311.55h4.482v11.646h-4.482zM171.52 311.55h4.482v11.646h-4.482z"/><path fill="#4ab9d3" d="M260.907 326.055h8.989v12.448h-8.989zM252.692 326.055h3.48v12.448h-3.48zM172.772 326.055h8.989v12.448h-8.989zM164.556 326.055h3.481v12.448h-3.481z"/><path fill="#0e79a8" d="M257.633 341.362h4.134v19.871h-4.134zM249.677 341.362h4.133v19.871h-4.133zM188.031 341.362h4.133v19.871h-4.133zM180.075 341.362h4.133v19.871h-4.133z"/><path fill="#3fa04f" d="M294.567 179.356c-12.72-24.087 4.455-36.84 4.455-36.84s.22-.18.643-.468c.223-.156.506-.342.84-.552 4.494-2.771 18.67-9.284 35.326 5.724 4.551 4.103 9.37 11.484 14.104 20.463l-10.189 12.649 13.985-5.082c14.813 30.856 27.823 73.246 27.823 73.246s-13.216-8.019-29.455-19.1l2.855-6.707-7.745 3.343c-21.278-14.8-45.818-33.754-52.642-46.677"/><path fill="#51af61" d="M304.333 186.06c.467-8.282 3.565-16.404 8.72-22.904-4.971-6.581-9.593-13.6-13.388-21.108.224-.156.506-.342.841-.552a119.357 119.357 0 0 0 4.512 8.124c7.392-2.606 15.669-2.195 22.767 1.143a.497.497 0 0 1 .236.663.495.495 0 0 1-.661.238c-6.795-3.197-14.713-3.613-21.808-1.176 4.806 7.79 10.375 15.02 16.069 21.759 6.353-4.641 14.447-6.872 22.279-6.118a.502.502 0 0 1 .449.542.505.505 0 0 1-.545.452c-7.565-.73-15.387 1.417-21.536 5.884 2.982 3.5 5.987 6.873 8.932 10.114 1.958 2.159 3.967 4.346 5.91 6.463 4.412 4.807 8.869 9.667 13.199 14.66 5.222.045 10.415 2.077 14.272 5.597a.502.502 0 0 1 .034.704.505.505 0 0 1-.707.033c-3.457-3.16-8.042-5.061-12.717-5.312 8.539 9.929 16.51 20.4 22.499 32.029a.498.498 0 0 1-.886.454c-3.007-5.835-6.524-11.384-10.361-16.723a21.341 21.341 0 0 0-.452 10.496.5.5 0 0 1-.385.592.5.5 0 0 1-.589-.388 22.327 22.327 0 0 1 .639-11.527.474.474 0 0 1 .082-.148c-6.599-9.037-14.1-17.48-21.612-25.702-3.551 6.07-5.138 13.237-4.466 20.24a.495.495 0 1 1-.988.097 34.917 34.917 0 0 1 4.746-21.107 2159.14 2159.14 0 0 0-3.041-3.32c-1.945-2.12-3.954-4.306-5.914-6.468-5.57-6.135-11.367-12.72-16.785-19.815-4.935 6.306-7.901 14.147-8.353 22.142a.49.49 0 0 1-.522.467.495.495 0 0 1-.47-.525"/><path fill="#6ac17b" d="M327.765 158.358c-13.956-23.392-33.781-15.354-33.781-15.354s-.268.093-.736.305c-.25.111-.555.254-.908.431-4.704 2.397-17.638 11.117-13.483 33.15 1.137 6.021 4.935 13.975 10.143 22.688l16.103-2.124-11.614 9.302c18.65 28.7 48.09 61.858 48.09 61.858s.026-15.459-.994-35.09l-7.214-1.052 6.884-4.877c-1.574-25.87-5.001-56.687-12.49-69.237"/><path fill="#51af61" d="M328.412 170.185c-7.316-3.908-15.865-5.485-24.098-4.464-3.036-7.668-6.627-15.266-11.066-22.412-.249.11-.556.254-.908.431a119.597 119.597 0 0 1 4.592 8.08c-6.07 4.959-10.024 12.242-10.864 20.04a.497.497 0 0 0 .444.546.494.494 0 0 0 .546-.44c.803-7.468 4.566-14.447 10.337-19.24 4.154 8.157 7.435 16.674 10.228 25.042-7.267 3.012-13.382 8.766-16.812 15.848a.499.499 0 0 0 .9.433c3.31-6.84 9.212-12.404 16.225-15.333a421.058 421.058 0 0 1 3.993 12.89c.827 2.795 1.65 5.648 2.448 8.409 1.81 6.269 3.643 12.603 5.655 18.897-2.678 4.483-3.64 9.975-2.64 15.1a.503.503 0 0 0 .582.397.507.507 0 0 0 .396-.587c-.9-4.597-.14-9.502 2.077-13.625 4.04 12.457 8.84 24.712 15.655 35.875a.498.498 0 1 0 .85-.522c-3.42-5.603-6.33-11.492-8.895-17.547a21.331 21.331 0 0 1 9.2 5.075.5.5 0 0 0 .705-.023.5.5 0 0 0-.025-.705 22.317 22.317 0 0 0-10.178-5.448.482.482 0 0 0-.169-.006c-4.286-10.337-7.596-21.135-10.712-31.827 7.032.124 13.977 2.496 19.61 6.713a.497.497 0 1 0 .597-.795 34.917 34.917 0 0 0-20.497-6.924c-.42-1.445-.839-2.888-1.254-4.324-.798-2.764-1.62-5.617-2.448-8.415-2.344-7.95-4.954-16.325-8.197-24.643 7.953-.934 16.193.61 23.257 4.383a.492.492 0 0 0 .671-.204.497.497 0 0 0-.205-.675"/><path fill="#3fa04f" d="M149.663 294.628c8.997-25.71-9.884-35.766-9.884-35.766s-.243-.146-.705-.368a20.484 20.484 0 0 0-.914-.422c-4.855-2.071-19.842-6.403-34.081 10.915-3.891 4.734-7.558 12.75-10.904 22.333l11.957 10.993-14.586-2.946c-10.058 32.716-16.62 76.57-16.62 76.57s11.878-9.895 26.287-23.267l-3.821-6.21 8.157 2.154c18.84-17.798 40.288-40.192 45.114-53.986"/><path fill="#51af61" d="M141.003 302.71c-1.694-8.12-5.965-15.691-12.03-21.352 3.937-7.248 7.465-14.876 10.1-22.864a19.873 19.873 0 0 0-.913-.422c-.97 2.951-2.062 5.85-3.254 8.705-7.697-1.477-15.821.161-22.343 4.516a.498.498 0 0 0 .553.83c6.244-4.173 14.012-5.763 21.392-4.408-3.596 8.418-8.026 16.397-12.655 23.907-6.972-3.644-15.308-4.646-22.941-2.736a.5.5 0 0 0-.363.603c.068.267.34.429.605.365 7.372-1.847 15.427-.887 22.172 2.617a420.565 420.565 0 0 1-7.33 11.329c-1.613 2.426-3.274 4.888-4.881 7.27-3.65 5.41-7.333 10.879-10.872 16.459-5.158.821-9.99 3.604-13.281 7.659a.502.502 0 0 0 .07.701c.215.169.53.141.704-.074 2.95-3.637 7.2-6.199 11.787-7.143-6.968 11.088-13.293 22.63-17.486 35.019a.498.498 0 1 0 .945.317c2.104-6.217 4.757-12.228 7.757-18.078a21.317 21.317 0 0 1 2.008 10.312.5.5 0 1 0 .995.057 22.344 22.344 0 0 0-2.347-11.304.473.473 0 0 0-.104-.134c5.182-9.918 11.345-19.382 17.55-28.63 4.414 5.475 7.049 12.326 7.426 19.351a.496.496 0 1 0 .992-.052 34.926 34.926 0 0 0-7.833-20.167c.84-1.249 1.678-2.495 2.514-3.734 1.609-2.385 3.27-4.847 4.886-7.276 4.596-6.896 9.349-14.269 13.652-22.092 5.817 5.502 9.916 12.815 11.552 20.655a.491.491 0 0 0 .587.383.495.495 0 0 0 .386-.589"/><path fill="#6ac17b" d="M113.712 278.802c10.322-25.207 31.122-20.208 31.122-20.208s.278.053.772.193c.264.072.588.17.963.291 5.008 1.671 19.096 8.37 18.263 30.775-.23 6.124-2.802 14.555-6.656 23.946l-16.24.293 12.869 7.472c-14.176 31.154-38.356 68.322-38.356 68.322s-2.324-15.283-4.236-34.849l6.978-2.11-7.533-3.8c-2.29-25.817-3.485-56.802 2.054-70.325"/><path fill="#51af61" d="M114.83 290.594c6.655-4.953 14.874-7.784 23.167-7.998 1.862-8.034 4.282-16.083 7.609-23.809.264.072.588.17.964.291a119.024 119.024 0 0 0-3.34 8.672c6.74 4.001 11.732 10.616 13.724 18.202a.497.497 0 0 1-.358.606.496.496 0 0 1-.607-.354c-1.904-7.264-6.663-13.607-13.083-17.487-2.894 8.683-4.872 17.593-6.39 26.283 7.635 1.9 14.538 6.678 18.982 13.172a.499.499 0 0 1-.823.563c-4.292-6.272-10.956-10.897-18.327-12.75a422.016 422.016 0 0 0-2.032 13.34c-.401 2.886-.791 5.83-1.17 8.68-.857 6.467-1.73 13.004-2.782 19.527 3.315 4.036 5.086 9.324 4.858 14.541a.502.502 0 0 1-.518.478.506.506 0 0 1-.478-.522c.207-4.679-1.275-9.416-4.081-13.164-2.141 12.92-5.064 25.751-10.146 37.804a.497.497 0 1 1-.917-.389c2.55-6.049 4.552-12.307 6.187-18.675a21.32 21.32 0 0 0-8.342 6.385.5.5 0 1 1-.783-.617 22.34 22.34 0 0 1 9.255-6.903.487.487 0 0 1 .167-.03c2.7-10.86 4.368-22.03 5.859-33.066-6.935 1.168-13.451 4.547-18.393 9.554a.496.496 0 1 1-.708-.697c5.159-5.23 11.988-8.739 19.239-9.895.2-1.492.4-2.98.596-4.462.378-2.852.768-5.796 1.17-8.686 1.135-8.209 2.47-16.879 4.439-25.587-8.002.258-15.92 3.012-22.345 7.792a.492.492 0 0 1-.694-.102.496.496 0 0 1 .102-.697"/><path fill="#f4f4f4" d="M262.27 98.99c0-4.606-31.532-8.34-63.843-8.34-35.26 0-63.844 3.734-63.844 8.34 0 4.604 28.584 8.338 63.843 8.338 35.26 0 63.843-3.734 63.843-8.339"/><path fill="#ebebec" d="M300.175 141.218H99.242c-7.997 0-14.48 6.482-14.48 14.479V297.07c0 7.996 6.483 14.479 14.48 14.479h200.933c7.997 0 14.479-6.483 14.479-14.48V155.698c0-7.997-6.482-14.48-14.48-14.48"/><path fill="#d1d3d4" d="M226.71 141.218h-54.004l-4.766-35.295h63.537z"/><path fill="#636260" d="M314.654 171.945H84.762V297.07c0 7.997 6.483 14.48 14.48 14.48h200.933c7.997 0 14.48-6.483 14.48-14.48z"/><path fill="#e6f1ed" d="M294.943 180.332H104.474c-5.739 0-10.39 4.652-10.39 10.391v102.049c0 5.74 4.651 10.392 10.39 10.392h190.47c5.737 0 10.39-4.652 10.39-10.392V190.723c0-5.739-4.653-10.391-10.39-10.391"/><path fill="#ebebec" d="M246.328 99.655H153.09v6.268h93.238z"/><path fill="#d1d3d4" d="M207.563 158.025a7.854 7.854 0 1 0-15.71 0 7.854 7.854 0 0 0 15.71 0"/><path fill="#fff" d="M203.525 195.71h-92.328V291h92.328z"/><path fill="#f69b92" d="M119.285 285.538a1.992 1.992 0 1 0-3.985 0 1.992 1.992 0 0 0 3.985 0"/><path fill="#fec368" d="M124.945 285.538a1.992 1.992 0 1 0-3.985 0 1.992 1.992 0 0 0 3.985 0"/><path fill="#7cc578" d="M130.605 285.538a1.992 1.992 0 1 0-3.984 0 1.992 1.992 0 0 0 3.984 0"/><path fill="#fff" d="M290.059 203.609h-71.414v73.705h71.414z"/><path fill="#f69b92" d="M226.732 271.852a1.992 1.992 0 1 0-3.984 0 1.992 1.992 0 0 0 3.984 0"/><path fill="#fec368" d="M232.393 271.852a1.992 1.992 0 1 0-3.985 0 1.992 1.992 0 0 0 3.985 0"/><path fill="#7cc578" d="M238.053 271.852a1.992 1.992 0 1 0-3.985 0 1.992 1.992 0 0 0 3.985 0"/><path fill="#dadbdc" d="M126.998 272.354c0 .754-.28 1.143-.92 1.143h-.52v-2.286h.52c.64 0 .92.39.92 1.143m1.006 0c0-1.206-.646-1.886-1.83-1.886h-1.6v3.772h1.6c1.184 0 1.83-.68 1.83-1.886M131.463 272.372v-1.903h-.97v1.634c0 .406-.167.538-.407.538-.28 0-.515-.19-.515-.663v-1.51h-.97v2.859h.867l.03-.55c.182.407.53.607.976.607.59 0 .99-.35.99-1.012M133.975 274.229c-.646-.583-.92-1.2-.92-2.2 0-1.012.274-1.623.92-2.207l-.458-.445c-.874.583-1.336 1.463-1.336 2.652 0 1.177.462 2.063 1.336 2.646zM136.216 270.468l-.56.995-.572-.995h-1.074l1.028 1.446-.988 1.412h1.103l.525-.955.538.955h1.075l-.995-1.418 1.017-1.44zM139.15 272.029c0-1.19-.47-2.07-1.337-2.652l-.457.445c.645.584.914 1.195.914 2.207 0 1-.27 1.618-.914 2.2l.457.446c.868-.583 1.337-1.47 1.337-2.646M144.25 271.326h-2.709v.669h2.709zm0 1.234h-2.709v.669h2.709zM149.1 272.354c0 .754-.28 1.143-.92 1.143h-.52v-2.286h.52c.64 0 .92.39.92 1.143m1.006 0c0-1.206-.646-1.886-1.829-1.886h-1.6v3.772h1.6c1.183 0 1.83-.68 1.83-1.886M151.674 270.468h-.972v2.858h.972zm-1.052 3.653c0 .325.172.468.566.468.395 0 .566-.143.566-.468 0-.321-.171-.463-.566-.463-.394 0-.566.142-.566.463M154.44 273.32l-.102-.823a.735.735 0 0 1-.36.086c-.343 0-.64-.223-.64-.675v-1.44h-.972v2.858h.858l.04-.617c.137.423.423.674.868.674a.66.66 0 0 0 .309-.063M155.797 270.468h-.972v2.858h.972zm-1.051 3.653c0 .325.171.468.566.468.394 0 .565-.143.565-.468 0-.321-.171-.463-.565-.463-.395 0-.566.142-.566.463M159.233 272.498l-.903-.297c-.04.33-.183.49-.44.49-.366 0-.566-.245-.566-.805 0-.565.223-.783.566-.783.274 0 .428.166.474.463l.875-.28c-.08-.497-.544-.874-1.343-.874-1.001 0-1.544.548-1.544 1.486 0 .937.555 1.486 1.504 1.486.925 0 1.285-.423 1.377-.886M162.618 272.372v-1.903h-.972v1.634c0 .406-.165.543-.405.543-.28 0-.515-.194-.515-.674v-1.503h-.97v4.07h.97v-1.732c.172.382.492.577.903.577.59 0 .99-.35.99-1.012M164.26 271.457c0-.251.063-.354.263-.354.114 0 .19.017.292.051l-.063-.6c-.138-.086-.383-.143-.595-.143-.61 0-.869.269-.869.903v3.224h.972zM165.97 272.143h1.075c-.046.366-.223.56-.526.56-.309 0-.49-.177-.549-.56m1.955-.526h-1.949c.063-.37.274-.52.6-.52.286 0 .463.114.526.315l.788-.252c-.165-.497-.65-.749-1.314-.749-1 0-1.543.543-1.543 1.486s.537 1.486 1.492 1.486c.931 0 1.428-.543 1.428-1.446 0-.097-.01-.246-.028-.32M170.54 270.628c-.19-.13-.51-.217-.807-.217-.646 0-1.046.251-1.052.914v1.31h-.492v.691h.492v.64l.972.268v-.908h.857v-.692h-.857v-1.149c0-.274.137-.383.377-.383.177 0 .298.046.412.126zM174.022 271.64l-.463-.514v-.658h-.972v4.07h.972v-2.412l1.091 1.2h1.075l-1.052-1.12 1.115-1.738h-1.075zM176.79 272.143h1.075c-.046.366-.223.56-.526.56-.31 0-.491-.177-.55-.56m1.956-.526h-1.95c.064-.37.275-.52.6-.52.287 0 .464.114.527.315l.788-.252c-.165-.497-.651-.749-1.314-.749-1 0-1.543.543-1.543 1.486s.537 1.486 1.492 1.486c.93 0 1.428-.543 1.428-1.446 0-.097-.011-.246-.028-.32M181.393 273.32l-.103-.823a.735.735 0 0 1-.36.086c-.343 0-.64-.223-.64-.675v-1.44h-.972v2.858h.858l.04-.617c.136.423.423.674.868.674a.663.663 0 0 0 .309-.063M184.64 272.372v-1.903h-.97v1.634c0 .406-.167.538-.407.538-.28 0-.515-.19-.515-.663v-1.51h-.97v2.859h.867l.03-.55c.182.407.53.607.976.607.59 0 .99-.35.99-1.012M186.123 272.143h1.075c-.046.366-.223.56-.526.56-.31 0-.492-.177-.55-.56m1.956-.526h-1.95c.063-.37.275-.52.6-.52.287 0 .464.114.526.315l.789-.252c-.166-.497-.651-.749-1.314-.749-1.001 0-1.543.543-1.543 1.486s.537 1.486 1.49 1.486c.933 0 1.43-.543 1.43-1.446 0-.097-.011-.246-.028-.32M189.61 271.457c0-.251.064-.354.264-.354.114 0 .188.017.29.051l-.062-.6c-.137-.086-.383-.143-.594-.143-.611 0-.87.269-.87.903v3.224h.973zM127.238 264.463h-2.709v.669h2.709zm0 1.235h-2.709v.668h2.709zM131.287 267.378v-3.772h-.949v2.806c-.257-.234-.566-.423-.89-.48l-.093.812c.39.045.961.354 1.15.634zM132.7 263.206h-.903l1.6 4.47h.903zM134.662 264.235c1.292.806 1.806 1.389 1.806 1.92 0 .292-.17.509-.509.509-.36 0-.566-.27-.577-.772l-.84.258c.017.834.634 1.286 1.48 1.286 1 0 1.423-.623 1.423-1.212 0-.738-.577-1.298-1.6-1.886v-.006c.19.01.52.023.76.023h.886v-.75h-2.829zM142.523 265.115h-1.046v-1.166h-.77v1.166h-1.053v.698h1.052v1.16h.771v-1.16h1.046zM147.544 265.635l-.903-.297c-.04.331-.183.491-.44.491-.366 0-.566-.245-.566-.805 0-.566.223-.784.566-.784.274 0 .428.166.474.463l.875-.28c-.08-.497-.543-.874-1.343-.874-1 0-1.543.548-1.543 1.486 0 .937.554 1.486 1.503 1.486.926 0 1.286-.423 1.377-.886M148.9 265.035c0-.56.178-.794.538-.794.36 0 .538.234.538.794s-.178.794-.538.794c-.36 0-.537-.234-.537-.794m2.046 0c0-.937-.554-1.486-1.51-1.486-.953 0-1.508.55-1.508 1.486 0 .937.555 1.486 1.509 1.486.955 0 1.509-.549 1.509-1.486M151.297 264.052l.503.549c.171-.286.48-.406.846-.406.27 0 .428.08.428.2 0 .109-.136.177-.52.258-.868.17-1.183.45-1.183.92 0 .468.446.948 1.378.948.686 0 1.063-.2 1.31-.537l-.527-.515c-.16.287-.412.406-.755.406-.285 0-.434-.102-.434-.217 0-.114.126-.19.526-.263.845-.148 1.183-.417 1.183-.908 0-.526-.44-.938-1.36-.938-.629 0-1.103.149-1.395.503M157.964 263.606l-.56.995-.57-.995h-1.076l1.03 1.446-.99 1.412h1.103l.526-.955.537.955h1.075l-.995-1.418 1.018-1.44zM163.78 265.115h-1.046v-1.166h-.772v1.166h-1.051v.698h1.05v1.16h.773v-1.16h1.046zM168.8 265.635l-.902-.297c-.04.331-.183.491-.44.491-.366 0-.566-.245-.566-.805 0-.566.222-.784.566-.784.274 0 .428.166.474.463l.874-.28c-.08-.497-.543-.874-1.342-.874-1.001 0-1.544.548-1.544 1.486 0 .937.554 1.486 1.504 1.486.925 0 1.285-.423 1.377-.886M170.157 265.035c0-.56.177-.794.538-.794.359 0 .537.234.537.794s-.178.794-.537.794c-.361 0-.538-.234-.538-.794m2.046 0c0-.937-.554-1.486-1.508-1.486-.955 0-1.51.55-1.51 1.486 0 .937.555 1.486 1.51 1.486.954 0 1.508-.549 1.508-1.486M172.554 264.052l.503.549c.17-.286.48-.406.846-.406.268 0 .428.08.428.2 0 .109-.137.177-.52.258-.868.17-1.183.45-1.183.92 0 .468.446.948 1.377.948.686 0 1.064-.2 1.309-.537l-.526-.515c-.16.287-.411.406-.754.406-.286 0-.435-.102-.435-.217 0-.114.126-.19.526-.263.846-.148 1.184-.417 1.184-.908 0-.526-.441-.938-1.36-.938-.63 0-1.104.149-1.395.503M177.443 264.235c1.292.806 1.806 1.389 1.806 1.92 0 .292-.171.509-.51.509-.36 0-.565-.27-.576-.772l-.84.258c.017.834.634 1.286 1.48 1.286 1 0 1.424-.623 1.424-1.212 0-.738-.578-1.298-1.601-1.886v-.006c.189.01.52.023.76.023h.886v-.75h-2.83zM182.743 263.606l-.56.995-.571-.995h-1.075l1.029 1.446-.99 1.412h1.104l.526-.955.537.955h1.075l-.995-1.418 1.018-1.44zM188.558 265.115h-1.046v-1.166h-.77v1.166h-1.053v.698h1.052v1.16h.771v-1.16h1.046zM125.558 257.207c0-.32-.218-.515-.572-.515s-.572.195-.572.515c0 .326.218.52.572.52s.572-.194.572-.52M127.216 257.207c0-.32-.217-.515-.571-.515-.355 0-.573.195-.573.515 0 .326.218.52.573.52.354 0 .57-.194.57-.52M132.27 258.253h-1.046v-1.166h-.771v1.166h-1.052v.697h1.052v1.16h.771v-1.16h1.046zM137.291 258.773l-.903-.297c-.04.33-.183.49-.44.49-.366 0-.566-.244-.566-.805 0-.565.223-.783.566-.783.274 0 .428.166.474.463l.875-.28c-.08-.497-.543-.874-1.343-.874-1 0-1.543.548-1.543 1.486 0 .937.554 1.486 1.503 1.486.925 0 1.286-.423 1.377-.886M138.648 258.173c0-.561.177-.794.537-.794.36 0 .537.233.537.794 0 .56-.177.794-.537.794-.36 0-.537-.234-.537-.794m2.046 0c0-.937-.554-1.486-1.51-1.486-.953 0-1.508.549-1.508 1.486 0 .937.555 1.486 1.509 1.486.955 0 1.509-.55 1.509-1.486M141.044 257.19l.503.548c.17-.285.48-.405.846-.405.269 0 .428.08.428.2 0 .108-.137.177-.52.257-.868.17-1.183.45-1.183.92 0 .469.446.949 1.378.949.686 0 1.063-.2 1.309-.537l-.526-.515c-.16.286-.412.406-.755.406-.286 0-.434-.103-.434-.217s.126-.19.526-.263c.845-.15 1.183-.417 1.183-.91 0-.525-.44-.936-1.36-.936-.63 0-1.103.149-1.395.503M148.802 258.647v-1.903h-.972v1.634c0 .406-.165.538-.405.538-.28 0-.515-.189-.515-.663v-1.509h-.97v2.858h.867l.03-.549c.182.406.53.606.976.606.59 0 .99-.349.99-1.012M151.302 256.744l-.56.994-.571-.994h-1.075l1.029 1.446-.99 1.411h1.104l.526-.954.537.954h1.075l-.995-1.417 1.018-1.44zM157.038 257.601h-2.709v.669h2.709zm0 1.235h-2.709v.668h2.709zM160.372 260.139v-3.675h.76v-.68h-1.6v5.035h1.6v-.68zM163.055 257.19l.503.548c.171-.285.48-.405.846-.405.268 0 .428.08.428.2 0 .108-.137.177-.52.257-.868.17-1.183.45-1.183.92 0 .469.446.949 1.378.949.686 0 1.063-.2 1.308-.537l-.526-.515c-.159.286-.41.406-.754.406-.286 0-.434-.103-.434-.217s.125-.19.526-.263c.845-.15 1.183-.417 1.183-.91 0-.525-.44-.936-1.36-.936-.629 0-1.103.149-1.395.503M167.286 256.744h-.972v2.857h.972zm-1.052 3.652c0 .326.172.469.566.469.395 0 .566-.143.566-.469 0-.32-.171-.463-.566-.463-.394 0-.566.143-.566.463M170.842 258.647v-1.903h-.972v1.634c0 .406-.165.538-.405.538-.28 0-.515-.189-.515-.663v-1.509h-.971v2.858h.868l.029-.549c.183.406.53.606.977.606.589 0 .989-.349.989-1.012M173.353 260.504c-.646-.583-.92-1.2-.92-2.2 0-1.012.274-1.623.92-2.207l-.458-.445c-.874.583-1.336 1.463-1.336 2.652 0 1.177.462 2.063 1.336 2.646zM176.543 258.647v-1.903h-.972v1.634c0 .406-.166.538-.405.538-.28 0-.515-.189-.515-.663v-1.509h-.972v2.858h.87l.028-.549c.183.406.531.606.977.606.59 0 .99-.349.99-1.012M181.673 258.253h-1.046v-1.166h-.771v1.166h-1.052v.697h1.052v1.16h.77v-1.16h1.047zM126.243 253.654v-3.772h-.949v2.806c-.257-.234-.566-.423-.89-.48l-.093.812c.39.045.96.354 1.15.634zM127.656 249.481h-.903l1.6 4.47h.904zM129.618 250.51c1.292.806 1.806 1.39 1.806 1.92 0 .292-.17.51-.509.51-.36 0-.566-.27-.577-.772l-.84.257c.017.834.634 1.286 1.48 1.286 1 0 1.423-.623 1.423-1.212 0-.737-.577-1.298-1.6-1.886v-.006c.19.012.52.023.76.023h.886v-.748h-2.829zM134.501 251.442c0-1.188-.469-2.07-1.337-2.652l-.458.446c.646.583.915 1.194.915 2.206 0 1-.269 1.618-.915 2.2l.458.446c.868-.583 1.337-1.47 1.337-2.646M137.12 249.882l-.56.994-.571-.994h-1.075l1.029 1.446-.99 1.41h1.104l.526-.953.537.954h1.075l-.995-1.417 1.018-1.44zM141.523 248.922h-1.6v.68h.76v3.674h-.76v.68h1.6zM144.635 249.481h-.903l1.6 4.47h.904zM149.284 253.276v-3.675h.76v-.679h-1.6v5.034h1.6v-.68zM152.172 250.51c1.292.806 1.806 1.39 1.806 1.92 0 .292-.17.51-.509.51-.36 0-.566-.27-.577-.772l-.84.257c.017.834.634 1.286 1.48 1.286 1 0 1.423-.623 1.423-1.212 0-.737-.577-1.298-1.6-1.886v-.006c.19.012.52.023.76.023h.886v-.748h-2.829zM155.375 250.328l.503.548c.172-.285.48-.405.846-.405.269 0 .428.08.428.2 0 .108-.136.177-.52.257-.869.17-1.183.45-1.183.92 0 .469.446.949 1.377.949.687 0 1.064-.2 1.31-.537l-.526-.515c-.16.286-.413.406-.756.406-.285 0-.434-.103-.434-.217s.127-.19.527-.263c.845-.15 1.183-.417 1.183-.91 0-.525-.44-.936-1.36-.936-.63 0-1.104.149-1.396.503M159.606 249.882h-.972v2.857h.972zm-1.052 3.652c0 .326.172.468.566.468.394 0 .566-.142.566-.468 0-.32-.172-.463-.566-.463-.394 0-.566.143-.566.463M163.162 251.785v-1.903h-.972v1.634c0 .406-.166.538-.405.538-.281 0-.515-.19-.515-.663v-1.51h-.972v2.859h.869l.029-.55c.183.407.53.607.977.607.589 0 .989-.35.989-1.012M165.672 253.642c-.646-.583-.92-1.2-.92-2.2 0-1.012.274-1.623.92-2.206l-.457-.446c-.875.583-1.337 1.463-1.337 2.652 0 1.177.462 2.063 1.337 2.646zM167.914 249.882l-.56.994-.57-.994h-1.076l1.03 1.446-.99 1.41h1.103l.526-.953.537.954h1.075l-.995-1.417 1.018-1.44zM170.037 249.481h-.903l1.6 4.47h.903zM171.998 250.51c1.292.806 1.806 1.39 1.806 1.92 0 .292-.171.51-.509.51-.36 0-.565-.27-.577-.772l-.84.257c.017.834.634 1.286 1.48 1.286 1 0 1.424-.623 1.424-1.212 0-.737-.578-1.298-1.601-1.886v-.006c.189.012.52.023.76.023h.886v-.748h-2.829zM176.88 251.442c0-1.188-.468-2.07-1.336-2.652l-.457.446c.646.583.914 1.194.914 2.206 0 1-.268 1.618-.914 2.2l.457.446c.868-.583 1.337-1.47 1.337-2.646M180.65 248.922h-1.6v.68h.76v3.674h-.76v.68h1.6zM127.272 237.448c0-.926-.663-1.349-1.469-1.349-.669 0-1.143.206-1.474.755l.862.491c.069-.314.212-.502.618-.502.349 0 .577.182.577.537-.006.337-.194.531-.577.531-.257 0-.469-.068-.6-.223l-.743.11.24 2.13h2.355v-.759h-1.641l-.085-.709a.963.963 0 0 0-.029-.137h.006c.154.171.439.27.777.27.743 0 1.183-.482 1.183-1.145M128.829 237.34c0-.31.206-.503.537-.503.343 0 .537.183.537.503s-.194.503-.537.503c-.331 0-.537-.194-.537-.503m1.92 1.812l-.806-.377c-.074.268-.257.434-.571.434-.418 0-.72-.417-.72-1.11v-.09h.01c.132.325.476.497.916.497.703 0 1.223-.457 1.223-1.172 0-.754-.532-1.234-1.452-1.234-1.006 0-1.572.675-1.572 1.943 0 1.337.715 1.943 1.657 1.943.606 0 1.104-.222 1.315-.834M134.129 237.448c0-.926-.663-1.349-1.47-1.349-.668 0-1.142.206-1.474.755l.863.491c.069-.314.212-.502.618-.502.348 0 .577.182.577.537-.006.337-.195.531-.577.531-.258 0-.47-.068-.6-.223l-.744.11.24 2.13h2.355v-.759h-1.64l-.086-.709a.879.879 0 0 0-.028-.137h.006c.154.171.439.27.776.27.744 0 1.184-.482 1.184-1.145M137.508 237.666h-1.046V236.5h-.77v1.166h-1.053v.697h1.052v1.16h.771v-1.16h1.046zM140.814 238.929c0-.635-.491-.87-.708-.87v-.016c.262 0 .783-.188.783-.857 0-.652-.613-1.086-1.465-1.086-.794 0-1.274.274-1.486.937l.893.383c.04-.406.246-.56.583-.56.332 0 .532.166.526.458-.006.29-.177.405-.56.405h-.212v.623h.166c.36 0 .526.143.526.435.006.29-.16.445-.446.445-.291 0-.492-.15-.526-.508l-.863.29c.132.704.714.979 1.446.979.858 0 1.343-.417 1.343-1.058M143.239 239.929v-3.771h-.95v2.805c-.256-.234-.565-.423-.89-.48l-.092.812c.389.045.96.355 1.149.634zM145 237.34c0-.31.206-.503.537-.503.343 0 .538.183.538.503s-.194.503-.537.503c-.332 0-.538-.194-.538-.503m1.92 1.812l-.805-.377c-.074.268-.258.434-.572.434-.417 0-.72-.417-.72-1.11v-.09h.011c.132.325.475.497.915.497.703 0 1.223-.457 1.223-1.172 0-.754-.532-1.234-1.45-1.234-1.008 0-1.573.675-1.573 1.943 0 1.337.714 1.943 1.657 1.943.606 0 1.103-.222 1.314-.834M151.902 237.014h-2.709v.669h2.709zm0 1.235h-2.709v.669h2.709zM156.032 236.157l-.56.994-.572-.994h-1.074l1.029 1.445-.99 1.412h1.104l.526-.955.537.955h1.074l-.994-1.417 1.017-1.44zM160.326 237.666h-1.046V236.5h-.771v1.166h-1.052v.697h1.052v1.16h.77v-1.16h1.047zM162.831 236.157c-.314-.909-.69-1.229-1.417-1.229-.332 0-.589.074-.778.211l.206.652c.126-.114.263-.149.491-.149.23 0 .361.057.446.275l.07.177-.332.777-.852 2.143h1.07l.44-1.628.136-.607.154.63.44 1.605h.972zM167.566 239.918c-.646-.583-.92-1.2-.92-2.201 0-1.012.274-1.623.92-2.206l-.457-.446c-.875.583-1.337 1.463-1.337 2.652 0 1.178.462 2.063 1.337 2.646zM169.665 239.929v-3.771h-.948v2.805c-.258-.234-.566-.423-.892-.48l-.092.812c.389.045.96.355 1.149.634zM170.432 236.785c1.292.807 1.806 1.39 1.806 1.921 0 .291-.17.51-.509.51-.36 0-.566-.27-.577-.773l-.84.257c.017.834.634 1.286 1.48 1.286 1 0 1.424-.623 1.424-1.212 0-.737-.578-1.297-1.6-1.885v-.006c.188.011.52.022.76.022h.885v-.748h-2.829zM176.55 238.929c0-.635-.492-.87-.709-.87v-.016c.262 0 .783-.188.783-.857 0-.652-.612-1.086-1.464-1.086-.794 0-1.274.274-1.486.937l.892.383c.04-.406.246-.56.583-.56.331 0 .531.166.525.458-.005.29-.176.405-.56.405h-.21v.623h.165c.36 0 .525.143.525.435.006.29-.159.445-.445.445-.29 0-.492-.15-.526-.508l-.863.29c.131.704.714.979 1.446.979.858 0 1.343-.417 1.343-1.058M179.123 236.157l-.56.994-.571-.994h-1.075l1.029 1.445-.989 1.412h1.103l.526-.955.537.955h1.075l-.995-1.417 1.018-1.44zM183.6 239.929v-.697c-.943-.914-1.234-1.914-1.234-3.074h-.972c0 1.136.377 2.108 1.246 3h-2.144v.77zM184.957 237.34c0-.31.206-.503.537-.503.343 0 .537.183.537.503s-.194.503-.537.503c-.331 0-.537-.194-.537-.503m1.92 1.812l-.806-.377c-.074.268-.257.434-.571.434-.418 0-.72-.417-.72-1.11v-.09h.011c.131.325.475.497.915.497.703 0 1.223-.457 1.223-1.172 0-.754-.532-1.234-1.452-1.234-1.006 0-1.572.675-1.572 1.943 0 1.337.715 1.943 1.657 1.943.606 0 1.104-.222 1.315-.834M188.936 237.717c0-1.188-.469-2.068-1.337-2.651l-.456.445c.646.583.914 1.194.914 2.206 0 1-.268 1.618-.914 2.2l.457.446c.868-.583 1.337-1.468 1.337-2.646M231.023 254.253v.246l-.463-.11c-.24-.056-.337-.136-.337-.296 0-.16.103-.246.28-.246.24 0 .52.143.52.406m1.343-.4l-.074-.543a.796.796 0 0 0-.39-.092c-.381 0-.65.132-.736.44-.16-.274-.491-.44-1.018-.44-.565 0-.885.252-.885.715 0 .474.303.777 1.114.937l.646.126v.103c0 .257-.148.423-.406.423-.274 0-.474-.11-.531-.44l-.79.228c.098.543.544.88 1.32.88.881 0 1.366-.36 1.366-1.097v-1.04c0-.15.07-.223.207-.223.069 0 .126.006.177.023M233.934 253.521c0-.486-.263-.92-.795-1.148l-.429.302c.35.132.612.338.71.612l-.024.017c-.045-.046-.09-.063-.177-.063-.222 0-.474.149-.474.48 0 .349.234.538.571.538.418 0 .618-.326.618-.738M236.547 254.705c0 .537-.206.77-.538.77-.337 0-.525-.267-.525-.742v-.057c0-.492.2-.743.525-.743.332 0 .538.234.538.772m.977-.012c0-.931-.435-1.474-1.177-1.474-.463 0-.8.268-.955.663l-.03-.606h-.85v4.07h.972v-1.692a.906.906 0 0 0 .863.537c.73 0 1.177-.55 1.177-1.498M239.092 253.521c0-.486-.263-.92-.794-1.148l-.43.302c.349.132.612.338.709.612l-.022.017c-.046-.046-.091-.063-.177-.063-.223 0-.474.149-.474.48 0 .349.233.538.57.538.418 0 .618-.326.618-.738M242.322 255.305l-.903-.297c-.04.33-.183.49-.44.49-.366 0-.566-.245-.566-.805 0-.566.223-.783.566-.783.274 0 .428.166.474.463l.875-.28c-.08-.497-.543-.874-1.343-.874-1 0-1.543.548-1.543 1.486 0 .937.554 1.486 1.503 1.486.926 0 1.286-.423 1.377-.886M247.211 254.133h-2.709v.668h2.709zm0 1.234h-2.709v.669h2.709zM229.216 246.86l.503.547c.172-.285.48-.405.846-.405.27 0 .43.08.43.2 0 .108-.138.177-.52.257-.87.171-1.184.451-1.184.921 0 .467.446.948 1.377.948.686 0 1.063-.2 1.31-.537l-.527-.515c-.16.286-.41.406-.755.406-.285 0-.434-.103-.434-.218 0-.114.126-.188.526-.262.846-.149 1.183-.417 1.183-.908 0-.527-.44-.938-1.36-.938-.629 0-1.103.15-1.395.503M234.385 247.814v.057c0 .491-.206.743-.525.743-.338 0-.538-.235-.538-.773 0-.537.2-.77.538-.77.33 0 .525.268.525.743m.972 1.458v-4.06h-.972v1.676a.92.92 0 0 0-.863-.531c-.737 0-1.177.548-1.177 1.497 0 .932.434 1.475 1.17 1.475.464 0 .802-.27.956-.658l.034.6zM238.13 249.265l-.103-.823a.735.735 0 0 1-.36.086c-.343 0-.64-.223-.64-.675v-1.44h-.972v2.858h.858l.04-.618c.137.424.423.675.868.675a.663.663 0 0 0 .31-.063M240.521 246.573c-.188-.132-.509-.217-.806-.217-.645 0-1.046.251-1.051.914v1.31h-.492v.691h.492v.64l.971.268v-.908h.858v-.692h-.858v-1.149c0-.274.137-.382.377-.382.177 0 .298.046.412.126zM241.911 249.808v-3.675h.76v-.68h-1.6v5.035h1.6v-.68zM242.827 246.86l.503.547c.171-.285.48-.405.846-.405.268 0 .428.08.428.2 0 .108-.137.177-.52.257-.868.171-1.183.451-1.183.921 0 .467.446.948 1.378.948.685 0 1.063-.2 1.308-.537l-.526-.515c-.159.286-.41.406-.754.406-.286 0-.435-.103-.435-.218 0-.114.126-.188.526-.262.846-.149 1.184-.417 1.184-.908 0-.527-.44-.938-1.36-.938-.629 0-1.104.15-1.395.503M247.916 250.174c-.646-.583-.92-1.2-.92-2.2 0-1.012.274-1.623.92-2.206l-.458-.447c-.874.583-1.337 1.464-1.337 2.653 0 1.177.463 2.063 1.337 2.646zM247.985 246.86l.503.547c.17-.285.48-.405.846-.405.269 0 .428.08.428.2 0 .108-.136.177-.52.257-.868.171-1.183.451-1.183.921 0 .467.447.948 1.378.948.686 0 1.063-.2 1.309-.537l-.526-.515c-.16.286-.412.406-.755.406-.285 0-.434-.103-.434-.218 0-.114.126-.188.526-.262.845-.149 1.183-.417 1.183-.908 0-.527-.44-.938-1.36-.938-.63 0-1.103.15-1.395.503M253.45 247.545h-2.091v.795h2.091zM255.698 247.39v.246l-.463-.108c-.24-.057-.337-.137-.337-.297 0-.16.103-.246.28-.246.24 0 .52.143.52.406m1.343-.4l-.074-.543a.798.798 0 0 0-.389-.091c-.383 0-.65.13-.737.439-.16-.274-.492-.44-1.017-.44-.566 0-.886.252-.886.715 0 .474.303.777 1.114.937l.646.126v.103c0 .258-.148.423-.405.423-.275 0-.475-.11-.532-.44l-.789.229c.097.543.543.879 1.321.879.88 0 1.365-.36 1.365-1.097v-1.04c0-.15.068-.223.206-.223.068 0 .126.006.177.023M258.866 247.974c0-1.188-.469-2.07-1.337-2.652l-.457.446c.646.583.914 1.194.914 2.206 0 1-.268 1.618-.914 2.2l.457.446c.868-.583 1.337-1.47 1.337-2.646M261.428 250.174c-.646-.583-.92-1.2-.92-2.2 0-1.012.274-1.623.92-2.206l-.457-.447c-.874.583-1.337 1.464-1.337 2.653 0 1.177.463 2.063 1.337 2.646zM261.498 246.86l.503.547c.172-.285.48-.405.846-.405.268 0 .428.08.428.2 0 .108-.136.177-.519.257-.869.171-1.184.451-1.184.921 0 .467.447.948 1.377.948.687 0 1.064-.2 1.31-.537l-.527-.515c-.159.286-.411.406-.754.406-.286 0-.434-.103-.434-.218 0-.114.126-.188.525-.262.847-.149 1.184-.417 1.184-.908 0-.527-.441-.938-1.36-.938-.629 0-1.104.15-1.395.503M266.964 247.545h-2.092v.795h2.092zM269.812 247.842c0 .538-.206.772-.537.772-.337 0-.526-.27-.526-.744v-.056c0-.492.2-.743.526-.743.33 0 .537.234.537.77m.978-.01c0-.931-.435-1.474-1.178-1.474-.463 0-.8.268-.954.663l-.03-.607h-.851v4.07h.972v-1.692a.905.905 0 0 0 .863.537c.73 0 1.178-.55 1.178-1.497M272.653 247.974c0-1.188-.468-2.07-1.337-2.652l-.457.446c.646.583.914 1.194.914 2.206 0 1-.268 1.618-.914 2.2l.457.446c.87-.583 1.337-1.47 1.337-2.646M275.216 250.174c-.646-.583-.921-1.2-.921-2.2 0-1.012.275-1.623.92-2.206l-.457-.447c-.874.583-1.337 1.464-1.337 2.653 0 1.177.463 2.063 1.337 2.646zM275.285 246.86l.503.547c.172-.285.48-.405.846-.405.27 0 .428.08.428.2 0 .108-.136.177-.519.257-.869.171-1.184.451-1.184.921 0 .467.447.948 1.378.948.686 0 1.063-.2 1.31-.537l-.528-.515c-.159.286-.41.406-.754.406-.286 0-.434-.103-.434-.218 0-.114.126-.188.526-.262.846-.149 1.183-.417 1.183-.908 0-.527-.44-.938-1.36-.938-.628 0-1.103.15-1.395.503M280.751 247.545h-2.092v.795h2.092zM284.308 248.442l-.903-.298c-.04.332-.183.492-.44.492-.366 0-.566-.246-.566-.805 0-.567.222-.784.566-.784.275 0 .429.166.475.463l.874-.28c-.08-.497-.543-.874-1.343-.874-1.001 0-1.544.548-1.544 1.485 0 .938.555 1.487 1.504 1.487.926 0 1.285-.423 1.377-.886M230.931 241.111c0-1.188-.469-2.069-1.337-2.652l-.457.446c.645.583.914 1.194.914 2.206 0 1-.269 1.617-.914 2.2l.457.446c.868-.583 1.337-1.468 1.337-2.646M233.013 238.59h-1.6v.68h.76v3.676h-.76v.68h1.6zM240.148 242.408l-.863-2.857h-1.166l-.514 1.835-.51-1.835h-1.16l-.868 2.857h1.023l.48-2.154.56 2.154h.96l.555-2.154.485 2.154zM243.42 241.454v-1.903h-.972v1.634c0 .407-.165.543-.405.543-.28 0-.515-.194-.515-.674v-1.503h-.971v4.07h.97v-1.732c.173.382.493.577.904.577.589 0 .989-.349.989-1.012M244.902 241.226h1.074c-.046.366-.222.56-.526.56-.308 0-.49-.177-.548-.56m1.955-.526h-1.949c.062-.371.274-.52.6-.52.286 0 .462.114.525.315l.79-.252c-.167-.497-.652-.748-1.315-.748-1 0-1.543.543-1.543 1.485 0 .943.537 1.486 1.491 1.486.932 0 1.43-.543 1.43-1.446 0-.097-.012-.245-.029-.32M250.293 241.454v-1.903h-.972v1.634c0 .407-.165.538-.405.538-.28 0-.515-.189-.515-.664v-1.508h-.97v2.857h.867l.03-.548c.182.406.53.606.976.606.59 0 .99-.349.99-1.012M252.4 239.997l.502.55c.172-.287.48-.407.847-.407.268 0 .427.08.427.2 0 .108-.136.177-.519.257-.869.171-1.183.451-1.183.92 0 .468.446.95 1.377.95.686 0 1.064-.2 1.31-.538l-.527-.515c-.16.286-.412.406-.755.406-.285 0-.434-.103-.434-.218 0-.114.126-.188.526-.262.846-.149 1.184-.417 1.184-.908 0-.527-.44-.938-1.36-.938-.629 0-1.104.15-1.396.503M260.026 240.408h-2.708v.669h2.708zm0 1.235h-2.708v.669h2.708zM231.257 236.45c-.646-.584-.92-1.2-.92-2.2 0-1.013.274-1.624.92-2.207l-.457-.447c-.875.583-1.337 1.464-1.337 2.653 0 1.178.462 2.063 1.337 2.646zM233.161 233.666v.246l-.462-.108c-.24-.058-.338-.138-.338-.298 0-.16.103-.246.28-.246.24 0 .52.143.52.406m1.343-.4l-.074-.543a.795.795 0 0 0-.389-.091c-.382 0-.65.131-.737.439-.16-.274-.49-.439-1.017-.439-.566 0-.886.251-.886.714 0 .474.303.777 1.114.937l.646.126v.103c0 .258-.148.423-.406.423-.274 0-.474-.109-.53-.44l-.79.229c.098.543.543.879 1.32.879.881 0 1.366-.36 1.366-1.097v-1.04c0-.149.07-.223.206-.223.07 0 .126.006.177.023M237.701 234.197h-1.046v-1.166h-.77v1.166h-1.053v.697h1.052v1.16h.771v-1.16h1.046zM240.378 234.117c0 .538-.206.772-.537.772-.338 0-.526-.269-.526-.743v-.057c0-.492.2-.743.526-.743.33 0 .537.234.537.771m.978-.01c0-.932-.435-1.475-1.178-1.475-.463 0-.8.268-.954.663l-.03-.607h-.851v4.07h.972v-1.692a.905.905 0 0 0 .863.537c.732 0 1.178-.549 1.178-1.497M244.747 234.197H243.7v-1.166h-.771v1.166h-1.052v.697h1.052v1.16h.77v-1.16h1.047zM248.132 234.718l-.903-.298c-.04.332-.183.492-.44.492-.366 0-.566-.246-.566-.805 0-.567.223-.784.566-.784.274 0 .428.166.474.463l.875-.28c-.08-.497-.543-.874-1.343-.874-1 0-1.543.548-1.543 1.485 0 .938.554 1.487 1.503 1.487.926 0 1.286-.423 1.377-.886M249.985 234.249c0-1.188-.468-2.069-1.337-2.652l-.457.446c.646.583.914 1.194.914 2.206 0 1-.268 1.617-.914 2.2l.457.446c.87-.583 1.337-1.468 1.337-2.646M251.358 232.29h-.903l1.6 4.468h.904zM253.32 233.317c1.292.806 1.806 1.39 1.806 1.921 0 .291-.17.508-.509.508-.36 0-.566-.269-.577-.772l-.84.258c.017.834.635 1.286 1.48 1.286 1 0 1.423-.623 1.423-1.212 0-.737-.577-1.298-1.6-1.886v-.006c.188.011.52.023.76.023h.886v-.749h-2.829zM130.21 202.253h-5.876v27.371h5.876zM139.503 202.253h-5.876v16.98h5.876zM147.602 202.253h-5.876v9.297h5.876zM155.337 202.253h-5.876v23.85h5.876zM166.669 202.253h-.897v25.843h.897z"/><path fill="#dadbdc" d="M166.22 203.15h25.843v-.897H166.22zM167.723 207.034h-.051l.002.477a13.034 13.034 0 0 1 9.226 3.783c1.546 1.536 2.697 3.46 3.809 5.318.497.83 1.01 1.69 1.556 2.508 2.266 3.403 4.802 5.331 7.539 5.728l.068-.47c-2.597-.378-5.023-2.237-7.211-5.522-.538-.808-1.05-1.663-1.543-2.489-1.128-1.885-2.293-3.833-3.882-5.41a13.59 13.59 0 0 0-9.513-3.923"/><path fill="#bcbec0" d="M275.245 257.588h-14.937v6.989h14.937z"/><path fill="#dadbdc" d="M267.776 268.824l-16.58-2.809 16.58-2.809 16.581 2.81z"/><path fill="#f4f4f4" d="M459.416 85.532c0-8.816-41.785-15.964-93.33-15.964-51.546 0-93.331 7.148-93.331 15.964s41.785 15.964 93.331 15.964c51.545 0 93.33-7.148 93.33-15.964"/><path fill="#81c3eb" d="M292.683 81.759l-2.196 4.124 16.31 73.677 2.585.433a90.79 90.79 0 0 0 14.976 1.243c22.513 0 39.495-8.2 45.249-11.39 5.755 3.19 22.734 11.39 45.25 11.39 5.018 0 10.056-.418 14.974-1.243l2.586-.433 16.31-73.677-2.195-4.124z"/><path fill="#d3d3d3" d="M294.597 97.158l5.246-9.569h69.764v2.121l-28.053 31.784z"/><path fill="#f4f4f4" d="M369.611 156.034V89.707a5.788 5.788 0 0 1-.389.107c-39.392 11.038-74.625 7.346-74.625 7.346l13.875 62.683 1.555 7.005c31.443 5.267 55.862-8.57 59.195-10.58.252-.146.39-.234.39-.234"/><path fill="#d3d3d3" d="M444.616 97.158l-5.246-9.569h-69.764v2.121l28.054 31.784z"/><path fill="#efefef" d="M444.615 97.16s-35.243 3.702-74.625-7.346c-.127-.039-.253-.068-.379-.107v66.327l.38.233c3.273 1.973 27.711 15.858 59.193 10.581l1.555-7.005z"/><path fill="#60b0d8" d="M290.486 85.883h158.241l-2.196-4.124H292.682z"/><path fill="#d3d3d3" d="M369.99 156.268V88.58h-.768v67.688c.252-.146.39-.233.39-.233l.378.233"/><path fill="#60b0d8" d="M374.848 85.883c0-1.795-2.345-3.25-5.236-3.25-2.893 0-5.238 1.455-5.238 3.25s2.345 3.25 5.238 3.25c2.89 0 5.236-1.455 5.236-3.25"/><path fill="#d3d3d3" d="M361.472 149.863l.427.853c-13.85 6.941-29.918 9.528-45.246 7.283l.137-.944c15.137 2.217 31.005-.337 44.682-7.192M314.799 150.41l.15-.942c15.67 2.497 32.16.054 46.432-6.878l.416.857c-14.446 7.018-31.138 9.49-46.998 6.962M312.946 142.82l.161-.94c16.203 2.778 33.314.447 48.182-6.563l.406.862c-15.044 7.092-32.355 9.451-48.749 6.64M311.094 135.23l.172-.937c16.734 3.058 34.467.839 49.932-6.248l.397.867c-15.641 7.168-33.575 9.412-50.501 6.319M309.242 127.64l.181-.936c17.266 3.339 35.621 1.233 51.682-5.931l.388.87c-16.237 7.243-34.794 9.373-52.25 5.998M307.39 120.05l.19-.933c17.8 3.62 36.776 1.624 53.434-5.616l.379.873c-16.835 7.32-36.013 9.335-54.002 5.677M305.54 112.46l.197-.931c18.331 3.9 37.93 2.018 55.184-5.3l.372.878c-17.433 7.392-37.233 9.295-55.754 5.354M303.688 104.872l.206-.93c18.864 4.18 39.084 2.41 56.935-4.985l.365.88c-18.03 7.47-38.452 9.258-57.506 5.035M377.751 149.863l-.428.853c13.85 6.941 29.919 9.528 45.247 7.283l-.138-.944c-15.137 2.217-31.005-.337-44.681-7.192M424.423 150.41l-.15-.942c-15.67 2.497-32.16.054-46.431-6.878l-.417.857c14.447 7.018 31.138 9.49 46.998 6.962M426.275 142.82l-.16-.94c-16.203 2.778-33.314.447-48.183-6.563l-.406.862c15.044 7.092 32.356 9.451 48.75 6.64M428.128 135.23l-.171-.937c-16.735 3.058-34.467.839-49.933-6.248l-.396.867c15.64 7.168 33.575 9.412 50.5 6.319M429.98 127.64l-.182-.936c-17.266 3.339-35.62 1.233-51.682-5.931l-.388.87c16.238 7.243 34.795 9.373 52.252 5.998M431.832 120.05l-.19-.933c-17.799 3.62-36.775 1.624-53.433-5.616l-.38.873c16.835 7.32 36.014 9.335 54.003 5.677M433.684 112.46l-.198-.931c-18.332 3.9-37.931 2.018-55.184-5.3l-.373.878c17.434 7.392 37.234 9.295 55.755 5.354M435.535 104.872l-.207-.93c-18.864 4.18-39.084 2.41-56.934-4.985l-.365.88c18.03 7.47 38.451 9.258 57.506 5.035"/><path fill="#ff6c61" d="M168.214 366.77h-26.778a3.659 3.659 0 0 0-3.659 3.66v18.299a3.659 3.659 0 0 0 3.66 3.658h26.777a3.659 3.659 0 0 0 3.66-3.658v-18.3a3.659 3.659 0 0 0-3.66-3.658"/><path fill="#fff" d="M150.374 386.125l11.911-6.546-11.911-6.546z"/><path fill="#f4f4f4" d="M130.8 78.28c0-1.399-4.59-2.533-10.254-2.533-5.663 0-10.254 1.134-10.254 2.533 0 1.398 4.591 2.532 10.254 2.532 5.663 0 10.254-1.134 10.254-2.532"/><path fill="#7787bc" d="M123.404 89.7l-8.552-2.7L88.44 170.65l8.551 2.7z"/><path fill="#8c99ce" d="M119.129 88.35l-4.276-1.351-26.414 83.653L92.715 172z"/><path fill="#fec368" d="M124.268 86.967l-8.552-2.7-.863 2.732 8.552 2.7z"/><path fill="#f3757a" d="M124.268 86.967l-8.552-2.7.9-2.852a4.484 4.484 0 0 1 8.552 2.7z"/><path fill="#fee2c9" d="M96.99 173.352c.394-1.245-1.202-2.858-3.563-3.604-2.362-.747-4.595-.341-4.988.904-.393 1.244 1.203 2.858 3.564 3.603 2.362.746 4.595.34 4.988-.903"/><path fill="#fee2c9" d="M96.992 173.35l-8.553-2.701.761 7.834.345 3.549 2.321-2.707z"/><path fill="#558caa" d="M91.866 179.324a3.572 3.572 0 0 0-2.666-.842l.345 3.55z"/><path fill="#ef4945" d="M461.736 216.567l8.586-4.849-47.435-83.987-8.586 4.85z"/><path fill="#ff6c61" d="M466.03 214.144l4.292-2.425-47.435-83.987-4.293 2.424z"/><path fill="#fec368" d="M463.286 219.311l8.586-4.85-1.55-2.743-8.586 4.85z"/><path fill="#f3757a" d="M463.286 219.311l8.586-4.85 1.617 2.864a4.93 4.93 0 1 1-8.587 4.85z"/><path fill="#fee2c9" d="M414.302 132.58c.705 1.25 3.2 1.178 5.57-.16 2.37-1.34 3.722-3.44 3.016-4.689-.706-1.25-3.2-1.177-5.571.162-2.371 1.338-3.721 3.437-3.015 4.687"/><path fill="#fee2c9" d="M414.302 132.583l8.588-4.851-6.87-5.264-3.112-2.385.436 3.896z"/><path fill="#558caa" d="M413.344 123.98a3.938 3.938 0 0 0 2.677-1.513l-3.113-2.383z"/><path fill="#096f93" d="M357.09 406.113l1.42-8.377c-15.704-7.877-29.153-20.933-38.734-35.757a6.98 6.98 0 0 0-8.047 5.713l-5.067 29.867z"/><path fill="#0e79a8" d="M358.51 397.736l3.647-21.491a6.98 6.98 0 0 0-5.713-8.046l-36.668-6.22c9.58 14.824 23.03 27.88 38.735 35.757"/><path fill="#118acb" d="M330.61 409.306l-45.203-15.78 47.878.01 45.203 15.78z"/><path fill="#0e79a8" d="M333.285 393.536l.462-2.724 45.055 16.661-.314 1.842z"/><path fill="#0e79a8" d="M333.747 390.812l-47.972.543-.368 2.171 47.878.01z"/><path fill="#ff6c61" d="M302.08 380.685a2.364 2.364 0 0 1-2.725 1.935l.328.055-1.798 10.6 34.137 7.822-.148.648-34.75-7.962 1.903-11.219.326.055a2.356 2.356 0 1 1 .038-4.654l-.483-11.549 3.106.527 3.105.527-4.265 10.743a2.355 2.355 0 0 1 1.225 2.472"/></g></svg>