<svg xmlns="http://www.w3.org/2000/svg" id="svg2" viewBox="0 0 424.567 354.78"><defs id="defs6"><clipPath id="clipPath20"><path id="path18" d="M0 500h750V0H0z"/></clipPath><clipPath id="clipPath28"><path id="path26" d="M-73.551 547.836h913.627v-657.378H-73.551z"/></clipPath><clipPath id="clipPath32"><path id="path30" d="M751.024 499.74l.033-495.98L1.057 0v152.333L1.448 500z"/></clipPath><clipPath id="clipPath36"><path id="path34" d="M-61.627 224.947h286.51V-22.187h-286.51z"/></clipPath><clipPath id="clipPath40"><path id="path38" d="M299.449 487.956h286.509V240.822H299.449z"/></clipPath><clipPath id="clipPath44"><path id="path42" d="M553.567 361.273h286.509V114.139H553.567z"/></clipPath><clipPath id="clipPath48"><path id="path46" d="M-73.551 547.836h286.509V300.702h-286.51z"/></clipPath><clipPath id="clipPath52"><path id="path50" d="M82.02 441.585h245.788V150.86H82.021z"/></clipPath><clipPath id="clipPath56"><path id="path54" d="M220.495 247.514h261.981V-19.068H220.495z"/></clipPath><clipPath id="clipPath60"><path id="path58" d="M495.836 157.04h261.981v-266.582H495.836z"/></clipPath><clipPath id="clipPath64"><path id="path62" d="M512.934 544.708h261.981V278.125H512.934z"/></clipPath><clipPath id="clipPath176"><path id="path174" d="M0 500h750V0H0z"/></clipPath><clipPath id="clipPath184"><path id="path182" d="M55 452h655V38H55z"/></clipPath><clipPath id="clipPath188"><path id="path186" d="M55 452h655V38H55z"/></clipPath><clipPath id="clipPath246"><path id="path244" d="M63.533 428.225h97.846v-40H63.533z"/></clipPath><clipPath id="clipPath292"><path id="path290" d="M0 500h750V0H0z"/></clipPath><clipPath id="clipPath324"><path id="path322" d="M0 500h750V0H0z"/></clipPath><clipPath id="clipPath332"><path id="path330" d="M108.866 380.209h306.381V114.124H108.866z"/></clipPath><clipPath id="clipPath348"><path id="path346" d="M142.05 340.942h240.014V132.495H142.05z"/></clipPath><clipPath id="clipPath364"><path id="path362" d="M386.724 350.801h19.717v-19.717h-19.717z"/></clipPath><clipPath id="clipPath380"><path id="path378" d="M168.62 363.806h22.864v-22.864H168.62z"/></clipPath><clipPath id="clipPath396"><path id="path394" d="M96.822 147.542h29.53v-29.529h-29.53z"/></clipPath><clipPath id="clipPath524"><path id="path522" d="M271.328 174.885h69.413v-18.749h-69.413z"/></clipPath><clipPath id="clipPath636"><path id="path634" d="M137.032 216.343h109.773v-81.468H137.032z"/></clipPath><clipPath id="clipPath660"><path id="path658" d="M137.012 251.138h109.359v-47.143H137.012z"/></clipPath><clipPath id="clipPath692"><path id="path690" d="M153.435 191.305h92.825v-55.672h-92.825z"/></clipPath><clipPath id="clipPath716"><path id="path714" d="M165.762 175.615h68.17v-37.888h-68.17z"/></clipPath><clipPath id="clipPath776"><path id="path774" d="M0 500h750V0H0z"/></clipPath></defs><g id="g10" transform="matrix(1.33333 0 0 -1.33333 -129.096 506.945)"><g id="g318"><g id="g320" clip-path="url(#clipPath324)"><g id="g326"><g id="g340"><g id="g338" clip-path="url(#clipPath332)" opacity=".41"><g id="g336" transform="translate(415.092 210.386)"><path id="path334" fill="#c5d9ff" d="M0 0a91.42 91.42 0 0 1-.42 15.598c-2.753 24.305-15.223 47.225-33.576 63.396-6.548 5.77-13.998 10.938-18.259 18.554-7.176 12.825-6.633 27.565-15.539 40.228-8.916 12.678-21.91 22.565-36.564 27.642-43.691 15.14-104.861-9.51-99.353-62.151.02-.189.041-.464.064-.811.732-10.935-7.85-20.128-18.772-20.388-40.311-.956-75.011-32.036-82.435-71.405-4.775-25.318 3.043-53.069 21.564-70.98 13.825-13.371 32.373-20.715 50.932-25.762 37.209-10.119 76.365-12.24 114.731-8.371 35.913 3.622 73.795 13.946 97.022 41.576C-8.216-38.135-1.117-19.233 0 0"/></g></g></g></g><g id="g342"><g id="g356"><g id="g354" clip-path="url(#clipPath348)" opacity=".88"><g id="g352" transform="translate(381.941 207.905)"><path id="path350" fill="#c5d9ff" d="M0 0a71.658 71.658 0 0 1-.328 12.219C-2.485 31.26-12.254 49.215-26.631 61.883c-5.13 4.52-10.966 8.569-14.305 14.534-5.621 10.047-5.195 21.595-12.172 31.515-6.985 9.931-17.164 17.676-28.644 21.654-34.227 11.86-82.146-7.45-77.831-48.689.015-.147.032-.362.05-.635.574-8.566-6.15-15.768-14.706-15.97-31.579-.75-58.762-25.098-64.578-55.938-3.741-19.834 2.384-41.575 16.893-55.605 10.83-10.474 25.361-16.228 39.899-20.182 29.149-7.927 59.823-9.588 89.879-6.557 28.133 2.837 57.81 10.925 76.004 32.57C-6.436-29.874-.875-15.067 0 0"/></g></g></g></g><g id="g358"><g id="g372"><g id="g370" clip-path="url(#clipPath364)" opacity=".31"><g id="g368" transform="translate(406.441 340.942)"><path id="path366" fill="#c5d9ff" d="M0 0c0-5.445-4.414-9.859-9.859-9.859S-19.718-5.445-19.718 0s4.414 9.859 9.859 9.859S0 5.445 0 0"/></g></g></g></g><g id="g374"><g id="g388"><g id="g386" clip-path="url(#clipPath380)" opacity=".31"><g id="g384" transform="translate(191.484 352.375)"><path id="path382" fill="#c5d9ff" d="M0 0c0-6.314-5.118-11.432-11.432-11.432S-22.864-6.314-22.864 0c0 6.313 5.118 11.432 11.432 11.432S0 6.313 0 0"/></g></g></g></g><g id="g390"><g id="g404"><g id="g402" clip-path="url(#clipPath396)" opacity=".31"><g id="g400" transform="translate(126.352 132.777)"><path id="path398" fill="#c5d9ff" d="M0 0c0-8.154-6.61-14.765-14.765-14.765-8.154 0-14.765 6.611-14.765 14.765s6.611 14.765 14.765 14.765C-6.61 14.765 0 8.154 0 0"/></g></g></g></g><g id="g406" transform="translate(280.418 301.607)"><path id="path408" fill="#af9cda" d="M0 0c0-28.901-23.429-52.33-52.33-52.33S-104.66-28.901-104.66 0s23.429 52.33 52.33 52.33S0 28.901 0 0"/></g><g id="g410" transform="translate(264.423 263.921)"><path id="path412" fill="#243762" d="M0 0a.502.502 0 0 0-.354.854c9.79 9.789 15.182 22.805 15.182 36.649 0 13.844-5.392 26.86-15.182 36.649-9.789 9.79-22.805 15.181-36.649 15.181-13.844 0-26.86-5.391-36.649-15.181a.5.5 0 0 0-.707.707c9.978 9.979 23.245 15.474 37.356 15.474S-9.625 84.838.354 74.859c9.978-9.978 15.474-23.245 15.474-37.356S10.332 10.125.354.146A.502.502 0 0 0 0 0"/></g><g id="g414" transform="translate(267.91 301.607)"><path id="path416" fill="#fff" d="M0 0c0-21.993-17.829-39.822-39.822-39.822-21.992 0-39.821 17.829-39.821 39.822 0 21.993 17.829 39.822 39.821 39.822C-17.829 39.822 0 21.993 0 0"/></g><g id="g418" transform="translate(228.087 261.285)"><path id="path420" fill="#243762" d="M0 0c-22.233 0-40.321 18.088-40.321 40.322 0 22.233 18.088 40.322 40.321 40.322a.5.5 0 0 0 0-1c-21.682 0-39.321-17.64-39.321-39.322C-39.321 18.64-21.682 1 0 1a.5.5 0 0 0 0-1"/></g><g id="g422" transform="translate(238.404 293.996)"><path id="path424" fill="#243762" d="M0 0h-10.833a4.035 4.035 0 0 0-4.03 4.03v15.019a3.5 3.5 0 1 0 7 0V7H0a3.5 3.5 0 1 0 0-7"/></g><g id="g426" transform="translate(146.842 283.43)"><path id="path428" fill="#243762" d="M0 0l56.372-56.372c11.027-11.027 28.905-11.027 39.932 0l6.739 6.74a6.515 6.515 0 0 1 0 9.215L80.041-17.414a6.517 6.517 0 0 1-9.216 0L59.324-28.915c-.9-.9-2.359-.9-3.259 0L28.17-1.02a2.274 2.274 0 0 0 0 3.216l11.342 11.342a6.515 6.515 0 0 1 0 9.215L15.886 46.379a6.516 6.516 0 0 1-9.134.079l-6.4-6.181C-11.005 29.311-11.163 11.163 0 0"/></g><g id="g430" transform="translate(148.607 322.572)"><path id="path432" fill="#ecf1f7" d="M0 0l31.675-31.675 1.086 1.086 4.986 4.985a6.515 6.515 0 0 1 0 9.215L14.121 7.237a6.516 6.516 0 0 1-9.134.08l-6.401-6.181z"/></g><g id="g434" transform="translate(147.95 323.742)"><path id="path436" fill="#243762" d="M0 0l1.012-.817 31.321-31.322 5.718 5.718a5.975 5.975 0 0 1 1.762 4.254 5.973 5.973 0 0 1-1.762 4.254L14.426 5.713c-2.306 2.307-6.089 2.339-8.434.074zm32.333-33.553L.324-1.543-1.511-.069l6.809 6.575c2.735 2.64 7.147 2.603 9.835-.086l23.625-23.626a7.023 7.023 0 0 0 0-9.922z"/></g><g id="g438" transform="translate(213.044 259.221)"><path id="path440" fill="#ecf1f7" d="M0 0l31.675-31.675 1.086 1.086 4.986 4.985a6.515 6.515 0 0 1 0 9.215L14.121 7.237a6.516 6.516 0 0 1-9.134.08l-6.401-6.181z"/></g><g id="g442" transform="translate(212.386 260.392)"><path id="path444" fill="#243762" d="M0 0l1.012-.817 31.321-31.322 5.719 5.718a5.98 5.98 0 0 1 1.761 4.254 5.976 5.976 0 0 1-1.761 4.254L14.426 5.713c-2.306 2.305-6.089 2.339-8.434.074zm32.333-33.553L.324-1.543-1.511-.069l6.809 6.575c2.735 2.64 7.147 2.602 9.835-.086l23.626-23.626a6.97 6.97 0 0 0 2.054-4.961 6.97 6.97 0 0 0-2.054-4.961z"/></g><g id="g446" transform="translate(151.034 326.307)"><path id="path448" fill="#ecf1f7" d="M0 0l19.3-19.3"/></g><g id="g450" transform="translate(170.334 306.506)"><path id="path452" fill="#243762" d="M0 0a.502.502 0 0 0-.354.146l-19.3 19.301a.5.5 0 0 0 .707.707L.354.854A.502.502 0 0 0 0 0"/></g><g id="g454" transform="translate(227.806 249.535)"><path id="path456" fill="#ecf1f7" d="M0 0l19.301-19.3"/></g><g id="g458" transform="translate(247.106 229.734)"><path id="path460" fill="#243762" d="M0 0a.502.502 0 0 0-.354.146l-19.3 19.301a.5.5 0 0 0 .707.707L.354.854A.502.502 0 0 0 0 0"/></g><g id="g462" transform="translate(331.8 131.074)"><path id="path464" fill="#243762" d="M0 0l-73.898 10.93c-8.355 1.236-14.127 9.011-12.892 17.367l26.504 179.183c1.236 8.356 9.011 14.127 17.367 12.892l73.898-10.931c8.355-1.235 14.127-9.011 12.892-17.367L17.367 12.892C16.131 4.535 8.356-1.236 0 0"/></g><g id="g466" transform="translate(344.007 151.939)"><path id="path468" fill="#ecf1f7" d="M0 0l-91.748 13.571 25.028 169.208 91.748-13.571z"/></g><g id="g470" transform="translate(367.157 308.45)"><path id="path472" fill="#af9cda" d="M0 0l-91.749 13.57 1.879 12.698L1.878 12.697z"/></g><g id="g474" transform="translate(296.567 153.208)"><path id="path476" fill="#ecf1f7" d="M0 0a4.954 4.954 0 0 1-2.961-.983 4.953 4.953 0 0 1-1.961-3.276 4.955 4.955 0 0 1 .929-3.703A4.955 4.955 0 0 1-.718-9.924a4.99 4.99 0 0 1 4.735 7.907A4.95 4.95 0 0 1 .742-.055 5.168 5.168 0 0 1 0 0m.016-10.978c-.291 0-.584.022-.88.066a5.944 5.944 0 0 0-3.932 2.353 5.947 5.947 0 0 0-1.115 4.447A5.947 5.947 0 0 0-3.557-.181 5.937 5.937 0 0 0 .888.934 5.949 5.949 0 0 0 4.82-1.42a5.954 5.954 0 0 0 1.116-4.445 5.999 5.999 0 0 0-5.92-5.113"/></g><g id="g478" transform="translate(309.837 339.185)"><path id="path480" fill="#ecf1f7" d="M0 0a.918.918 0 0 1-.55-.183.921.921 0 0 1-.191-1.294.92.92 0 0 1 .608-.364.915.915 0 0 1 .687.173.916.916 0 0 1 .363.606.917.917 0 0 1-.172.688A.916.916 0 0 1 0 0m.003-2.851a1.911 1.911 0 0 0-1.547.778 1.912 1.912 0 0 0-.359 1.429c.075.509.344.958.757 1.265.413.307.918.436 1.43.358A1.914 1.914 0 0 0 1.548.222c.306-.413.434-.92.359-1.429v-.001A1.929 1.929 0 0 0 .003-2.851"/></g><g id="g482" transform="translate(316.231 338.24)"><path id="path484" fill="#ecf1f7" d="M0 0a.927.927 0 0 1-.743-1.478.923.923 0 0 1 .608-.363l23.407-3.462a.924.924 0 0 1 .879 1.467.922.922 0 0 1-.608.364L.136-.01A.899.899 0 0 1 0 0m23.412-6.313c-.095 0-.19.006-.286.021L-.281-2.831a1.917 1.917 0 0 0-1.264.757 1.913 1.913 0 0 0-.359 1.43c.075.509.344.957.757 1.264.413.307.923.433 1.429.359l23.407-3.462a1.914 1.914 0 0 0 1.265-.757c.306-.413.434-.921.358-1.429a1.916 1.916 0 0 0-.756-1.265 1.913 1.913 0 0 0-1.144-.379"/></g><g id="g486" transform="translate(344.386 203.71)"><path id="path488" fill="#c5d9ff" d="M0 0l-64.002 9.467a1.908 1.908 0 0 1-2.166-1.609l-2.456-16.603a1.907 1.907 0 0 1 1.608-2.166l54.719-8.094 5.637-7.775 1.004 6.793 2.642-.391a1.908 1.908 0 0 1 2.166 1.607L1.608-2.166A1.908 1.908 0 0 1 0 0"/></g><g id="g490" transform="translate(332.09 184.206)"><path id="path492" fill="#243762" d="M0 0a.471.471 0 0 0-.074.006L-54.792 8.1a2.38 2.38 0 0 0-1.581.945 2.395 2.395 0 0 0-.449 1.788l2.456 16.604c.195 1.313 1.418 2.236 2.734 2.029l14.791-2.189a.498.498 0 1 0-.147-.988l-14.79 2.189a1.414 1.414 0 0 1-1.598-1.188l-2.457-16.603a1.402 1.402 0 0 1 .263-1.045c.224-.302.552-.498.924-.553L.073.994A.498.498 0 0 0 0 0"/></g><g id="g494" transform="translate(354.563 272.512)"><path id="path496" fill="#c5d9ff" d="M0 0l-64.002 9.466a1.906 1.906 0 0 1-2.166-1.607l-2.456-16.605a1.908 1.908 0 0 1 1.608-2.166l54.719-8.093 5.637-7.775 1.005 6.793 2.641-.391a1.908 1.908 0 0 1 2.166 1.607L1.608-2.166A1.908 1.908 0 0 1 0 0"/></g><g id="g498" transform="translate(348.217 244.445)"><path id="path500" fill="#243762" d="M0 0l-6.233 8.598-54.511 8.062a2.41 2.41 0 0 0-2.029 2.734.505.505 0 0 0 .568.421.498.498 0 0 0 .421-.567 1.395 1.395 0 0 1 .263-1.045c.223-.302.551-.498.923-.554l54.927-8.124L-.63 2.572l.899 6.075 3.136-.464a1.403 1.403 0 0 1 1.597 1.186l1.634 11.046a.501.501 0 0 0 .989-.146L5.992 9.223a2.39 2.39 0 0 0-.947-1.581 2.393 2.393 0 0 0-1.787-.448l-2.147.317z"/></g><g id="g502" transform="translate(273.55 251.118)"><path id="path504" fill="#af9cda" d="M0 0l64.002-9.466a1.908 1.908 0 0 0 1.608-2.166l-2.456-16.605a1.906 1.906 0 0 0-2.166-1.607L6.269-21.751l-7.646-5.81 1.004 6.792-2.641.391a1.908 1.908 0 0 0-1.608 2.166l2.456 16.604A1.908 1.908 0 0 0 0 0"/></g><g id="g506" transform="translate(334.823 220.752)"><path id="path508" fill="#243762" d="M0 0c-.119 0-.238.009-.358.027l-34.157 5.052a.5.5 0 1 0 .146.988L-.211 1.016a1.405 1.405 0 0 1 1.598 1.186l2.456 16.605a1.41 1.41 0 0 1-1.187 1.598.499.499 0 1 0 .147.989 2.41 2.41 0 0 0 2.029-2.734L2.376 2.056A2.393 2.393 0 0 0 1.429.475 2.388 2.388 0 0 0 0 0"/></g><g id="g510" transform="translate(344.007 151.939)"><path id="path512" fill="#fff" d="M0 0l-91.748 13.571 2.303 15.569L2.303 15.568z"/></g><g id="g514" transform="translate(268.102 171.26)"><path id="path516" fill="#c5d9ff" d="M0 0a5.58 5.58 0 1 0-11.04 1.633A5.58 5.58 0 0 0 0 0"/></g><g id="g518"><g id="g532"><g id="g530" clip-path="url(#clipPath524)" opacity=".33"><g id="g528" transform="translate(335.183 157.179)"><path id="path526" fill="#af9cda" d="M0 0a3.986 3.986 0 0 1 4.515 3.353 3.951 3.951 0 0 1-.741 2.951 3.945 3.945 0 0 1-2.61 1.562l-59.46 8.796a3.984 3.984 0 0 1-4.515-3.351 3.956 3.956 0 0 1 .741-2.953 3.945 3.945 0 0 1 2.611-1.562zm.584-1.043c-.241 0-.485.018-.73.055l-59.459 8.795a4.934 4.934 0 0 0-3.268 1.956 4.947 4.947 0 0 0-.927 3.694c.402 2.713 2.94 4.603 5.651 4.193L1.31 8.855a4.98 4.98 0 0 0 4.194-5.649 4.984 4.984 0 0 0-4.92-4.249"/></g></g></g></g><g id="g534" transform="translate(282.991 328.507)"><path id="path536" fill="#fff" d="M0 0a.946.946 0 0 1-.568-.189.947.947 0 0 1-.377-.629.954.954 0 0 1 .807-1.088.961.961 0 0 1 1.088.808.948.948 0 0 1-.179.711A.948.948 0 0 1 0 0m.003-2.916A1.961 1.961 0 0 0-1.935-.672c.077.518.351.974.77 1.286a1.96 1.96 0 0 0 3.104-1.859A1.961 1.961 0 0 0 .003-2.916"/></g><g id="g538" transform="translate(288.405 327.706)"><path id="path540" fill="#fff" d="M0 0a.958.958 0 1 1 .002-1.917A.958.958 0 0 1 0 0m.005-2.916A1.961 1.961 0 0 0-1.937-.671 1.965 1.965 0 0 0 .287.979a1.95 1.95 0 0 0 1.286-.77c.311-.42.441-.936.364-1.454a1.947 1.947 0 0 0-.77-1.285 1.942 1.942 0 0 0-1.162-.386"/></g><g id="g542" transform="translate(293.712 326.921)"><path id="path544" fill="#fff" d="M0 0a.952.952 0 0 1-.945-.818.95.95 0 0 1 .178-.711.947.947 0 0 1 .629-.377.964.964 0 0 1 1.088.807A.96.96 0 0 1 0 0m.003-2.917A1.962 1.962 0 0 0-1.935-.672 1.965 1.965 0 0 0 .289.979a1.962 1.962 0 0 0 1.65-2.224A1.962 1.962 0 0 0 .003-2.917"/></g><g id="g546" transform="translate(368.401 307.766)"><path id="path548" fill="#243762" d="M0 0a.627.627 0 0 0-.074.005l-84.927 12.562a.5.5 0 1 0 .146.989L.073.995A.5.5 0 0 0 0 0"/></g><g id="g550" transform="translate(332.996 199.886)"><path id="path552" fill="#fff" d="M0 0a.471.471 0 0 0-.074.006l-45.314 6.702a.498.498 0 0 0-.421.567c.04.274.29.468.568.421L.073.994A.498.498 0 0 0 0 0"/></g><g id="g554" transform="translate(306.169 198.33)"><path id="path556" fill="#fff" d="M0 0a.471.471 0 0 0-.074.006L-19.36 2.858a.5.5 0 1 0 .146.989L.073.994A.498.498 0 0 0 0 0"/></g><g id="g558" transform="translate(299.67 194.12)"><path id="path560" fill="#fff" d="M0 0a.471.471 0 0 0-.074.006L-13.61 2.008a.498.498 0 1 0 .147.988L.073.994A.498.498 0 0 0 0 0"/></g><g id="g562" transform="translate(332.197 194.48)"><path id="path564" fill="#fff" d="M0 0a.471.471 0 0 0-.074.006l-19.932 2.947a.499.499 0 0 0-.421.568c.04.272.291.464.568.42L.073.994A.498.498 0 0 0 0 0"/></g><g id="g566" transform="translate(327.463 237.49)"><path id="path568" fill="#fff" d="M0 0a.471.471 0 0 0-.074.006l-45.314 6.702a.5.5 0 1 0 .146.988L.073.994A.498.498 0 0 0 0 0"/></g><g id="g570" transform="translate(300.636 235.934)"><path id="path572" fill="#fff" d="M0 0a.471.471 0 0 0-.074.006L-19.36 2.858a.5.5 0 1 0 .146.989L.073.994A.498.498 0 0 0 0 0"/></g><g id="g574" transform="translate(320.676 227.798)"><path id="path576" fill="#fff" d="M0 0a.51.51 0 0 0-.077.006l-39.108 6.067a.5.5 0 0 0 .153.989L.076.994A.5.5 0 0 0 0 0"/></g><g id="g578" transform="translate(326.664 232.083)"><path id="path580" fill="#fff" d="M0 0a.471.471 0 0 0-.074.006l-19.932 2.948a.498.498 0 0 0-.421.567c.04.273.292.464.568.421L.073.994A.498.498 0 0 0 0 0"/></g><g id="g582" transform="translate(281.77 313.538)"><path id="path584" fill="#af9cda" d="M0 0l64.002-9.467a1.908 1.908 0 0 0 1.608-2.166l-2.456-16.604a1.908 1.908 0 0 0-2.166-1.608L6.269-21.751l-7.646-5.811 1.004 6.793-2.641.391a1.908 1.908 0 0 0-1.608 2.166l2.456 16.604A1.908 1.908 0 0 0 0 0"/></g><g id="g586" transform="translate(344.924 284.8)"><path id="path588" fill="#243762" d="M0 0a.5.5 0 0 0-.495.573l2.456 16.604c.055.372-.038.743-.262 1.045a1.398 1.398 0 0 1-.925.553l-39.737 5.878a.499.499 0 1 0 .147.989L.921 19.765a2.395 2.395 0 0 0 1.58-.947 2.389 2.389 0 0 0 .449-1.787L.494.427A.5.5 0 0 0 0 0"/></g><g id="g590" transform="translate(335.683 299.909)"><path id="path592" fill="#fff" d="M0 0a.627.627 0 0 0-.074.005l-45.314 6.703a.5.5 0 0 0 .146.989L.073.995A.5.5 0 0 0 0 0"/></g><g id="g594" transform="translate(308.856 298.353)"><path id="path596" fill="#fff" d="M0 0a.627.627 0 0 0-.074.005L-19.36 2.858a.5.5 0 1 0 .146.989L.073.995A.5.5 0 0 0 0 0"/></g><g id="g598" transform="translate(328.896 290.218)"><path id="path600" fill="#fff" d="M0 0a.51.51 0 0 0-.077.006l-39.108 6.067a.501.501 0 0 0-.418.571.506.506 0 0 0 .571.418L.076.994A.5.5 0 0 0 0 0"/></g><g id="g602" transform="translate(334.883 294.503)"><path id="path604" fill="#fff" d="M0 0a.627.627 0 0 0-.074.005l-19.932 2.949a.499.499 0 1 0 .147.989L.073.995A.5.5 0 0 0 0 0"/></g><g id="g606" transform="translate(343.213 268.05)"><path id="path608" fill="#fff" d="M0 0a.627.627 0 0 0-.074.005l-45.314 6.703a.5.5 0 0 0 .146.989L.073.995A.5.5 0 0 0 0 0"/></g><g id="g610" transform="translate(316.386 266.495)"><path id="path612" fill="#fff" d="M0 0a.627.627 0 0 0-.074.005L-19.36 2.858a.501.501 0 0 0 .146.99L.073.995A.5.5 0 0 0 0 0"/></g><g id="g614" transform="translate(309.887 262.285)"><path id="path616" fill="#fff" d="M0 0a.468.468 0 0 0-.074.005L-13.61 2.007a.5.5 0 0 0 .147.99L.073.995A.5.5 0 0 0 0 0"/></g><g id="g618" transform="translate(342.413 262.645)"><path id="path620" fill="#fff" d="M0 0a.627.627 0 0 0-.074.005l-19.932 2.949a.498.498 0 0 0-.421.567c.04.273.29.464.568.422L.073.995A.5.5 0 0 0 0 0"/></g><g id="g622" transform="translate(251.07 146.441)"><path id="path624" fill="#f7a9b4" d="M0 0l-102.655-11.566a3.592 3.592 0 0 0-3.972 3.169l-7.41 65.762a.19.19 0 0 0 .167.21L-4.475 69.9a.188.188 0 0 0 .209-.167L3.146 3.945A3.568 3.568 0 0 0 0 0"/></g><g id="g626" transform="translate(137.565 203.555)"><path id="path628" fill="#243762" d="M0 0l7.375-65.455a3.088 3.088 0 0 1 3.419-2.728l102.655 11.567.056-.497-.056.497a3.048 3.048 0 0 1 2.056 1.136c.511.64.742 1.442.65 2.256l-7.377 65.48zm10.446-69.202a4.1 4.1 0 0 0-4.065 3.636L-1.029.196a.692.692 0 0 0 .608.763l109.395 12.325a.686.686 0 0 0 .762-.607l7.413-65.789a4.044 4.044 0 0 0-.862-2.992 4.047 4.047 0 0 0-2.725-1.506L10.906-69.177a4.21 4.21 0 0 0-.46-.025"/></g><g id="g630"><g id="g644"><g id="g642" clip-path="url(#clipPath636)" opacity=".29"><g id="g640" transform="translate(246.26 146.441)"><path id="path638" fill="#243762" d="M0 0l-92.824-11.566c-1.972-.222 28.764 39.203 28.542 41.174l-44.945 27.757a.19.19 0 0 0 .167.21L.335 69.9a.19.19 0 0 0 .21-.167l-37.423-37.037C-36.658 30.738 1.958.221 0 0"/></g></g></g></g><g id="g646" transform="translate(137.2 204.017)"><path id="path648" fill="#f7a9b4" d="M0 0l45.238 44.739a8.216 8.216 0 0 0 10.108 1.154l53.771-33.395c.091-.057.059-.197-.048-.21L-.188-.021"/></g><g id="g650" transform="translate(188.22 250.644)"><path id="path652" fill="#243762" d="M0 0a7.7 7.7 0 0 1-5.43-2.244L-49.644-45.97 56.888-33.968 4.062-1.16A7.698 7.698 0 0 1 0 0m-51.152-47.146l-.083.736-.137.138.109.107-.001.013.015.002L-6.133-1.533A8.691 8.691 0 0 0 4.589-.31L58.36-33.705a.613.613 0 0 0-.252-1.131z"/></g><g id="g654"><g id="g668"><g id="g666" clip-path="url(#clipPath660)" opacity=".29"><g id="g664" transform="translate(137.2 204.017)"><path id="path662" fill="#243762" d="M0 0l45.238 44.739a8.216 8.216 0 0 0 10.108 1.154l53.771-33.395c.091-.057.059-.197-.048-.21L-.188-.021"/></g></g></g></g><g id="g670" transform="translate(187.44 182.945)"><path id="path672" fill="#f7a9b4" d="M0 0l-34.005-47.313 92.824 10.459-43.681 38.56C10.581 5.729 3.547 4.936 0 0"/></g><g id="g674" transform="translate(195.777 186.722)"><path id="path676" fill="#243762" d="M0 0a9.788 9.788 0 0 1-7.93-4.068l-33.348-46.398L49.308-40.26 6.471-2.445A9.79 9.79 0 0 1 0 0m-43.405-51.712L-8.742-3.484l.406-.292-.406.292A10.793 10.793 0 0 0-1.201.933a10.8 10.8 0 0 0 8.334-2.628l44.525-39.307z"/></g><g id="g678" transform="translate(142.723 236.428)"><path id="path680" fill="#fff" d="M0 0l71.5 8.056c4.687.528 8.858-2.342 9.316-6.41l4.596-40.788-19.884-18.275-26.274-2.961-25.952 16.232L8.85-4.629z"/></g><g id="g682" transform="translate(156.495 192.578)"><path id="path684" fill="#243762" d="M0 0l25.6-16.012 25.939 2.923L71.115 4.904l-4.567 40.535c-.205 1.822-1.22 3.446-2.859 4.573-1.66 1.142-3.756 1.636-5.904 1.396l-69.877-7.873 7.637-3.994zm25.366-17.045L-.939-.592-5.389 38.9l-6.809 5.63 69.87 7.872c2.387.268 4.725-.287 6.584-1.566 1.881-1.294 3.048-3.171 3.286-5.285l4.624-41.039-20.191-18.558z"/></g><g id="g686"><g id="g700"><g id="g698" clip-path="url(#clipPath692)" opacity=".29"><g id="g696" transform="translate(187.44 187.028)"><path id="path694" fill="#243762" d="M0 0l-34.005-51.396 92.824 10.458L15.138 1.705C10.581 5.728 3.547 4.936 0 0"/></g></g></g></g><g id="g702" transform="translate(187.44 182.945)"><path id="path704" fill="#f7a9b4" d="M0 0l-34.005-47.313 92.824 10.459-43.681 38.56C10.581 5.729 3.547 4.936 0 0"/></g><g id="g706" transform="translate(195.777 186.722)"><path id="path708" fill="#243762" d="M0 0a9.788 9.788 0 0 1-7.93-4.068l-33.348-46.398L49.308-40.26 6.471-2.445A9.79 9.79 0 0 1 0 0m-43.405-51.712L-8.742-3.484l.406-.292-.406.292A10.793 10.793 0 0 0-1.201.933a10.8 10.8 0 0 0 8.334-2.628l44.525-39.307z"/></g><g id="g710"><g id="g724"><g id="g722" clip-path="url(#clipPath716)" opacity=".35"><g id="g720" transform="translate(190.736 172.474)"><path id="path718" fill="#ecf1f7" d="M0 0l-24.974-34.746 68.17 7.681L11.117 1.253C7.771 4.207 2.605 3.625 0 0"/></g></g></g></g><g id="g726" transform="translate(137.24 203.927)"><path id="path728" fill="#f7a9b4" d="M0 0l44.737-27.877"/></g><g id="g730" transform="translate(181.713 175.625)"><path id="path732" fill="#243762" d="M0 0l-44.737 27.877.529.85L.529.85z"/></g><g id="g734" transform="translate(246.794 216.27)"><path id="path736" fill="#f7a9b4" d="M0 0l-37.413-37.133"/></g><g id="g738" transform="translate(209.733 178.783)"><path id="path740" fill="#243762" d="M0 0l-.704.709 37.412 37.133.705-.709z"/></g><g id="g742" transform="translate(153.553 213.588)"><path id="path744" fill="#ecf1f7" d="M0 0l-12.479-1.406-2.005 17.803A5.992 5.992 0 0 0-9.2 23.023l.568.064a5.992 5.992 0 0 0 6.626-5.284z"/></g><g id="g746" transform="translate(145.603 236.213)"><path id="path748" fill="#243762" d="M0 0c-.208 0-.417-.012-.626-.035l-.568-.064a5.453 5.453 0 0 1-3.68-2.033 5.456 5.456 0 0 1-1.163-4.04l1.949-17.307 11.485 1.294-1.95 17.307a5.454 5.454 0 0 1-2.034 3.68A5.45 5.45 0 0 1 0 0m-4.97-24.584L-7.031-6.283a6.449 6.449 0 0 0 1.376 4.775A6.453 6.453 0 0 0-1.306.896l.568.063A6.468 6.468 0 0 0 4.037-.417a6.449 6.449 0 0 0 2.404-4.35l2.061-18.298z"/></g><g id="g750" transform="translate(162.025 222.856)"><path id="path752" fill="#243762" d="M0 0a.5.5 0 0 0-.056.997L51.75 6.834a.5.5 0 0 0 .112-.994L.057.003A.544.544 0 0 0 0 0"/></g><g id="g754" transform="translate(164.01 205.245)"><path id="path756" fill="#243762" d="M0 0a.5.5 0 0 0-.056.997l51.805 5.836a.5.5 0 1 0 .112-.994L.057.003A.544.544 0 0 0 0 0"/></g><g id="g758" transform="translate(163.006 214.152)"><path id="path760" fill="#243762" d="M0 0a.5.5 0 0 0-.056.997L22.331 3.52a.5.5 0 1 0 .112-.995L.057.003A.544.544 0 0 0 0 0"/></g><g id="g762" transform="translate(191.254 217.336)"><path id="path764" fill="#243762" d="M0 0a.5.5 0 0 0-.056.997L23.501 3.65a.503.503 0 0 0 .554-.441.502.502 0 0 0-.441-.553L.057.003A.544.544 0 0 0 0 0"/></g><g id="g766" transform="translate(165.135 195.258)"><path id="path768" fill="#243762" d="M0 0a.5.5 0 0 0-.056.997L22.331 3.52a.5.5 0 1 0 .112-.995L.057.003A.544.544 0 0 0 0 0"/></g></g></g></g></svg>