<svg xmlns="http://www.w3.org/2000/svg" viewBox="0 0 1234.264 960.959"><path fill="#f6eaea" d="M1063.96 960.96c-7.652 0-15.346-.31-23.127-1.065-29.723-2.885-59.85-4.326-89.425-8.443-67.876-9.45-135.783-10.009-204.15-10.009-27.148 0-54.293-.262-81.434-.262-39.516 0-79.018.559-118.456 3.303-61.526 4.282-123.146 4.965-184.782 4.965-9.3 0-18.608-.016-27.908-.037-.6-.002-1.196-.002-1.796-.002-34.126 0-68.12 2.187-102.197 3.73-34.23 1.553-67.513 4.1-101.544 4.1-3.07 0-6.148-.019-9.23-.064-34.003-.486-85.78-10.788-110.038-37.046-14.403-15.603-12.45-53.136 1.975-68.177 6.301-6.572 16.458-11.719 24.757-14.85 23.637-8.92 47.693-8.942 72.393-9.126a127.116 127.116 0 0 1 6.04.101l-8.348 57.17 22.02 6.057 20.608-58.028c3.955.983 7.86 2.07 11.688 3.233 14.863 4.516 30.047 6.099 45.163 8.91 1.595.297 3.204.573 4.827.83l8.67 53.086 20.803-1.776 2.927-48.743c.488.004.977.005 1.465.005 8.515 0 16.972-.466 25.081-1.373 9.934-1.11 19.898-1.95 29.871-2.717-.045 1.449.041 2.825.41 3.942 1.94 5.87 10.475 7.323 15.851 7.958a94.59 94.59 0 0 0 14.142.6 370.687 370.687 0 0 1 3.218-15.086c.856-.072 1.714-.146 2.568-.221 17.732-1.557 35.22-4.293 52.752-6.785a379.94 379.94 0 0 1-1.566 17.538 94.28 94.28 0 0 0 13.68 3.63c2.244.42 5.07.868 7.853.868 3.82 0 7.565-.84 9.647-3.748 1.84-2.571 2.288-7.543 3.07-10.564a804.08 804.08 0 0 0 3.06-12.238c11.16-1.65 22.174-4.226 33.382-5.524 36.081-4.173 72.226-5.077 108.372-5.19 2.932-.007 5.861-.011 8.792-.011 17.208 0 34.416.133 51.613.133 13.056 0 26.1-.037 39.148-.042.608 17.097.99 34.21.73 51.42-.097 6.47-2.563 14.933 2.78 19.67 1.754 1.555 3.611 2.385 5.338 2.385 2.199 0 4.185-1.348 5.479-4.266 2.361-5.328 1.952-11.505 2.762-17.152 2.515-17.501 7.314-34.677 11.14-51.99 18.34.111 36.68.389 55 1.029.424 8.23 1.054 16.454 1.556 24.677.875 14.34-2.014 29.121 4.788 42.412 1.347 2.63 3.652 4.757 6.04 4.757 1.394 0 2.814-.727 4.088-2.501 2.662-3.71 1.436-10.13 2.095-14.436 2.748-18.003 6.815-35.756 10.67-53.55a956.085 956.085 0 0 1 33.694 2.567c14.785 1.399 29.475.552 44.055 3.88 14.637 3.34 29.414 6.388 44.413 6.984 12.83.51 25.697.676 38.58.676 22.919 0 45.881-.53 68.723-.616 2.288-.01 5.47-.024 9.42-.024 51.126 0 229.228 2.443 216.454 51.87-4.906 18.993-33.449 43.713-49.458 51.669-20.226 10.052-42.343 15.999-64.606 18.004-18.764 1.689-37.058 3.503-55.586 3.503"/><path fill="#e5d1bd" d="M335.634 479.566c-.304-.252-.62-.51-.97-.658-3.272-1.396-5.814-.164-9.33-.61-1.568-.198-3.33-3.862-5.458-1.34-.786.932-2.39 3.488-4.046 5.49-2.414 2.92-7.24 5.16-11.398 6.233-5.59 1.441-11.54 2.837-17.236 3.424-11.968 1.23-25.424 1.281-37.423.21.884-19.893-10.313-39.845-27.756-49.451-1.823-1.004-3.783-1.922-5.864-1.943-1.76-.017-3.467.612-5.032 1.413-16.564 8.483-7.819 23.814-1.29 36.463 4.075 7.895 8.714 15.65 13.911 22.861 7.28 10.099 17.811 12.11 29.94 11.747 12.851-.384 25.863-1.004 38.391-4.124 6.088-1.516 11.453-4.07 17.236-6.344 5.713-2.248 6.395.423 11.903-.263 3.072-.381 6.277-.19 9.236-1.14 5.306-1.704 7.133-7.162 9.198-11.774.514-1.148.866-1.923.788-3.1-.125-1.912-1.349-3.315-2.513-4.75-.69-.85-1.45-1.648-2.287-2.344"/><path fill="#d67086" d="M205.268 489.52a243.624 243.624 0 0 0 11.684 16.346c5.954 7.643 12.666 15.783 22.12 17.906 3.642.818 7.426.657 11.157.473a1059.254 1059.254 0 0 0 52.961-3.96 92.247 92.247 0 0 0-.284-27.79c-.42-2.575-1.06-5.33-3.037-7.034-2.935-2.533-7.383-1.677-11.128-.677l-18.301 4.886c-1.979.528-4.19 1.034-5.99.054-1.176-.64-1.953-1.808-2.664-2.942-13.444-21.426-20.449-41.854-27.92-65.817-3.296-10.563-6.792-21.483-14.197-29.703-15.815-17.55-45.105-7.096-44.076 17.324 1.173 27.843 13.879 56.778 29.675 80.934"/><path fill="#eacdb0" d="M747.71 743.569l.918 55.827c-.376 15.489 1.02 30.93 1.962 46.369.875 14.34-2.014 29.121 4.788 42.412 2.134 4.166 6.674 7.069 10.128 2.256 2.662-3.71 1.436-10.13 2.095-14.436 4.941-32.364 14.139-63.925 18.728-96.35 4.808-33.965-8.332-33.067-38.62-36.078"/><path fill="#292949" d="M750.881 878.633l-3.59 9.313 17.663 15.547 16.18.667 5.232-8.538-21.76-18.921-13.725 1.932"/><path fill="#eacdb0" d="M708.16 744.112l-10.183 54.9c-3.53 24.56-11.553 48.477-15.083 73.037-.81 5.647-.4 11.824-2.762 17.152-2.308 5.21-6.828 5.416-10.816 1.88-5.344-4.736-2.878-13.199-2.782-19.668.655-43.101-2.736-85.59-3.55-128.761-.01-.566.013-1.215.452-1.574.354-.293.862-.286 1.321-.256 4.192.28 43.183 4.475 43.403 3.29"/><path fill="#292949" d="M666.41 880.925l-5.598 8.263 13.697 19.131 15.612 4.302 7.024-7.136-16.928-23.344-13.807-1.216"/><path fill="#1a3151" d="M805.248 779.09l-7.616-79.816-3.674-51.858-12.35-42.356-66.684-10.35-82.446 14.13-3.962 16.02 15.866 148.27 79.522 5.96-1.079-92.282 12.267 57.2-.522 35.082h70.678"/><path fill="#fff" d="M649.98 449.116a341.16 341.16 0 0 0-.234 8.076c-.965 54.748 2.054 110.193 2.4 165.396a612.488 612.488 0 0 1 85.466-7.296c6.624-.102 36.734 4.549 40.926.594 5.69-5.365-.568-4.354-.15-11.346.538-9.046-3.808-16.454-2.167-27.172 1.93-12.598 5.768-25.058 7.98-37.654a550.047 550.047 0 0 0 7.968-76.448c.767-22.73-.057-46.304-9.832-66.84-24.105-50.641-101.82-49.73-123.144 3.146-6.316 15.66-8.51 32.617-9.213 49.544"/><path fill="#474ebb" d="M737.674 378.077l-21.108 38.467 3.31 116.573 1.525 53.724c.176 6.217.33 12.437.53 18.655.089 2.79-.682 7.489.91 9.766 3.455 4.944 16.088 3.403 21.597 3.836 8.594.676 17.312 1.379 25.406 4.346 5.39 1.974 10.496 4.949 16.18 5.748 1.277.178 2.705.204 3.708-.607 1.121-.905 1.313-2.513 1.418-3.95 1.976-26.678 2.016-54.18 3.496-81.142 1.164-21.205 4.036-42.58 3.024-63.816-1.04-21.843-4.46-43.572-8.636-65.012-2.472-12.693-5.378-25.635-12.365-36.516-7.921-12.335-19.133-17.276-32.945-20.057-4.878-.982-23.034-7.847-20.003 3.242 1.499 5.486 10.25 12.338 13.953 16.743m-45.921 3.617l21.107 38.467c-.442 0-2.676 94.29-2.856 100.655l-2.062 72.612c-.19 6.726.714 14.608-.602 21.22-1.838 9.233-11.556 7.416-19.839 8.162-18.116 1.634-37.19 4.726-55.355 3.808-5.24-.264 1.656-109.618 1.647-119.822-.036-36.703-7.608-77.423 11.036-110.707 5.425-9.684 14.988-25.21 25.544-29.99 9.837-4.457 23.919-5.214 34.597-7.711l.556 6.92-13.773 16.386"/><path fill="#292949" d="M737.565 288.52c3.324 5.825 4.925 12.533 5.22 19.232.079 1.78.2 3.837 1.64 4.889 1.541 1.125.187 3.595 1.359 2.09 1.173-1.507 5.154-6.737 5.333-8.637.42-4.452.413-8.944-.019-13.394-.376-3.871-1.166-7.915-3.7-10.866-1.5-1.75-3.505-2.98-5.478-4.172-2.863-1.73-5.812-3.473-9.099-4.086-5.667-1.055-9.141.977-4.143 4.929 3.583 2.83 6.611 6.027 8.887 10.016"/><path fill="#eacdb0" d="M702.164 364.505c.038 2.741-.524 5.585 1.894 7.71 1.163 1.023 2.735 1.433 4.264 1.675 3.951.626 8.047.335 11.871-.842 1.573-.486 3.14-1.143 4.328-2.283 1.404-1.347 1.475-2.624 1.541-4.388.08-2.067.498-4.167.767-6.263.592-4.582.859-9.202.99-13.82 6.79-1.165 14.774-3.36 17.095-10.472.731-2.24.756-4.676.774-7.06l.217-29.557c.025-3.407.032-6.919-1.135-10.081-2.048-5.548-7.25-8.856-12.352-10.938-13.02-5.31-28.196-5.098-40.213 2.456-3.197 2.01-6.216 4.595-8.059 8.106-2.84 5.412-2.482 12.094-2.04 18.34.406 5.764.812 11.529 1.22 17.293.468 6.63 1.464 14.261 6.612 17.764 2.735 1.859 6.267 2.2 8.623 4.605 4.113 4.2 2.152 10.474 3.368 15.563.17.712.225 1.448.235 2.192"/><path fill="#292949" d="M723.504 338.708c-3.538 2.378-7.435 2.506-11.378 1.32-1.676-.504-.965-3.318.714-2.812 3.266.984 6.35.958 9.296-1.022 1.481-.996 2.841 1.524 1.368 2.514zm24.573-13.874c-.11-1.826-.908-7.18-3.656-3.816-.717.88-.895 2.124-.939 3.295-.045 1.172.008 2.377-.36 3.481-.848 2.532-3.649 3.684-6.146 3.639-.992-.017-2.004-.18-2.882-.68-.852-.485-1.528-1.256-2.188-2.013a17741.29 17741.29 0 0 1-4.805-5.515c-2.753-3.16-8.216-1.793-11.927-1.31-4.274.56-8.553 1.85-12.046 4.663-.354.284-.698.582-1.043.88-.843.727-1.69 1.446-2.668 1.923-3.303 1.608-7.392-.07-9.707-3.079-1.06-1.378-2.05-3.152-3.697-3.382-1.29-.18-2.544.744-3.205 1.949-.662 1.207-.84 2.645-.93 4.043-.325 5.089.376 10.337 2.582 14.85 4.784 9.788 14.032 10.99 23.326 10.77 3.674-.086 7.347-.172 11.022-.26 6.716-.158 13.816-.436 19.474-4.34 4.991-3.446 7.958-9.302 9.174-15.435.628-3.165.816-6.433.621-9.663m1.403-53.386a52.168 52.168 0 0 0 1.433-7.278 14.405 14.405 0 0 1-7.124.61l-.016-4.25c-.01-1.177-15.95-2.002-17.247-2.11-12.125-.994-23.214-1.94-34.178 4.568-9.367 5.56-15.372 13.86-16.808 24.665-1.374 10.323 2.005 23.805 7.974 32.373-.034-2.75-1.616-9.23-.968-11.842.398-2.618 1.302-5.142 2.55-7.472 2.49-4.652 6.35-8.567 10.808-11.362 7.106-4.453 15.37-6.808 23.622-7.958 7.562-1.054 16.776-2.024 24.246-.022 3.59.963 4.186 1.864 6.361-1.761.384-.639 3.424-8.1 3.127-8.105-1.26-.02-2.52-.038-3.78-.056"/><path fill="#eacdb0" d="M797.981 414.893c-3.5-.075-6.804-1.65-9.723-3.583-11.665-7.722-16.736-21.842-23.148-33.696-3.824-7.07-7.569-17.558-13.498-23.036-1.112-1.026-13.867-7.09-13.76-7.486l.646-3.487 3.467.667 2.057-1.41-9.282-4.798 6.093-10.267 13.828-.348c4.028 7.696 6.148 16.6 11.955 23.21 2.456 2.795 5.35 5.167 8.036 7.743 4.612 4.424 8.592 9.436 12.764 14.263 5.344 6.185 13.476 11.228 16.604 18.988 1.745 4.327 4.617 14.072 2.625 18.41-1.461 3.18-5.165 4.903-8.664 4.83"/><path fill="#474ebb" d="M808.141 399.06c.844.132 1.747.29 2.357.888.686.668.822 1.704.9 2.657.896 10.983-.806 21.996-2.618 32.865-2.519 15.12-5.726 31.144-16.332 42.208-6.112 6.375-16.004 10.616-23.792 6.45-6.81-3.643-9.307-12.086-10.367-19.738-3.136-22.618.71-46.157 10.887-66.6.68-1.366 1.432-2.77 2.67-3.664 3.034-2.19 12.504 1.248 16.087 1.804l20.208 3.13"/><path fill="#eacdb0" d="M633.997 352.124a13.796 13.796 0 0 0 4.181-15.467l-11.21-30.361c-2.098-5.683-6.103-12.456-6.175-18.384-.128-10.478 3.605-22.36 5.755-32.572 1.09-5.186 1.492-12.52 4.213-17.096.51-.858 7.437-7.083 7.295-7.314l-1.063-2.084-2.067 1.072-1.565-.505 4.97-4.775-5.78-5.348-8.807 2.374c-1.103 5.62-.774 11.648-3.204 16.917-1.028 2.228-2.414 4.27-3.628 6.403-2.087 3.662-3.663 7.577-5.395 11.412-1.675 3.709-4.083 7.1-5.681 10.774-3.566 8.196-7.072 16.419-10.608 24.628l16.388 53.53c2.922 9.546 14.678 13.116 22.381 6.796"/><path fill="#474ebb" d="M672.986 357.154c-6.645-2.897-12.909-6.79-18.05-11.554-2.367-2.194-13.064-22.482-11.116-23.016l-.494.156-1.44.536-.196-.022c-3.194-.324-8.954 2.854-12.066 3.843-10.106 3.213-20.115 6.884-30.502 8.665.003 9.09 1.758 18.126 4.302 26.824 2.326 7.959 6.302 14.466 9.325 21.964 3.137 7.782 7.201 15.002 11.31 22.3 1.005 1.783 11.071 22.516 10.489 22.616 5.836-.998 10.333-5.618 13.916-10.332 8.414-11.073 12.414-26.077 22.976-35.112 8.204-7.02 18.93-7.7 17.88-21.882-5.436-.98-11.007-2.662-16.334-4.986"/><path fill="#eacdb0" d="M498.91 320.58c.094 1.64-.814 3.5-1.394 4.988a32.72 32.72 0 0 0-1.899 16.42 49.13 49.13 0 0 1 15.85 2.578l3.342-12.081c.175-.632.36-1.284.776-1.792.536-.653 1.37-.968 2.155-1.28a41.537 41.537 0 0 0 11.86-7.215c.764-.662 1.526-1.386 1.91-2.322.344-.846.347-1.787.346-2.7-.01-7.283-.023-14.564-.035-21.847 0-.813-.02-1.684-.484-2.352-.477-.687-1.316-1.004-2.104-1.284l-3.733-1.323a4.155 4.155 0 0 0-1.124-.398c-2.53-.898-3.135-.827-5.636-.007-.486.159-5.912 1.377-5.956.919.748 7.72-1.459 15.689-6.07 21.925-.316.427-.704.88-1.232.925-.56.048-1.034-.382-1.416-.794a23.762 23.762 0 0 1-4.153-6.218l-6.027 1.508c-.53 3.21.54 6.803 2.823 9.144.241.248.47.45.677.626.868.732 1.435 1.046 1.523 2.58"/><path fill="#353a85" d="M519.15 331.56l-25.1-4.111-25.597 70.053-60.473-10.301 13.17 80.604 76.928-46.073 21.071-90.172"/><path fill="#e5d1bd" d="M320.208 869.258c-3.818.254-7.308-1.088-11.007-1.502.176-13.067 1.592-25.595 4.407-38.495 5.752 6.385 10.596 2.673 10.4 14.672-.064 3.884-4.548 19.416-3.8 25.325"/><path fill="#292949" d="M308.365 861.257c-4.34-1.553-5.319 8.81-5.352 11.248-.02 1.464.153 2.957-.219 4.373-.409 1.56-1.438 2.87-2.44 4.132l-6.305 7.924c-.944 1.188-1.905 2.404-2.412 3.835-1.255 3.545.819 7.75 4.176 9.446 11.648 5.883 22.288-8.365 24.81-17.77.387-1.443.67-2.91.951-4.376.583-3.032 2.88-9.644 1.675-12.607-1.404-3.456-5.657-.952-8.445-2.254-2.586-1.208-4.683-3.322-6.439-3.951"/><path fill="#5d66d3" d="M391.12 653.974c-10.86 29.564-23.39 58.482-30.538 89.43-8.828 38.23-23.06 75.513-30.366 113.829a94.55 94.55 0 0 1-14.142-.601c-5.376-.635-13.91-2.087-15.85-7.958-.992-3.001.06-7.881.21-10.998.486-9.984 1.198-19.958 1.932-29.926 2.078-28.205 3.503-56.754 8.69-84.56 5.457-29.25 10.684-58.6 15.485-87.846 2.481-15.115 5.537-30.136 9.297-44.987.97-3.827 11.058-43.265 13.038-42.95 23.504 3.74 45.493 11.523 65.962 23.662 1.99 1.18 3.91 2.587 4.602 4.687.692 2.1.065 3.91-.576 5.816-6.118 18.18-14.275 35.228-20.798 53.336-2.269 6.3-4.572 12.6-6.946 19.066"/><path fill="#e5d1bd" d="M393.166 867.136c3.57 1.377 7.302 1.136 10.956 1.838 3.718-12.526 6.092-24.91 7.242-38.062-7.39 4.385-10.912-.6-14.294 10.914-1.094 3.727-1.432 19.89-3.904 25.31"/><path fill="#292949" d="M407.858 865.204c.01 7.084 5.586 14.712 8.671 21.082.363.75.733 1.53.748 2.362.021 1.237-.733 2.336-1.459 3.338-1.005 1.392-2.098 2.855-3.697 3.481-1.572.615-3.337.307-4.987-.055a92.232 92.232 0 0 1-8.178-2.193c-.67-.212-1.355-.44-1.903-.883-.647-.526-1.036-1.295-1.407-2.042-1.904-3.83-3.52-6.55-3.418-10.816.105-4.408.661-8.974-.144-13.342-.399-2.12-.927-4.828.89-5.991 1.402-.9 3.971.34 5.5.59 2.694.438 5.184.271 7.667 1.687.505.288.999.635 1.31 1.127.317.5.406 1.064.407 1.655"/><path fill="#5d66d3" d="M389.492 640.504c1.574 31.456 4.938 62.792 2.557 94.465-2.941 39.127-.44 78.955-4.861 117.71a94.28 94.28 0 0 0 13.68 3.63c5.322.995 13.901 2.147 17.5-2.881 1.84-2.571 2.288-7.543 3.07-10.564 2.506-9.676 4.792-19.412 7.055-29.147 6.405-27.545 13.536-55.228 16.853-83.317 3.488-29.55 7.228-59.127 11.342-88.476 2.126-15.171 3.676-30.422 4.502-45.718.214-3.941 2.312-44.596.327-44.885-23.552-3.419-46.86-2.527-70.015 2.976-2.25.535-4.5 1.305-5.786 3.105-1.287 1.8-1.226 3.715-1.18 5.726.434 19.174 3.152 37.877 3.993 57.106.292 6.69.619 13.39.963 20.27"/><path fill="#353a85" d="M376.264 388.077c-.383.13-.764.265-1.143.41-6.323 2.4-11.701 6.717-16.963 10.967-7.902 6.383-11.794 9.182-14.846 18.635-2.847 8.817-4.628 18.128-6.372 27.213-8.948 46.644-10.678 93.094-17.1 140.088-1.75 12.792-3.099 27.83 6.361 36.618 16.785-13.064 37.887-13.82 58.245-13.836 14.298-.014 28.276-4.644 42.607-3.048 7.305.813 14.119.218 20.996-.376 6.015-.52 12.077-1.04 18.563-.618 3.352.218 7.621.182 8.942-2.906-4.81-14.42-4.728-29.926-5.816-45.086-2.816-39.216-15.808-76.846-21.05-115.797-1.783-13.24-2.734-35.215-12.986-45.236-11.142-10.89-36.557-11.113-50.876-8.983-2.9.43-5.788 1.016-8.562 1.955"/><path fill="#eacdb0" d="M386.897 387.418c.235.458.55.896.972 1.312 1.664 1.642 3.97 2.572 6.257 2.9 3.016.432 6.083-.07 9.075-.64 4.044-.77 3.9-3.138 4.487-6.808.32-2.006.521-4.026.672-6.052.082-1.11-.347-5.082.36-5.861.48-.527 2.434-.35 3.29-.796 1.358-.71 2.492-2.015 3.307-3.283 1.315-2.045 2.039-4.404 2.748-6.73l3.697-12.136c1.26-4.135 2.527-8.303 2.931-12.606.61-6.485-.439-15.64-5.333-20.382-4.466-4.326-10.98-5.84-16.955-6.604-7.91-1.011-16.11.437-22.944 4.637-2.76 1.695-5.376 3.895-7.004 6.917-2.512 4.662-2.321 10.48-2.05 15.922l.747 15.065c.286 5.775 1.006 12.43 5.334 15.563 2.297 1.664 5.301 2.018 7.268 4.152 2.464 2.67 2.304 6.678 2.406 10.065.06 1.936-.085 3.768.735 5.365"/><path fill="#292949" d="M411.94 322.5c.272.472.5.96.676 1.468.922 2.662.298 5.668 1.2 8.338 1.426 4.232 6.366 6.776 7.11 11.182.61 3.6-1.852 7.026-2.06 10.673-.226 3.985 2.326 7.756 1.93 11.69-.344 3.417-2.512 8.218-4.552 10.955.633-.848 6.352-.545 7.836-1.452 2.273-1.388 2.532-2.264 3.208-4.632.672-2.352.152-4.67 1.198-7.08 1.283-2.956 3.922-5.125 4.846-8.277 1.261-4.301-1.028-8.84-.85-13.319.271-6.78 6.13-13.166 4.004-19.61-1.248-3.78-4.917-6.195-6.982-9.6-1.567-2.583-2.146-5.628-3.232-8.448-1.088-2.82-2.956-5.643-5.856-6.498-1.61-.476-3.343-.281-4.994-.588-2.853-.53-5.224-2.5-7.973-3.43-3.933-1.331-10.872 2.646-13.168 5.98-2.279 3.309-1.128 6.122 1.201 9.048 3.88 4.872 13.255 8.06 16.458 13.6"/><path fill="#292949" d="M358.97 302.476c-2.357 1.729-5.266 2.978-7.42 5-4.196 3.938-4.994 10.24-5.145 15.994-.136 5.123-2.376 9.676-1.821 15.016.373 3.586 1.897 7.212 4.816 9.33 3.633 2.637 9.34 3.069 10.96 7.257 1.761 4.548-2.95 10.276-.09 14.227 1.578 2.18 4.67 2.498 6.927 3.964 2.519 1.634 3.813 4.552 5.35 7.13 1.54 2.579 3.85 5.162 6.851 5.226.122-4.566.256-8.183-1.693-12.358-1.136-2.432-4.481-6.92-1.912-9.553 1.62-2.19 5.445-2.901 5.544-5.623.045-1.278-.847-2.366-1.55-3.434-2.723-4.134-3-9.64-1.154-14.234 1.847-4.592 5.652-8.261 10.107-10.418 5.221-2.528 4.38-3.804 5.897-8.803 1.396-4.6 4.007-5.679 8.148-7.356 3.719-1.505 4.913-2.443 6.287-5.923 1.002-2.546 2.24-5.597.782-8.438-1.157-2.26-3.24-3.875-5.258-5.414-4.216-3.214-8.954-6.593-14.242-6.213-2.936.212-5.698 1.592-8.638 1.759-1.962.11-3.91-.323-5.874-.388-3.346-.112-6.876.905-9.585 2.897-2.733 2.01-2.656 4.113-4.175 6.965-.742 1.396-1.848 2.463-3.112 3.39"/><path fill="#292949" d="M370.81 283.705c.514-3.18.184-7.325-2.853-8.399-1.664-.59-3.53.056-5.26-.296-3.685-.75-4.941-5.214-6.875-8.441-.289-.483-.633-.972-1.148-1.201-.736-.328-1.578-.038-2.378.06-3.668.448-6.456-3.172-9.912-4.486-4.276-1.624-9.656 1.05-10.946 5.439-.529 1.804-.436 3.741-.933 5.555-2.013 7.344-12.768 10.469-13.041 18.08-.183 5.142 4.85 10.069 2.893 14.829-1.25 3.044-5.167 5.119-4.719 8.379.288 2.097 2.522 3.525 4.64 3.496 2.115-.03 4.06-1.191 5.655-2.584 2.53-2.211 4.439-5.047 6.85-7.387 2.411-2.341 5.626-4.239 8.96-3.823 3.23.403 6.153 2.918 9.362 2.38 2.568-.43 4.473-2.721 6.996-3.366 2.36-.604 4.813.322 7.244.469 2.432.147 5.419-1.119 5.483-3.553.016-.59-.15-1.2.036-1.76.518-1.57 3.2-1.48 3.71-3.052-1.27-1.958-3.06-1.256-3.97-3.812-.704-1.976-.116-4.528.206-6.527"/><path fill="#8cabef" d="M357.233 777.36H857.75v-347.5H357.233z"/><path fill="#9cb4ee" d="M368.901 518.096v-77.188h119.467c-51.559 0-95.488 29.016-112.228 69.677l-7.239 7.51"/><path fill="#7c93da" d="M857.75 777.36H576.013c255.71 0 281.737-177.894 281.737-177.894v177.895"/><path fill="#c1c1c1" d="M806.381 187.76c-.021-.126-.037-.254-.061-.38l.218.194-.157.187"/><path fill="#292949" d="M107.61 888.96l-.8 11.261 21.72 12.863 12.06-10.46-10.458-12.06-21.72-12.864-.802 11.26"/><path fill="#292949" d="M96.428 546.532l-2.435 34.198 35.05 151.438-22.353 153.08 22.02 6.057 65.058-183.173 2.194-55.463-13.02-114.361-86.514 8.224"/><path fill="#292949" d="M237.81 566.716l13.914 143.425-11.255 187.419-20.803 1.776-27.717-169.682-43.045-168.372 88.905 5.434"/><path fill="#292949" d="M219.574 896.85l.96 11.247 23.456 9.328 10.288-12.208-12.206-10.288-22.498 1.92"/><path fill="#d67086" d="M76.424 564.432c-1.644 13.046-3.063 30.712 1.893 31.877.93.219 1.88-.152 2.75-.516 9.178-3.841 16.017-9.879 25.055-13.572 9.474-3.87 20.004-5.357 30.258-6.099 15.341-1.188 30.908-1.296 46.274.028 12.082 1.042 24.091 3.327 35.995 5.572 9.904 1.87 18.892 5.795 29.143 6.147 10.506.359 21.113-1.77 30.598-6.324.348-.167.716-.359.89-.704.19-.376.09-.827-.012-1.236-1.526-6.06-2.456-12-5.824-17.237-3.76-5.848-6.119-13.027-8.603-19.498-5.18-13.485-9.916-27.546-13.048-41.665-4.948-19.263-10.927-38.145-15.64-57.445-3.267-13.378-6.105-26.943-11.084-39.82-3.9-10.084-11.17-24.978-21.239-30.284-3.406-1.796-7.316-2.332-11.134-2.84l-34.752-4.62c-4.223-.56-8.619-1.107-12.66.237-6.059 2.015-9.96 7.752-13.407 13.124-15.46 24.09-26.48 50.65-33.993 78.439-3.923 14.51-7.67 29.068-10.93 43.732-3.64 16.364-6.686 32.865-8.696 49.5-.222 1.849-1.054 7.005-1.834 13.204"/><path fill="#f7f7f7" d="M168.5 432.258c-.246 6.63-1.868 13.12-3.483 19.556l-29.504 117.602 93.673 8.9 1.254-45.08c.27-9.632.534-19.3-.508-28.89-1.686-15.466-6.736-30.385-11.755-45.164l-27.824-81.921c-.495-1.461-1.02-2.97-2.097-4.096-1.29-1.348-3.178-1.952-4.99-2.464-8.758-2.476-18.692-4.83-27.789-4.447-3.088 7.926 3.705 22.967 5.98 30.874 3.31 11.506 7.493 23.02 7.043 35.13"/><path fill="#eacdb0" d="M180.15 376.1l-19.312-2.856a97.636 97.636 0 0 1 1.796-15.446c-.122.619-9.904-5.91-10.69-7.244-2.266-3.836-1.952-9.85-2.608-14.202-1.399-9.272-2.538-19.666 3.065-27.183 5.803-7.785 16.788-9.516 26.47-8.765 12.153.94 25.32 5.88 30.475 16.928 4.655 9.978-3.886 23.097-6.946 32.82-1.508 4.796-3.615 10.228-8.38 11.822-2.53.848-5.45.424-7.768 1.747-4.087 2.332-3.836 8.255-6.102 12.379"/><path fill="#292949" d="M230.31 301.352c1.416-6.626 2.832-13.251 4.25-19.876.525-2.462 1.052-5.016.493-7.47-.93-4.08-4.676-6.958-8.581-8.462-3.904-1.504-8.13-1.984-12.103-3.302-4.24-1.405-8.257-3.776-12.716-4.041-8.479-.504-15.752 6.653-24.233 7.121-11.743.647-21.8-5.746-30.187 7.123-1.54 2.365-2.193 5.204-3.59 7.656-1.805 3.168-4.734 5.51-7.12 8.268-10.49 12.121-9.595 32.264.326 44.49 4.81 5.927 6.5 11.013 13.717 13.503-2.673-7.236 4.646-34.193 14.236-36.308 2.542-.558 9.604 3.21 12.284 3.89 5.934 1.506 11.691 3.08 17.116 6.017 8.051 4.357 16.927 7.775 25.962 9.4 1.156.208 2.453.387 3.412-.29.902-.638 1.198-1.82 1.43-2.9 1.767-8.274 3.536-16.546 5.304-24.82"/><path fill="#5d66d3" d="M568.58 158.046c-4.572-30.565 16.328-59.052 46.761-63.952a67.728 67.728 0 0 1-.507-2.882C609.252 53.88 634.99 19.09 672.32 13.508c20.312-3.04 39.86 3.212 54.37 15.54 9.506-14.772 25.071-25.542 43.808-28.344 33.351-4.987 64.5 17.056 71.234 49.68a57.24 57.24 0 0 1 4.245-.818c30.779-4.604 59.46 16.615 64.064 47.394 3.701 24.758-9.312 48.15-30.563 58.753a54.338 54.338 0 0 1 7.5 20.547c4.454 29.785-16.08 57.54-45.865 61.996-2.284.34-4.555.529-6.805.582l8.628 57.688c.337 2.507-2.724 3.987-3.823 2.848l-44.236-45.83a54.227 54.227 0 0 1-28.416 13.42c-19.956 2.984-38.992-5.262-50.727-19.98a60.614 60.614 0 0 1-30.545 13.932c-33.26 4.973-64.255-17.958-69.23-51.218a60.891 60.891 0 0 1-.473-4.322c-23.646-3.742-43.178-22.396-46.906-47.33"/><path fill="#fff" d="M675.694 148.069c8.23-1.23 10.156 11.557 1.912 12.79-8.229 1.231-10.156-11.557-1.912-12.79m57.556-8.609c8.23-1.23 10.156 11.558 1.912 12.792-8.229 1.23-10.156-11.558-1.913-12.791m71.945-10.761c8.231-1.23 10.156 11.558 1.914 12.792-8.23 1.23-10.156-11.558-1.914-12.791m10.736 370.995c-7.028 5.61-14.056 11.22-21.082 16.832 3.576 5.48 7.081 11.006 10.472 16.612 1.697 2.808-2.875 5.02-4.556 2.24-3.2-5.294-6.51-10.511-9.883-15.686-6.844 5.464-13.69 10.928-20.532 16.392-2.553 2.038-5.872-1.814-3.31-3.86 7.017-5.604 14.035-11.205 21.053-16.81a548.66 548.66 0 0 0-12.739-18.347c-1.912-2.635 1.916-5.981 3.84-3.327a560.783 560.783 0 0 1 12.857 18.515l20.57-16.421c2.552-2.038 5.872 1.816 3.31 3.86M454.086 611.6c.332.14.7.197 1.08.172.518.085 1.032.16 1.55.28 31.23 7.102 20.508 59.085-10.528 54.16 1.336-1.716.232-4.88-2.31-4.11-18.51 5.618-21.868-22.253-17.338-33.804 4.44-11.32 15.72-18.15 27.546-16.697zm336.638-38.008c-1.54-9.444-4.01-18.532-7.38-27.476-.744-1.976-3.255-1.62-4.366-.326-6.754 7.867-12.12 16.415-16.394 25.864-1.11 2.454 2.21 4.264 4.044 2.788a62.273 62.273 0 0 0 6.601-6.176c-11.676 37.432-22.979 83.45-65.225 92.104-37.788 7.742-59.094-34.453-75.486-61.282-14.06-23.015-28.986-47.946-52.49-62.395-25.11-15.433-56.022-14.37-81.532-.432-25.728 14.06-46.322 39.865-45.755 70.08-16.052-.93-29.893 10.747-32.813 26.808-2.46 13.53 4.404 35.44 20.138 34.788-.174 1.064.276 2.156 1.636 2.507 17.802 4.616 34.751-6.743 38.33-24.754 3.264-16.426-5.4-34.73-22.234-38.6-1.728-41.101 40.574-75.765 79.427-76.728 64.21-1.59 84.375 71.339 118.323 112.124 10.144 12.187 23.064 22.358 39.341 23.743 15.188 1.293 29.81-4.959 41.415-14.477 28.222-23.148 34.108-60.947 45.633-93.846 1.6 5.462 2.885 10.992 3.81 16.674.529 3.238 5.503 2.246 4.977-.988"/><path fill="#d67086" d="M428.053 647.884c-.295-1.568-.415-3.183-.447-4.776-.368-18.496 9.163-30.808 28.188-26.343 9.795 2.299 15.484 14.636 15.44 23.857-.033 6.196-1.904 13.012-7.136 16.29-8.513 5.33-28.633 5.949-34.325-4.12-.86-1.52-1.395-3.186-1.72-4.908M572.968 412.46L439.416 223.166l-13.388 9.445L559.58 421.906l13.388-9.445m26.777-18.892L466.193 204.273l-13.39 9.445 133.553 189.296 13.39-9.445"/><path fill="#fff" d="M586.356 403.014L452.804 213.718l-13.388 9.447L572.968 412.46l13.388-9.447"/><path fill="#babcbe" d="M423.48 229l2.548 3.61 40.165-28.337-2.548-3.61L423.48 229"/><path fill="#f7f7f7" d="M420.932 225.389l2.548 3.61 40.165-28.337-2.548-3.612-40.165 28.339"/><path fill="#babcbe" d="M418.384 221.777l2.548 3.612 40.165-28.339-2.548-3.61-40.165 28.337"/><path fill="#e8e8e8" d="M399.553 195.085l16.284 23.081 40.165-28.337-16.284-23.081c-6.457-9.152-19.11-11.336-28.262-4.88l-7.023 4.954c-9.152 6.458-11.337 19.11-4.88 28.263"/><path fill="#f7f7f7" d="M415.837 218.166l2.547 3.61 40.165-28.336-2.547-3.611-40.165 28.337"/><path fill="#eed5d5" d="M599.744 393.569l-40.164 28.337 55.004 35.33z"/><path fill="#292949" d="M611.116 442.354l-9.388 6.624 12.856 8.258z"/><path fill="#ced0d6" d="M312.513 715.348c-20.54-.764-41.787-1.595-60.96-2.36l.17-2.847-6.213-64.05a560956.56 560956.56 0 0 0 76.684-79.54 887.067 887.067 0 0 1-2.354 18.84c-1.75 12.791-3.099 27.83 6.361 36.617a54.564 54.564 0 0 1 3.116-2.254 576.83 576.83 0 0 0-2.776 15.59c-4.372 26.633-9.097 53.353-14.028 80.004"/><path fill="#545eb5" d="M357.233 716.932c-13.659-.451-28.983-1-44.72-1.584 4.93-26.651 9.656-53.371 14.028-80.004a576.83 576.83 0 0 1 2.776-15.59c8.533-5.728 18.039-8.63 27.916-10.096v107.274"/><path fill="#373d7a" d="M326.201 622.008c-9.46-8.787-8.11-23.826-6.361-36.618a887.067 887.067 0 0 0 2.354-18.838c12.467-12.934 24.384-25.298 35.04-36.351v79.457c-9.878 1.467-19.384 4.368-27.917 10.096a54.564 54.564 0 0 0-3.116 2.254"/><path fill="#7891ca" d="M404.626 718.118c-8.329 0-25.78-.472-47.393-1.186V530.2c4.09-4.241 7.99-8.29 11.668-12.105v28.964c0-12.814 2.556-25.102 7.239-36.475l26.213-27.199c8.692 8.575 10.336 232.743 7.55 234.51-.24.153-2.089.222-5.277.222"/><path fill="#8498c9" d="M368.901 547.06v-28.964c2.525-2.622 4.939-5.124 7.239-7.511-4.683 11.373-7.239 23.661-7.239 36.475"/><path fill="#2e304d" d="M187.013 710.348l-3.387-.143c.563-.579 1.456-1.5 2.652-2.735l.735 2.878"/><path fill="#2e304d" d="M251.553 712.989c-30.464-1.216-55.693-2.27-64.54-2.641l-.735-2.878c8.32-8.594 31.251-32.364 59.232-61.38l6.214 64.05-.17 2.849"/><path fill="#474ebb" d="M402.098 710.205H172.71a762.553 762.553 0 0 0 8.645-121.832c-.34-36.439-.182-67.921-5.492-102.817 76.463 0 149.772-4.742 226.236-4.742a1136.155 1136.155 0 0 1 5.76 104.472 1136.31 1136.31 0 0 1-5.76 124.919"/><path fill="#fff" d="M254.641 621.612c-10.937 9.908-23.821 17.32-37.716 22.169-2.108-33.812 4.384-67.639.881-101.432 13.071-5.592 27.783-9.879 40.948-2.983 13.951 7.308 18.732 27.34 18.618 41.87-.13 16.496-11.062 29.804-22.73 40.376zm26.077-46.928c-1.632-15.056-6.996-32.706-21.957-39.404-17.115-7.663-35.46.313-51.141 7.626-2.158 1.007-.28 4.2 1.87 3.198a398.499 398.499 0 0 1 4.754-2.188c3.201 33.817-3.288 67.665-.896 101.5-.484.732-.359 1.76.185 2.389.063.748.101 1.495.173 2.241.226 2.352 3.931 2.375 3.703 0-.077-.81-.121-1.618-.188-2.43 30.285-10.375 67.36-37.286 63.497-72.932m44.092 52.834c-2.653 12.154-12.44 23.518-25.685 23.503-16.396-.017-19.836-17.38-17.039-30.445 1.266-5.915 4.063-11.506 8.687-15.5 2.739-2.366 7.428-5.06 11.828-5.598.337.743 1.1 1.306 2.12 1.09a18.547 18.547 0 0 1 3.185-.398c.411.195.812.419 1.191.696.921.676 1.823.286 2.305-.453 11.054 2.096 15.766 16.296 13.407 27.105zm-15.932-30.992c-5.466-2.181-12.869.479-17.433 3.43-6.852 4.43-11.248 11.736-12.93 19.634-3.137 14.738.855 33.666 18.62 35.056 17.114 1.34 30.063-14.076 31.875-29.973 1.518-13.319-6.526-27.728-20.132-28.147m50.187 42.222l-.216-.291c-2.13-2.205-5.008-.8-6.197 1.46-1.115 1.457-2.028 3.06-1.774 4.985.267 2.015 1.83 3.766 3.968 3.732 2.266-.036 3.948-1.87 4.547-3.925.864-.848 1.363-2.068 1.103-3.545a4.024 4.024 0 0 0-1.43-2.416m.4-70.612c.266.2.582.305.912.324-.394 1.99-.816 3.86-1.005 5.312.03-1.88.057-3.758.093-5.636zm.294-12.38c.158.016.317.032.474.05a2.061 2.061 0 0 0-.234.754 19.522 19.522 0 0 1-.306 1.953c.024-.919.04-1.837.066-2.757zm7.788-.606c-1.727-3.066-6.504-3.034-9.594-3.197-1.02-.053-1.824.893-1.852 1.852a1521.736 1521.736 0 0 0-.492 65.364c.02 1.341 1.203 1.93 2.228 1.76.22 2.27 3.626 2.27 3.688-.093.43-16.16 1.767-32.278 4.2-48.263.54-3.543 1.138-7.076 1.766-10.604.384-2.155 1.22-4.75.056-6.819"/><path fill="#e5d1bd" d="M227.652 551.544c-.144-.404-.295-.82-.539-1.156-2.276-3.124-5.332-3.391-8.367-5.764-1.353-1.06-.956-5.46-4.346-4.29-1.252.43-4.174 1.923-6.834 2.87-3.878 1.378-9.629.782-14.106-.534-6.02-1.768-12.35-3.778-17.99-6.405-11.853-5.517-24.438-12.964-35.038-20.645 11.904-18.07 12.566-42.924 1.642-61.604-1.14-1.952-2.46-3.9-4.39-5.08-1.632-.995-3.575-1.358-5.483-1.482-20.18-1.31-20.559 17.866-21.51 33.306-.594 9.636-.586 19.456.247 29.08 1.168 13.478 9.876 21.22 21.394 27.636 12.208 6.798 24.694 13.468 38.122 17.533 6.526 1.976 12.954 2.583 19.616 3.68 6.584 1.085 5.732 3.956 11.252 6.385 3.08 1.355 5.964 3.318 9.255 4.08 5.9 1.366 10.644-2.71 15.14-5.864 1.12-.785 1.879-1.313 2.463-2.453.948-1.856.588-3.845.3-5.833a18.22 18.22 0 0 0-.828-3.46"/><path fill="#d67086" d="M100.461 488.224c.305 7.453.925 14.753 1.797 21.76 1.3 10.449 3.03 21.782 10.668 29.028 2.944 2.793 6.564 4.75 10.148 6.656a1150.239 1150.239 0 0 0 51.624 25.8 100.2 100.2 0 0 0 15.212-26.088c1.043-2.638 1.98-5.566 1.086-8.256-1.328-3.998-5.955-5.676-10.007-6.828-6.6-1.88-13.2-3.756-19.8-5.635-2.141-.61-4.485-1.37-5.619-3.285-.74-1.252-.814-2.775-.846-4.228-.612-27.482 4.228-50.446 10.602-76.967 2.807-11.692 5.628-23.827 3.296-35.623-4.98-25.185-38.137-31.742-50.777-8.382-14.412 26.634-18.672 60.71-17.384 92.048"/><path fill="#e5d1bd" d="M819.161 503.166c1.163-1.316 1.53-1.808 3.419-2.658 1.89-.85 4.136-1.142 6.384-2.623 1.632-1.075 1.22-4.997 4.996-3.508 1.394.55 3.83 2.299 6.493 3.313 3.884 1.483 9.419 1.356 14.099.328 18.385-4.041 36.864-7.738 55.688-9.633 1.073-.107 2.138-.181 3.041-.816 1.616-1.139 1.83-2.993 2.243-4.813 1.912-8.438 4.07-16.704 7.562-24.67 3.118-7.105 6.802-13.873 12.802-18.898 5.998-5.026 13.917-7.544 21.292-5.187 5.522 1.764 10.106 5.615 11.253 11.372 2.845 14.277-10.27 24.957-18.133 34.967-7.439 9.469-13.799 17.5-21.588 26.184-.962 1.072-1.878 2.073-3.224 2.682-1.348.61-2.91.646-4.374.627-18.856-.25-37.23-.975-55.692 2.853-5.073 1.052-9.704-.021-14.478 1.6-3.048 1.035-4.64 4.056-7.442 5.503-2.802 1.447-6.113 2.916-9.252 3.127-6.189.418-9.994-4.13-14.212-7.872-3.368-2.991-5.924-3.854-10.308-2.687-.514.137-1.072.47-1.658.339-1.702-.378-2.426-2.371-1.543-3.875.881-1.504 2.445-1.95 4.065-2.503 1.62-.552 3.45-1.01 5.206-1.11.752-.042 1.593-.011 2.14-.544.546-.532.73-.94 1.221-1.498"/><path fill="#aab4b5" d="M950.085 475.136c-10.621-4.02-21.756-6.476-32.107-11.342 3.755-9.013 14.614-45.684 16.482-50.074 7.134-16.758 8.514-23.978 18.346-32.826 20.995-18.896 45.926-6.365 44.9 20.454-1.11 29.113-16.71 54.104-33.608 76.62a3.29 3.29 0 0 1-1.506 1.112c-.64.24-1.622-.003-2.394-.307-3.302-1.303-6.76-2.368-10.113-3.637"/><path fill="#e5d1bd" d="M956.75 875.674c-3.716.126-7.286-.708-10.936-1.045-1.882-36.18 1.536-74.097 3.02-110.45l27.882 1.489a324.932 324.932 0 0 0-13.795 59.769c-.428 3.216-5.641 50.22-6.17 50.237"/><path fill="#292949" d="M944.69 867.612c-2.294-.41-3.648.612-5.177 2.009-.888.812-1.493 1.96-2.564 2.541-1.07.582-2.123.695-3.396.823-6.704.673-22.15.393-13.923 11.608 7.474 10.184 27.322 6.129 38.787 3.363.755-.182 1.55-.295 2.103-.88.553-.582.925-1.414 1.161-2.275 1.308-4.792 3.096-10.775-2.796-12.783-2.512-.856-4.828.808-7.488-.114-2.18-.756-4.413-3.884-6.708-4.292M927.993 786l56.863-1.102a4464.385 4464.385 0 0 0 40.49-220.033c.904-5.71 1.784-11.65.138-17.195-3.112-10.484-14.342-16.466-25.092-18.476-16.708-3.121-47.406 1.226-55.972 18.596-9.055 18.359-7.535 51.146-9.73 71.43A1233.399 1233.399 0 0 0 927.992 786"/><path fill="#e5d1bd" d="M1065.144 875.674c3.716.126 7.286-.708 10.936-1.045 1.884-36.18-1.535-74.097-3.019-110.45l-27.883 1.489a324.824 324.824 0 0 1 13.795 59.769c.43 3.216 5.641 50.22 6.17 50.237"/><path fill="#292949" d="M1077.205 867.612c2.295-.41 3.647.612 5.177 2.009.888.812 1.492 1.96 2.563 2.541 1.072.582 2.123.695 3.396.823 6.705.673 22.152.393 13.923 11.608-7.474 10.184-27.322 6.129-38.787 3.363-.753-.182-1.55-.295-2.103-.88-.552-.582-.925-1.414-1.16-2.275-1.308-4.792-3.097-10.775 2.795-12.783 2.513-.856 4.828.808 7.488-.114 2.18-.756 4.413-3.884 6.708-4.292M1093.901 786l-56.861-1.102a4462.83 4462.83 0 0 1-40.492-220.033c-.903-5.71-1.783-11.65-.138-17.195 3.114-10.484 14.343-16.466 25.094-18.476 16.708-3.121 47.404 1.226 55.97 18.596 9.056 18.359 7.536 51.146 9.732 71.43a1233.18 1233.18 0 0 1 6.695 166.78"/><path fill="#474ebb" d="M1045.3 385.76c15.196 14.46 26.577 33.04 33.434 52.284 12.14 34.077 12.374 70.464 12.486 106.118l.11 35.6c.04 11.676-.994 14.19-13.684 12.65-23.513-2.852-47.957-7.7-69.26-18.148-10.14-4.972-19.614-11.252-30.244-15.168-15.46-5.695-31.314-3.116-46.61-6.822 6.641-20.074 11.393-37.173 14.801-57.856 3.51-21.297 6.7-44.528 11.844-65.538 3.085-12.608 8.824-24.387 14.663-35.98 3.924-7.792 8.078-15.767 14.742-21.4 20.072-16.966 42.58-.148 57.718 14.26"/><path fill="#e5d1bd" d="M990.47 335.766c2.87 6.272 7.56 11.5 11.388 17.239 3.726 5.581 5.066 10.632 6.054 17.105.713 4.675 2.384 8.33 8.016 9.13 10.62 1.509 7.582-7.267 9.996-13.65 2.757-7.297 8.637-13.062 12.746-19.576 11.875-18.82 8.486-56.017-16.196-63.956-26.985-8.678-40.713 34.672-32.004 53.708"/><path fill="#292949" d="M1033.49 317.554c3.062.124 6.432.366 8.704 2.424 2.272 2.058 2.026 6.546-.974 7.03-2.719.44-6.24-2.396-7.9-.326-.97 1.21-.119 2.982.617 4.398 2.827 5.432 3.673 11.73 2.355 17.517 1.117 1.037 2.862-.039 3.845-1.119a56.36 56.36 0 0 0 11.188-18.373 11.263 11.263 0 0 0 4.112 3.981c-1.016-2.538-.372-5.317.255-7.908 2.306-9.52 3.876-20.673-2.772-28.453-3.558-4.161-8.967-6.557-14.407-7.563-5.44-1.006-10.984-.762-16.467-.514-2.345.106-5.234.612-5.798 2.782 5.144 2.063 10.466 6.08 13.042 10.952.791 1.495 3.886 15.159 4.2 15.172"/><path fill="#292949" d="M1022.617 294.68c.188.137.372.274.552.412 2.332 1.774 4.519 3.933 7.341 4.72 4.067 1.134 8.436-.826 12.44.56 4.478 1.549 7.42 6.9 10.687 10.069 5.357 5.195 12.001 9.013 19.132 11.184a47.875 47.875 0 0 0 11.217 2.005c1.724.098 4.03.424 5.71-.03 2.256-.606 2.178-1.631-.226-2.4-7.534-2.415-9.896-12.998-9.326-20.012.45-5.538 2.36-11.326.248-16.463-1.614-3.925-5.078-5.952-8.427-8.197-3.693-2.476-7.697-1.81-11.89-3-4.375-1.243-7.94-4.688-12.402-5.567-4.712-.928-9.423 1.161-14.139 2.077a29.255 29.255 0 0 1-11.822-.145c-3.472-.764-6.862-2.17-10.418-2.137-5.244.049-10.066 3.32-13.128 7.58-4.328 6.025-7.126 16.333-5.6 24.265-.238-1.23 3.904-5.69 4.756-6.65 1.8-2.025 3.971-3.922 6.716-4.249 6.215-.741 13.583 2.35 18.58 5.979"/><path fill="#b1b1b2" d="M895.517 661.305l-1.436 15.77c-.465 5.12 2.865 9.61 7.439 10.027l36.997 3.366c4.575.416 8.661-3.4 9.128-8.52l1.433-15.768-53.56-4.875"/><path fill="#d67086" d="M1031.274 460.18c5.047-55.474-31.026-104.1-80.572-108.608-49.546-4.508-93.804 36.809-98.85 92.284-1.795 19.713 1.61 38.558 8.96 54.869h-.004c20.702 49.105 22.901 88.857 22.901 88.857l45.144 4.108 45.144 4.108s9.339-38.702 38.564-83.265h-.004c10.175-14.717 16.923-32.639 18.717-52.352"/><path fill="#ddd" d="M882.67 587.488l-6.094 66.985c-.255 2.799 1.517 5.247 3.957 5.47l83.53 7.6c2.44.222 4.623-1.867 4.878-4.666l6.095-66.984-92.366-8.405"/><path fill="#d8d6e7" d="M936.354 592.373l-7.5-.683-45.145-4.108-.008-.15.008.15 45.144 4.108 7.501.683"/><path fill="#2d2b55" d="M973.997 595.798l-37.643-3.425 37.643 3.425"/><path fill="#b76486" d="M973.997 595.798l-37.643-3.425-7.5-.683-45.145-4.108-.008-.15a7.463 7.463 0 0 1-.008-.124c69.108-25.244 120.373-98.272 147.699-146.08a113.16 113.16 0 0 1-.118 18.953c-1.794 19.713-8.542 37.635-18.717 52.352h.004c-.6.915-1.19 1.825-1.773 2.735-27.816 43.374-36.782 80.488-36.79 80.53"/><path fill="#ebb8c3" d="M872.19 498.104c-8.833-15.724-13.204-34.811-11.373-54.934 4.185-46.006 39.261-80.858 79.843-80.858 2.137 0 4.292.096 6.457.293 29.04 2.643 52.78 22.647 63.912 50.165-12.427-22.121-33.687-37.585-58.97-39.885a71.146 71.146 0 0 0-6.457-.293c-40.577 0-75.657 34.854-79.842 80.858-1.448 15.916.981 31.184 6.43 44.654"/><path fill="#f6f7f7" d="M911.41 590.102l.83-129.562 13.861 15.476 15.344-22.234 11.327 23.907 16.114-12.117-22.588 127.705 4.634.423 24.645-139.348-21.065 15.842-12.288-25.937-16.515 23.925-18.025-20.13-.908 141.629 4.633.421"/><path fill="#edeced" d="M906.858 576.76l-.082 12.92 4.633.422.103-15.96c-1.542.895-3.09 1.77-4.654 2.619m48.742-36.065l-9.302 52.58 4.634.424 10.348-58.506a316.006 316.006 0 0 1-5.68 5.502"/><path fill="#c4c4c4" d="M972.398 624.894l-92.366-8.404 1.125-12.37 92.367 8.405-1.126 12.37m-2.404 26.417l-92.366-8.404 1.125-12.37 92.367 8.404-1.126 12.37"/><path fill="#c2c2c4" d="M929.393 635.145l41.727 3.797 1.278-14.048-25.74-2.341c-5.87 4.843-11.646 9.007-17.265 12.592m44.131-22.62l1.513-16.632-1.453-.133c-2.123 3.088-7.234 8.66-14.358 15.464l14.298 1.3m-92.991 47.418l83.53 7.6c2.44.223 4.623-1.866 4.878-4.665l1.053-11.565-60.31-5.487c-12.856 5.765-24.215 8.59-33.068 9.927.293 2.228 1.86 4.002 3.917 4.19"/><path fill="#b1b1b2" d="M946.657 622.553l25.741 2.341 1.126-12.37-14.298-1.3a199.417 199.417 0 0 1-12.569 11.329m-36.973 23.272l60.31 5.487 1.126-12.37-41.727-3.797c-6.845 4.368-13.453 7.873-19.71 10.68"/><path fill="#9e9e9e" d="M948.208 675.757c-11.44 10.283-31.704 11.864-38.375 12.101l28.684 2.61c4.575.416 8.661-3.4 9.128-8.52l.563-6.191"/><path fill="#e5d1bd" d="M970.322 532.316c.126-.351.26-.712.472-1.003 1.984-2.707 4.64-2.93 7.282-4.983 1.178-.916.845-4.738 3.788-3.713 1.086.377 3.618 1.681 5.926 2.51 3.366 1.21 8.362.709 12.254-.422 5.232-1.519 10.734-3.248 15.642-5.512 5.136-2.37 10.146-5.012 15.036-7.852 4.075-2.367 10.543-5.08 13.624-8.68 5.211-6.09-.824-20.936-1.509-28.541-.715-7.927-.021-31.278 10.677-31.94 17.531-1.08 17.806 15.576 18.588 28.989.49 8.37.455 16.899-.297 25.255-1.052 11.702-8.636 18.4-18.657 23.94-10.622 5.872-21.486 11.629-33.159 15.122-5.672 1.698-11.257 2.206-17.047 3.142-5.72.924-4.99 3.418-9.79 5.512-2.679 1.169-5.19 2.865-8.05 3.517-5.128 1.17-9.237-2.384-13.133-5.135-.97-.685-1.627-1.145-2.13-2.137-.82-1.615-.5-3.341-.246-5.067a15.89 15.89 0 0 1 .73-3.002"/><path fill="#474ebb" d="M1071.777 475.7l-29.732 5.762c.637-.122-11.468-44.436-12.097-47.098-2.406-10.163-4.822-20.711-2.763-30.948 4.397-21.86 14.935-27.24 28.212-4.271 12.532 21.68 32.175 47.636 28.285 72.312-.085.536-.185 1.097-.525 1.521-.465.582-1.26.76-1.992.902l-9.388 1.82"/></svg>