<?xml version="1.0" encoding="UTF-8" standalone="no"?>
<!-- Created with Inkscape (http://www.inkscape.org/) -->

<svg
   xmlns:dc="http://purl.org/dc/elements/1.1/"
   xmlns:cc="http://creativecommons.org/ns#"
   xmlns:rdf="http://www.w3.org/1999/02/22-rdf-syntax-ns#"
   xmlns:svg="http://www.w3.org/2000/svg"
   xmlns="http://www.w3.org/2000/svg"
   xmlns:sodipodi="http://sodipodi.sourceforge.net/DTD/sodipodi-0.dtd"
   xmlns:inkscape="http://www.inkscape.org/namespaces/inkscape"
   version="1.1"
   id="svg2"
   xml:space="preserve"
   width="233.57033"
   height="30"
   viewBox="0 0 233.57034 30.000001"
   sodipodi:docname="logo.svg"
   inkscape:version="0.92.5 (2060ec1f9f, 2020-04-08)"><metadata
     id="metadata8"><rdf:RDF><cc:Work
         rdf:about=""><dc:format>image/svg+xml</dc:format><dc:type
           rdf:resource="http://purl.org/dc/dcmitype/StillImage" /><dc:title /></cc:Work></rdf:RDF></metadata><defs
     id="defs6" /><sodipodi:namedview
     pagecolor="#ffffff"
     bordercolor="#666666"
     borderopacity="1"
     objecttolerance="10"
     gridtolerance="10"
     guidetolerance="10"
     inkscape:pageopacity="0"
     inkscape:pageshadow="2"
     inkscape:window-width="2520"
     inkscape:window-height="1377"
     id="namedview4"
     showgrid="false"
     inkscape:zoom="5.6568542"
     inkscape:cx="139.5326"
     inkscape:cy="37.081022"
     inkscape:window-x="40"
     inkscape:window-y="40"
     inkscape:window-maximized="1"
     inkscape:current-layer="g83735"
     showguides="true"
     inkscape:guide-bbox="true" /><g
     id="g10"
     inkscape:groupmode="layer"
     inkscape:label="ink_ext_XXXXXX"
     transform="matrix(1.3333333,0,0,-1.3333333,112.81837,110.36589)"><g
       id="g12"
       transform="matrix(0.07193817,0,0,0.07193817,-103.18534,7.6617804)"><g
         id="g83721"><g
           id="g83752"><g
             transform="matrix(0.99730978,0,0,0.99848975,38.175561,2.0246408)"
             id="g83735"><g
               id="g83785"><path
                 inkscape:connector-curvature="0"
                 id="path14"
                 style="fill:#f2541b;fill-opacity:1;fill-rule:nonzero;stroke:none;stroke-width:0.59788138"
                 d="m 412.60963,732.27911 c -22.09002,0 -42.59299,4.02672 -61.51969,12.06102 -18.92968,8.03369 -35.27985,19.01728 -49.04629,32.95196 -13.76883,13.92034 -24.52195,30.36463 -32.2689,49.3167 -7.74217,18.95209 -11.61475,39.19637 -11.61475,60.73282 v 0.86206 c 0,21.53645 3.87258,41.70893 11.61475,60.51741 7.74695,18.80256 18.50007,35.3198 32.2689,49.5339 13.76644,14.21402 30.25404,25.41302 49.47293,33.59692 19.21471,8.1838 40.44069,12.2757 63.67437,12.2757 14.04908,0 26.88876,-1.1546 38.50292,-3.4399 11.61713,-2.3032 22.15753,-5.4678 31.62237,-9.4819 9.46484,-4.0202 18.20847,-8.9078 26.24463,-14.6449 8.02719,-5.749 15.48673,-12.0663 22.37025,-18.95204 l -42.16098,-48.6724 c -11.76354,10.61871 -23.7374,18.9521 -35.92398,24.98228 -12.19315,6.03026 -25.8873,9.04535 -41.08722,9.04535 -12.62517,0 -24.30445,-2.44079 -35.06234,-7.32243 -10.75551,-4.88755 -20.00345,-11.62968 -27.74801,-20.24427 -7.74695,-8.61453 -13.76883,-18.5991 -18.07045,-29.93565 -4.30159,-11.34852 -6.4515,-23.47474 -6.4515,-36.39602 v -0.86205 c 0,-12.92308 2.14991,-25.13305 6.4515,-36.61139 4.30162,-11.49268 10.2512,-21.53645 17.85594,-30.15283 7.59518,-8.61339 16.77977,-15.43926 27.53289,-20.45903 10.7555,-5.03116 22.58476,-7.53598 35.49197,-7.53598 17.20941,0 31.76459,3.15689 43.66854,9.47545 11.89679,6.30958 23.72844,14.92596 35.49256,25.84374 l 42.16278,-42.64338 c -7.74456,-8.33281 -15.77833,-15.7922 -24.09233,-22.39612 -8.32356,-6.61109 -17.42392,-12.27817 -27.31838,-17.015 -9.89627,-4.73862 -20.72407,-8.33281 -32.48102,-10.76823 -11.76652,-2.43481 -24.95637,-3.66179 -39.58146,-3.66179"
                 transform="matrix(1.0026975,0,0,1.0015126,-38.27854,-2.0276712)" /><path
                 inkscape:connector-curvature="0"
                 id="path16"
                 style="fill:#f2541b;fill-opacity:1;fill-rule:nonzero;stroke:none;stroke-width:0.62014371"
                 d="m 958.35746,892.65771 c 17.00545,0 30.05169,4.01009 39.15721,12.02907 9.09953,8.01898 13.64923,18.71093 13.64923,32.07586 v 0.89714 c 0,14.84383 -4.7735,25.98121 -14.32052,33.40616 -9.55306,7.41879 -22.82302,11.13752 -39.8284,11.13752 h -68.46925 v -89.54575 z m -138.7285,151.46989 h 143.20361 c 39.67933,0 70.10393,-10.5496 91.29243,-31.6303 17.9004,-17.81996 26.8506,-41.57979 26.8506,-71.27965 v -0.891 c 0,-25.24495 -6.1906,-45.81208 -18.5717,-61.70147 -12.3874,-15.88942 -28.5662,-27.55405 -48.5551,-34.97158 l 76.5245,-111.37447 h -80.552 l -67.12674,99.79214 h -0.89503 -53.2538 v -99.79214 h -68.91677 v 311.84847"
                 transform="matrix(1.0026975,0,0,1.0015126,-38.27854,-2.0276712)" /><path
                 inkscape:connector-curvature="0"
                 id="path18"
                 style="fill:#f2541b;fill-opacity:1;fill-rule:nonzero;stroke:none;stroke-width:0.60894138"
                 d="m 1192.0003,980.68024 h -91.6369 v 63.44736 h 249.5277 v -63.44736 h -91.6369 V 731.35903 h -66.2539 v 249.32121"
                 transform="matrix(1.0026975,0,0,1.0015126,-38.27854,-2.0276712)" /><path
                 inkscape:connector-curvature="0"
                 id="path20"
                 style="fill:#2c3a92;fill-opacity:1;fill-rule:nonzero;stroke:none;stroke-width:0.59997123"
                 d="m 1488.0781,731.83141 c -22.9511,0 -45.4659,3.97419 -67.5446,11.9286 -22.0906,7.95141 -42.1615,20.16918 -60.2308,36.65091 l 39.1501,47.27888 c 13.761,-11.2792 27.8925,-20.24268 42.3767,-26.89285 14.478,-6.65739 30.3305,-9.97734 47.5393,-9.97734 13.767,0 24.4448,2.52477 32.0514,7.59114 7.5946,5.05496 11.4008,12.07199 11.4008,21.03547 v 0.86868 c 0,4.33686 -0.7947,8.16286 -2.3722,11.49547 -1.5894,3.32479 -4.6068,6.42666 -9.0645,9.32312 -4.4515,2.88743 -10.636,5.78448 -18.5473,8.67672 -7.9112,2.88502 -18.1827,5.92725 -30.8384,9.10926 -15.2429,3.7507 -29.0458,7.94418 -41.4146,12.57802 -12.3748,4.6194 -22.8614,10.3376 -31.4897,17.13114 -8.6284,6.79656 -15.3087,15.24855 -20.0532,25.37529 -4.7502,10.11472 -7.1224,22.69936 -7.1224,37.73587 v 0.86749 c 0,13.87988 2.5633,26.38019 7.6842,37.519 5.1328,11.12682 12.327,20.74752 21.5947,28.84412 9.2616,8.0905 20.3159,14.3135 33.1747,18.6511 12.8528,4.3374 27.0322,6.5061 42.5201,6.5061 22.0846,0 42.3767,-3.3254 60.8762,-9.9762 18.4995,-6.6567 35.493,-16.1992 50.9811,-28.6272 l -34.4177,-50.30839 c -13.4861,9.24716 -26.6736,16.54255 -39.5802,21.89815 -12.9066,5.34954 -25.8132,8.02426 -38.7198,8.02426 -12.9067,0 -22.5867,-2.53618 -29.0399,-7.59059 -6.4533,-5.06638 -9.6799,-11.34961 -9.6799,-18.86786 v -0.86749 c 0,-4.91579 0.932,-9.18096 2.8023,-12.79552 1.8703,-3.61456 5.2404,-6.87363 10.1401,-9.75931 4.8818,-2.89161 11.5741,-5.63265 20.0531,-8.24114 8.4849,-2.60244 19.1925,-5.63866 32.141,-9.10867 15.2429,-4.0543 28.8247,-8.60865 40.7633,-13.66296 11.9326,-5.06035 21.9951,-11.1328 30.1991,-18.21611 8.192,-7.09294 14.3766,-15.39977 18.5473,-24.94218 4.1648,-9.5418 6.256,-20.96919 6.256,-34.2653 V 825.953 c 0,-15.04193 -2.7126,-28.41033 -8.1204,-40.12026 -5.4195,-11.71174 -12.9663,-21.54331 -22.6523,-29.49531 -9.6978,-7.95802 -21.26,-14.02504 -34.6924,-18.21851 -13.4384,-4.18625 -28.3228,-6.28751 -44.6712,-6.28751"
                 transform="matrix(1.0026975,0,0,1.0015126,-38.27854,-2.0276712)" /><path
                 inkscape:connector-curvature="0"
                 id="path22"
                 style="fill:#2c3a92;fill-opacity:1;fill-rule:nonzero;stroke:none;stroke-width:0.59788138"
                 d="m 1774.691,732.27913 c -22.0906,0 -42.5917,4.02672 -61.5215,12.06102 -18.9297,8.03369 -35.278,19.01729 -49.0451,32.95197 -13.7669,13.92034 -24.5225,30.36462 -32.2664,49.3167 -7.744,18.95209 -11.616,39.19636 -11.616,60.73281 v 0.86206 c 0,21.53643 3.872,41.70891 11.616,60.51739 7.7439,18.80256 18.4995,35.3198 32.2664,49.5339 13.7671,14.21402 30.2589,25.41302 49.4754,33.59692 19.2105,8.1838 40.4407,12.2757 63.6726,12.2757 14.0478,0 26.8888,-1.1546 38.5047,-3.4399 11.6159,-2.3032 22.1563,-5.4678 31.6212,-9.4819 9.4648,-4.0202 18.2126,-8.9078 26.2434,-14.6449 8.0248,-5.749 15.4879,-12.0663 22.3714,-18.95204 l -42.1615,-48.6724 c -11.7653,10.61871 -23.7399,18.9521 -35.9234,24.98228 -12.1956,6.03026 -25.8909,9.04535 -41.086,9.04535 -12.6259,0 -24.3075,-2.44079 -35.063,-7.32243 -10.7555,-4.88755 -20.0053,-11.62968 -27.7492,-20.24427 -7.744,-8.61453 -13.767,-18.5991 -18.0692,-29.93565 -4.3022,-11.34852 -6.4533,-23.47474 -6.4533,-36.39599 v -0.86206 c 0,-12.92308 2.1511,-25.13305 6.4533,-36.61138 4.3022,-11.49269 10.2536,-21.53646 17.8541,-30.15284 7.5946,-8.61338 16.7786,-15.43925 27.534,-20.45903 10.7556,-5.03115 22.5867,-7.53597 35.4933,-7.53597 17.2088,0 31.7645,3.15689 43.6673,9.47544 11.8967,6.30959 23.7338,14.92597 35.4932,25.84375 l 42.1615,-42.64338 c -7.7439,-8.33281 -15.7747,-15.7922 -24.0923,-22.39612 -8.3236,-6.6111 -17.4239,-12.27817 -27.319,-17.015 -9.895,-4.73862 -20.7222,-8.33282 -32.4817,-10.76823 -11.7652,-2.43482 -24.9527,-3.6618 -39.5802,-3.6618"
                 transform="matrix(1.0026975,0,0,1.0015126,-38.27854,-2.0276712)" /><path
                 inkscape:connector-curvature="0"
                 id="path24"
                 style="fill:#2c3a92;fill-opacity:1;fill-rule:nonzero;stroke:none;stroke-width:0.59788138"
                 d="m 2051.0511,793.44447 c 13.1874,0 25.383,2.4396 36.5688,7.3212 11.1856,4.87442 20.7162,11.63028 28.6096,20.24427 7.8814,8.61339 14.0478,18.58717 18.4995,29.93508 4.4455,11.33834 6.6684,23.47593 6.6684,36.39661 v 0.86206 c 0,12.92783 -2.2229,25.11986 -6.6684,36.61196 -4.4517,11.48015 -10.7556,21.53647 -18.9297,30.15705 -8.1802,8.60861 -17.8602,15.42247 -29.0399,20.45359 -11.1857,5.01921 -23.3813,7.5378 -36.5688,7.5378 -13.4862,0 -25.7474,-2.44079 -36.7837,-7.32243 -11.0483,-4.88755 -20.5132,-11.62968 -28.3946,-20.24427 -7.8934,-8.61453 -14.0598,-18.5991 -18.4994,-29.93565 -4.4516,-11.34852 -6.6685,-23.47474 -6.6685,-36.39599 v -0.86206 c 0,-12.92308 2.2169,-25.13305 6.6685,-36.61138 4.4396,-11.49269 10.7554,-21.53646 18.9296,-30.15284 8.1683,-8.61338 17.7825,-15.43925 28.8189,-20.45903 11.0423,-5.03115 23.3035,-7.53597 36.7897,-7.53597 z m -0.8605,-61.16534 c -23.2378,0 -44.6053,4.09193 -64.1027,12.27578 -19.5093,8.18386 -36.3536,19.23445 -50.5509,33.16675 -14.1972,13.92811 -25.2455,30.29521 -33.1269,49.10193 -7.8934,18.80253 -11.8311,38.98159 -11.8311,60.51804 v 0.86206 c 0,21.53643 4.0094,41.70891 12.0462,60.51739 8.0247,18.80256 19.1448,35.3198 33.3421,49.5339 14.1972,14.21402 31.1132,25.41302 50.7659,33.59692 19.6407,8.1838 41.0861,12.2757 64.3179,12.2757 23.226,0 44.5935,-4.0919 64.1028,-12.2757 19.5033,-8.1839 36.3536,-19.2393 50.5508,-33.16617 14.1973,-13.9329 25.2337,-30.29468 33.127,-49.10315 7.8814,-18.8145 11.8311,-38.98099 11.8311,-60.51683 v -0.86206 c 0,-21.53646 -4.0214,-41.70835 -12.0462,-60.51745 -8.0367,-18.81389 -19.1448,-35.3192 -33.3421,-49.53445 -14.1972,-14.21287 -31.1251,-25.41302 -50.7659,-33.59688 -19.6468,-8.18385 -41.086,-12.27578 -64.318,-12.27578"
                 transform="matrix(1.0026975,0,0,1.0015126,-38.27854,-2.0276712)" /><path
                 inkscape:connector-curvature="0"
                 id="path26"
                 style="fill:#2c3a92;fill-opacity:1;fill-rule:nonzero;stroke:none;stroke-width:0.60804498"
                 d="m 2352.4395,886.86689 c 16.6293,0 29.5359,4.52179 38.7199,13.58767 9.178,9.05848 13.767,20.27018 13.767,33.63507 v 0.89101 c 0,15.43775 -4.8101,27.17542 -14.4123,35.19429 -9.6083,8.01902 -22.7359,12.02853 -39.3652,12.02853 h -51.1962 v -95.33657 z m -118.7407,157.26071 h 123.043 c 18.0692,0 34.2025,-2.5987 48.3998,-7.8024 14.1972,-5.1913 26.2434,-12.5482 36.1384,-22.0459 9.8951,-9.5101 17.4896,-20.87039 22.7958,-34.08063 5.306,-13.21646 7.965,-27.84356 7.965,-43.88153 v -0.891 c 0,-18.12307 -3.161,-34.01249 -9.4649,-47.66764 -6.3098,-13.66317 -14.9919,-25.10257 -26.0283,-34.30395 -11.0482,-9.20634 -23.9548,-16.11897 -38.7198,-20.71627 -14.7768,-4.60905 -30.6173,-6.90521 -47.5393,-6.90521 h -50.3358 v -93.55394 h -66.2539 v 311.84847"
                 transform="matrix(1.0026975,0,0,1.0015126,-38.27854,-2.0276712)" /><g
                 id="g83728"
                 transform="translate(-45.143074,4.7491112e-6)"><path
                   d="m 568.06393,1043.6792 h 232.64479 c -12.40638,-15.9258 -22.81404,-36.8154 -30.40634,-61.12548 H 568.06393 v 61.12548"
                   style="fill:#f2541b;fill-opacity:1;fill-rule:nonzero;stroke:none;stroke-width:0.60932481"
                   id="path28"
                   inkscape:connector-curvature="0" /><path
                   d="m 568.06393,856.95964 v 61.11928 h 170.511 c -0.93406,-10.30532 -1.44392,-20.87092 -1.44392,-31.67197 0,-10.01405 0.42598,-19.84904 1.23063,-29.44731 H 568.06393"
                   style="fill:#f2541b;fill-opacity:1;fill-rule:nonzero;stroke:none;stroke-width:0.60932481"
                   id="path30"
                   inkscape:connector-curvature="0" /><path
                   d="m 772.45928,792.48517 c 7.5923,-24.31079 17.99996,-45.20092 30.40634,-61.12615 H 568.06393 v 61.12615 h 204.39535"
                   style="fill:#f2541b;fill-opacity:1;fill-rule:nonzero;stroke:none;stroke-width:0.60932481"
                   id="path32"
                   inkscape:connector-curvature="0" /></g><g
                 id="g83757"><path
                   inkscape:connector-curvature="0"
                   id="path34"
                   style="fill:#2c3a92;fill-opacity:1;fill-rule:nonzero;stroke:none;stroke-width:0.62418056"
                   d="m 2662.262,1043.6792 h -244.1283 c 13.0206,-15.9258 23.9413,-36.8154 31.9071,-61.12555 h 212.2212 v 61.12555" /><path
                   inkscape:connector-curvature="0"
                   id="path36"
                   style="fill:#2c3a92;fill-opacity:1;fill-rule:nonzero;stroke:none;stroke-width:0.62418056"
                   d="m 2662.262,856.95962 v 61.11929 h -178.9248 c 0.9745,-10.30532 1.5151,-20.87092 1.5151,-31.67198 0,-10.01406 -0.4464,-19.84905 -1.2951,-29.44731 h 178.7048" /><path
                   inkscape:connector-curvature="0"
                   id="path38"
                   style="fill:#2c3a92;fill-opacity:1;fill-rule:nonzero;stroke:none;stroke-width:0.62418056"
                   d="m 2447.771,792.48516 c -7.9658,-24.31078 -18.8865,-45.20091 -31.9071,-61.12614 h 246.3981 v 61.12614 h -214.491" /></g></g></g></g></g></g></g></svg>